<svg width="500" height="500" viewBox="0 0 500 500" fill="none" xmlns="http://www.w3.org/2000/svg">
<rect width="500" height="500" fill="#2E294E"/>
<path d="M250.854 28.6464C250.658 28.4512 250.342 28.4512 250.146 28.6464L246.964 31.8284C246.769 32.0237 246.769 32.3403 246.964 32.5355C247.16 32.7308 247.476 32.7308 247.672 32.5355L250.5 29.7071L253.328 32.5355C253.524 32.7308 253.84 32.7308 254.036 32.5355C254.231 32.3403 254.231 32.0237 254.036 31.8284L250.854 28.6464ZM250.146 472.354C250.342 472.549 250.658 472.549 250.854 472.354L254.036 469.172C254.231 468.976 254.231 468.66 254.036 468.464C253.84 468.269 253.524 468.269 253.328 468.464L250.5 471.293L247.672 468.464C247.476 468.269 247.16 468.269 246.964 468.464C246.769 468.66 246.769 468.976 246.964 469.172L250.146 472.354ZM250 29L250 472L251 472L251 29L250 29Z" fill="white"/>
<path d="M28.6464 249.646C28.4512 249.842 28.4512 250.158 28.6464 250.354L31.8284 253.536C32.0237 253.731 32.3403 253.731 32.5355 253.536C32.7308 253.34 32.7308 253.024 32.5355 252.828L29.7071 250L32.5355 247.172C32.7308 246.976 32.7308 246.66 32.5355 246.464C32.3403 246.269 32.0237 246.269 31.8284 246.464L28.6464 249.646ZM472.354 250.354C472.549 250.158 472.549 249.842 472.354 249.646L469.172 246.464C468.976 246.269 468.66 246.269 468.464 246.464C468.269 246.66 468.269 246.976 468.464 247.172L471.293 250L468.464 252.828C468.269 253.024 468.269 253.34 468.464 253.536C468.66 253.731 468.976 253.731 469.172 253.536L472.354 250.354ZM29 250.5L472 250.5V249.5L29 249.5V250.5Z" fill="white"/>
<path d="M262.305 45.115L262.695 52H261.86L261.645 48.405C261.635 48.1617 261.625 47.915 261.615 47.665C261.605 47.415 261.598 47.175 261.595 46.945C261.592 46.715 261.59 46.51 261.59 46.33C261.59 46.15 261.59 46.01 261.59 45.91L260.43 50.765H259.56L258.315 45.91C258.318 46.0067 258.322 46.15 258.325 46.34C258.328 46.5267 258.33 46.7383 258.33 46.975C258.333 47.2117 258.332 47.455 258.325 47.705C258.322 47.9517 258.315 48.1817 258.305 48.395L258.12 52H257.305L257.695 45.115H258.905L260.02 49.83L261.085 45.115H262.305ZM267.771 50.85C267.771 51.06 267.806 51.2133 267.876 51.31C267.946 51.4067 268.054 51.4783 268.201 51.525L267.996 52.115C267.769 52.085 267.571 52.0133 267.401 51.9C267.231 51.7833 267.108 51.6083 267.031 51.375C266.841 51.6183 266.604 51.8033 266.321 51.93C266.038 52.0533 265.724 52.115 265.381 52.115C264.854 52.115 264.439 51.9667 264.136 51.67C263.833 51.3733 263.681 50.98 263.681 50.49C263.681 49.9467 263.893 49.53 264.316 49.24C264.739 48.95 265.351 48.805 266.151 48.805H266.926V48.365C266.926 47.985 266.814 47.7167 266.591 47.56C266.371 47.4 266.064 47.32 265.671 47.32C265.498 47.32 265.294 47.3417 265.061 47.385C264.828 47.425 264.574 47.4933 264.301 47.59L264.081 46.955C264.404 46.835 264.708 46.75 264.991 46.7C265.274 46.65 265.544 46.625 265.801 46.625C266.458 46.625 266.949 46.7783 267.276 47.085C267.606 47.3883 267.771 47.8017 267.771 48.325V50.85ZM265.596 51.475C265.856 51.475 266.104 51.41 266.341 51.28C266.578 51.1467 266.773 50.9633 266.926 50.73V49.375H266.166C265.586 49.375 265.176 49.475 264.936 49.675C264.699 49.875 264.581 50.1433 264.581 50.48C264.581 50.8067 264.664 51.055 264.831 51.225C265.001 51.3917 265.256 51.475 265.596 51.475ZM272.662 46.735V51.335H274.147V52H270.197V51.335H271.822V47.4H270.247V46.735H272.662ZM271.992 44.27C272.179 44.27 272.327 44.3267 272.437 44.44C272.551 44.5533 272.607 44.6917 272.607 44.855C272.607 45.025 272.551 45.1683 272.437 45.285C272.327 45.3983 272.179 45.455 271.992 45.455C271.816 45.455 271.671 45.3983 271.557 45.285C271.444 45.1683 271.387 45.025 271.387 44.855C271.387 44.6917 271.444 44.5533 271.557 44.44C271.671 44.3267 271.816 44.27 271.992 44.27ZM275.993 52V46.735H276.708L276.773 47.465C276.987 47.195 277.253 46.9883 277.573 46.845C277.897 46.6983 278.21 46.625 278.513 46.625C279.03 46.625 279.405 46.7617 279.638 47.035C279.875 47.3083 279.993 47.6883 279.993 48.175V52H279.153V48.795C279.153 48.435 279.133 48.145 279.093 47.925C279.053 47.7017 278.97 47.54 278.843 47.44C278.717 47.3367 278.52 47.285 278.253 47.285C278.047 47.285 277.852 47.33 277.668 47.42C277.488 47.51 277.327 47.6233 277.183 47.76C277.043 47.8933 276.927 48.0283 276.833 48.165V52H275.993ZM291.315 50.245H288.59L288.04 52H287.185L289.425 45.115H290.535L292.775 52H291.865L291.315 50.245ZM288.815 49.525H291.09L289.96 45.845L288.815 49.525ZM294.492 52H293.532L295.477 49.22L293.772 46.735H294.767L295.987 48.695L297.222 46.735H298.182L296.482 49.185L298.422 52H297.392L295.952 49.74L294.492 52ZM302.643 46.735V51.335H304.128V52H300.178V51.335H301.803V47.4H300.228V46.735H302.643ZM301.973 44.27C302.159 44.27 302.308 44.3267 302.418 44.44C302.531 44.5533 302.588 44.6917 302.588 44.855C302.588 45.025 302.531 45.1683 302.418 45.285C302.308 45.3983 302.159 45.455 301.973 45.455C301.796 45.455 301.651 45.3983 301.538 45.285C301.424 45.1683 301.368 45.025 301.368 44.855C301.368 44.6917 301.424 44.5533 301.538 44.44C301.651 44.3267 301.796 44.27 301.973 44.27ZM307.764 51.42C308.167 51.42 308.485 51.345 308.719 51.195C308.955 51.0417 309.074 50.8383 309.074 50.585C309.074 50.425 309.044 50.2867 308.984 50.17C308.927 50.0533 308.809 49.9483 308.629 49.855C308.449 49.7617 308.172 49.6683 307.799 49.575C307.435 49.485 307.119 49.3817 306.849 49.265C306.582 49.145 306.374 48.99 306.224 48.8C306.077 48.61 306.004 48.3633 306.004 48.06C306.004 47.7633 306.087 47.5083 306.254 47.295C306.424 47.0783 306.659 46.9133 306.959 46.8C307.259 46.6833 307.607 46.625 308.004 46.625C308.427 46.625 308.795 46.6817 309.109 46.795C309.425 46.905 309.694 47.0417 309.914 47.205L309.544 47.775C309.344 47.6383 309.124 47.5267 308.884 47.44C308.644 47.35 308.354 47.305 308.014 47.305C307.6 47.305 307.307 47.37 307.134 47.5C306.96 47.6267 306.874 47.7917 306.874 47.995C306.874 48.1483 306.915 48.2767 306.999 48.38C307.085 48.48 307.23 48.5717 307.434 48.655C307.637 48.735 307.917 48.8233 308.274 48.92C308.617 49.01 308.915 49.1183 309.169 49.245C309.425 49.3717 309.625 49.5383 309.769 49.745C309.912 49.9517 309.984 50.2183 309.984 50.545C309.984 50.9183 309.877 51.2217 309.664 51.455C309.45 51.685 309.174 51.8533 308.834 51.96C308.497 52.0633 308.14 52.115 307.764 52.115C307.287 52.115 306.88 52.0467 306.544 51.91C306.21 51.77 305.93 51.6017 305.704 51.405L306.184 50.85C306.39 51.02 306.627 51.1583 306.894 51.265C307.164 51.3683 307.454 51.42 307.764 51.42Z" fill="white"/>
<path d="M54.58 235.005C55.03 235.005 55.4067 235.062 55.71 235.175C56.0133 235.288 56.3017 235.455 56.575 235.675L56.09 236.24C55.8733 236.057 55.6433 235.927 55.4 235.85C55.16 235.77 54.9083 235.73 54.645 235.73C54.2683 235.73 53.92 235.82 53.6 236C53.28 236.177 53.0217 236.472 52.825 236.885C52.6317 237.295 52.535 237.852 52.535 238.555C52.535 239.238 52.6267 239.787 52.81 240.2C52.9967 240.613 53.2483 240.912 53.565 241.095C53.8817 241.278 54.235 241.37 54.625 241.37C55.0117 241.37 55.3283 241.312 55.575 241.195C55.825 241.078 56.0417 240.945 56.225 240.795L56.675 241.365C56.465 241.568 56.1917 241.745 55.855 241.895C55.5183 242.042 55.105 242.115 54.615 242.115C54.0583 242.115 53.5533 241.978 53.1 241.705C52.65 241.432 52.2933 241.032 52.03 240.505C51.7667 239.975 51.635 239.325 51.635 238.555C51.635 237.782 51.7683 237.132 52.035 236.605C52.305 236.078 52.6633 235.68 53.11 235.41C53.56 235.14 54.05 235.005 54.58 235.005ZM58.0511 242V241.355H58.8711V237.38H58.0511V236.735H59.5111L59.6661 237.98C59.8694 237.547 60.1161 237.212 60.4061 236.975C60.6961 236.738 61.0794 236.62 61.5561 236.62C61.7028 236.62 61.8328 236.632 61.9461 236.655C62.0628 236.675 62.1811 236.702 62.3011 236.735L62.0561 237.485C61.9461 237.455 61.8461 237.433 61.7561 237.42C61.6661 237.403 61.5628 237.395 61.4461 237.395C61.0428 237.395 60.6961 237.538 60.4061 237.825C60.1161 238.112 59.8844 238.545 59.7111 239.125V241.355H60.7811V242H58.0511ZM61.4911 238.515V237.37L61.5761 236.735H62.3011L62.1811 238.515H61.4911ZM66.0022 236.625C66.4989 236.625 66.9139 236.738 67.2472 236.965C67.5839 237.188 67.8355 237.505 68.0022 237.915C68.1722 238.325 68.2572 238.808 68.2572 239.365C68.2572 239.902 68.1705 240.377 67.9972 240.79C67.8239 241.203 67.5689 241.528 67.2322 241.765C66.8989 241.998 66.4855 242.115 65.9922 242.115C65.4989 242.115 65.0839 242.002 64.7472 241.775C64.4105 241.548 64.1555 241.23 63.9822 240.82C63.8122 240.407 63.7272 239.925 63.7272 239.375C63.7272 238.832 63.8139 238.353 63.9872 237.94C64.1605 237.527 64.4155 237.205 64.7522 236.975C65.0922 236.742 65.5089 236.625 66.0022 236.625ZM66.0022 237.31C65.5489 237.31 65.2055 237.478 64.9722 237.815C64.7422 238.148 64.6272 238.668 64.6272 239.375C64.6272 240.068 64.7405 240.583 64.9672 240.92C65.1972 241.257 65.5389 241.425 65.9922 241.425C66.4455 241.425 66.7855 241.257 67.0122 240.92C67.2422 240.583 67.3572 240.065 67.3572 239.365C67.3572 238.665 67.2439 238.148 67.0172 237.815C66.7905 237.478 66.4522 237.31 66.0022 237.31ZM71.7833 241.42C72.1866 241.42 72.5049 241.345 72.7383 241.195C72.9749 241.042 73.0933 240.838 73.0933 240.585C73.0933 240.425 73.0633 240.287 73.0033 240.17C72.9466 240.053 72.8283 239.948 72.6483 239.855C72.4683 239.762 72.1916 239.668 71.8183 239.575C71.4549 239.485 71.1383 239.382 70.8683 239.265C70.6016 239.145 70.3933 238.99 70.2433 238.8C70.0966 238.61 70.0233 238.363 70.0233 238.06C70.0233 237.763 70.1066 237.508 70.2733 237.295C70.4433 237.078 70.6783 236.913 70.9783 236.8C71.2783 236.683 71.6266 236.625 72.0233 236.625C72.4466 236.625 72.8149 236.682 73.1283 236.795C73.4449 236.905 73.7133 237.042 73.9333 237.205L73.5633 237.775C73.3633 237.638 73.1433 237.527 72.9033 237.44C72.6633 237.35 72.3733 237.305 72.0333 237.305C71.6199 237.305 71.3266 237.37 71.1533 237.5C70.9799 237.627 70.8933 237.792 70.8933 237.995C70.8933 238.148 70.9349 238.277 71.0183 238.38C71.1049 238.48 71.2499 238.572 71.4533 238.655C71.6566 238.735 71.9366 238.823 72.2933 238.92C72.6366 239.01 72.9349 239.118 73.1883 239.245C73.4449 239.372 73.6449 239.538 73.7883 239.745C73.9316 239.952 74.0033 240.218 74.0033 240.545C74.0033 240.918 73.8966 241.222 73.6833 241.455C73.4699 241.685 73.1933 241.853 72.8533 241.96C72.5166 242.063 72.1599 242.115 71.7833 242.115C71.3066 242.115 70.8999 242.047 70.5633 241.91C70.2299 241.77 69.9499 241.602 69.7233 241.405L70.2033 240.85C70.4099 241.02 70.6466 241.158 70.9133 241.265C71.1833 241.368 71.4733 241.42 71.7833 241.42ZM77.7794 241.42C78.1827 241.42 78.501 241.345 78.7344 241.195C78.971 241.042 79.0894 240.838 79.0894 240.585C79.0894 240.425 79.0594 240.287 78.9994 240.17C78.9427 240.053 78.8244 239.948 78.6444 239.855C78.4644 239.762 78.1877 239.668 77.8144 239.575C77.451 239.485 77.1344 239.382 76.8644 239.265C76.5977 239.145 76.3894 238.99 76.2394 238.8C76.0927 238.61 76.0194 238.363 76.0194 238.06C76.0194 237.763 76.1027 237.508 76.2694 237.295C76.4394 237.078 76.6744 236.913 76.9744 236.8C77.2744 236.683 77.6227 236.625 78.0194 236.625C78.4427 236.625 78.811 236.682 79.1244 236.795C79.441 236.905 79.7094 237.042 79.9294 237.205L79.5594 237.775C79.3594 237.638 79.1394 237.527 78.8994 237.44C78.6594 237.35 78.3694 237.305 78.0294 237.305C77.616 237.305 77.3227 237.37 77.1494 237.5C76.976 237.627 76.8894 237.792 76.8894 237.995C76.8894 238.148 76.931 238.277 77.0144 238.38C77.101 238.48 77.246 238.572 77.4494 238.655C77.6527 238.735 77.9327 238.823 78.2894 238.92C78.6327 239.01 78.931 239.118 79.1844 239.245C79.441 239.372 79.641 239.538 79.7844 239.745C79.9277 239.952 79.9994 240.218 79.9994 240.545C79.9994 240.918 79.8927 241.222 79.6794 241.455C79.466 241.685 79.1894 241.853 78.8494 241.96C78.5127 242.063 78.156 242.115 77.7794 242.115C77.3027 242.115 76.896 242.047 76.5594 241.91C76.226 241.77 75.946 241.602 75.7194 241.405L76.1994 240.85C76.406 241.02 76.6427 241.158 76.9094 241.265C77.1794 241.368 77.4694 241.42 77.7794 241.42ZM91.3116 240.245H88.5866L88.0366 242H87.1816L89.4216 235.115H90.5316L92.7716 242H91.8616L91.3116 240.245ZM88.8116 239.525H91.0866L89.9566 235.845L88.8116 239.525ZM94.4877 242H93.5277L95.4727 239.22L93.7677 236.735H94.7627L95.9827 238.695L97.2177 236.735H98.1777L96.4777 239.185L98.4177 242H97.3877L95.9477 239.74L94.4877 242ZM102.639 236.735V241.335H104.124V242H100.174V241.335H101.799V237.4H100.224V236.735H102.639ZM101.969 234.27C102.155 234.27 102.304 234.327 102.414 234.44C102.527 234.553 102.584 234.692 102.584 234.855C102.584 235.025 102.527 235.168 102.414 235.285C102.304 235.398 102.155 235.455 101.969 235.455C101.792 235.455 101.647 235.398 101.534 235.285C101.42 235.168 101.364 235.025 101.364 234.855C101.364 234.692 101.42 234.553 101.534 234.44C101.647 234.327 101.792 234.27 101.969 234.27ZM107.76 241.42C108.163 241.42 108.482 241.345 108.715 241.195C108.952 241.042 109.07 240.838 109.07 240.585C109.07 240.425 109.04 240.287 108.98 240.17C108.923 240.053 108.805 239.948 108.625 239.855C108.445 239.762 108.168 239.668 107.795 239.575C107.432 239.485 107.115 239.382 106.845 239.265C106.578 239.145 106.37 238.99 106.22 238.8C106.073 238.61 106 238.363 106 238.06C106 237.763 106.083 237.508 106.25 237.295C106.42 237.078 106.655 236.913 106.955 236.8C107.255 236.683 107.603 236.625 108 236.625C108.423 236.625 108.792 236.682 109.105 236.795C109.422 236.905 109.69 237.042 109.91 237.205L109.54 237.775C109.34 237.638 109.12 237.527 108.88 237.44C108.64 237.35 108.35 237.305 108.01 237.305C107.597 237.305 107.303 237.37 107.13 237.5C106.957 237.627 106.87 237.792 106.87 237.995C106.87 238.148 106.912 238.277 106.995 238.38C107.082 238.48 107.227 238.572 107.43 238.655C107.633 238.735 107.913 238.823 108.27 238.92C108.613 239.01 108.912 239.118 109.165 239.245C109.422 239.372 109.622 239.538 109.765 239.745C109.908 239.952 109.98 240.218 109.98 240.545C109.98 240.918 109.873 241.222 109.66 241.455C109.447 241.685 109.17 241.853 108.83 241.96C108.493 242.063 108.137 242.115 107.76 242.115C107.283 242.115 106.877 242.047 106.54 241.91C106.207 241.77 105.927 241.602 105.7 241.405L106.18 240.85C106.387 241.02 106.623 241.158 106.89 241.265C107.16 241.368 107.45 241.42 107.76 241.42Z" fill="white"/>
<rect x="306" y="306" width="150" height="150" rx="7" fill="#1B998B"/>
<path d="M325.744 371.492L326.056 377H325.388L325.216 374.124C325.208 373.929 325.2 373.732 325.192 373.532C325.184 373.332 325.179 373.14 325.176 372.956C325.173 372.772 325.172 372.608 325.172 372.464C325.172 372.32 325.172 372.208 325.172 372.128L324.244 376.012H323.548L322.552 372.128C322.555 372.205 322.557 372.32 322.56 372.472C322.563 372.621 322.564 372.791 322.564 372.98C322.567 373.169 322.565 373.364 322.56 373.564C322.557 373.761 322.552 373.945 322.544 374.116L322.396 377H321.744L322.056 371.492H323.024L323.916 375.264L324.768 371.492H325.744ZM330.117 376.08C330.117 376.248 330.145 376.371 330.201 376.448C330.257 376.525 330.344 376.583 330.461 376.62L330.297 377.092C330.116 377.068 329.957 377.011 329.821 376.92C329.685 376.827 329.586 376.687 329.525 376.5C329.373 376.695 329.184 376.843 328.957 376.944C328.73 377.043 328.48 377.092 328.205 377.092C327.784 377.092 327.452 376.973 327.209 376.736C326.966 376.499 326.845 376.184 326.845 375.792C326.845 375.357 327.014 375.024 327.353 374.792C327.692 374.56 328.181 374.444 328.821 374.444H329.441V374.092C329.441 373.788 329.352 373.573 329.173 373.448C328.997 373.32 328.752 373.256 328.437 373.256C328.298 373.256 328.136 373.273 327.949 373.308C327.762 373.34 327.56 373.395 327.341 373.472L327.165 372.964C327.424 372.868 327.666 372.8 327.893 372.76C328.12 372.72 328.336 372.7 328.541 372.7C329.066 372.7 329.46 372.823 329.721 373.068C329.985 373.311 330.117 373.641 330.117 374.06V376.08ZM328.377 376.58C328.585 376.58 328.784 376.528 328.973 376.424C329.162 376.317 329.318 376.171 329.441 375.984V374.9H328.833C328.369 374.9 328.041 374.98 327.849 375.14C327.66 375.3 327.565 375.515 327.565 375.784C327.565 376.045 327.632 376.244 327.765 376.38C327.901 376.513 328.105 376.58 328.377 376.58ZM334.03 372.788V376.468H335.218V377H332.058V376.468H333.358V373.32H332.098V372.788H334.03ZM333.494 370.816C333.643 370.816 333.762 370.861 333.85 370.952C333.94 371.043 333.986 371.153 333.986 371.284C333.986 371.42 333.94 371.535 333.85 371.628C333.762 371.719 333.643 371.764 333.494 371.764C333.352 371.764 333.236 371.719 333.146 371.628C333.055 371.535 333.01 371.42 333.01 371.284C333.01 371.153 333.055 371.043 333.146 370.952C333.236 370.861 333.352 370.816 333.494 370.816ZM336.695 377V372.788H337.267L337.319 373.372C337.489 373.156 337.703 372.991 337.959 372.876C338.217 372.759 338.468 372.7 338.711 372.7C339.124 372.7 339.424 372.809 339.611 373.028C339.8 373.247 339.895 373.551 339.895 373.94V377H339.223V374.436C339.223 374.148 339.207 373.916 339.175 373.74C339.143 373.561 339.076 373.432 338.975 373.352C338.873 373.269 338.716 373.228 338.503 373.228C338.337 373.228 338.181 373.264 338.035 373.336C337.891 373.408 337.761 373.499 337.647 373.608C337.535 373.715 337.441 373.823 337.367 373.932V377H336.695ZM348.952 375.596H346.772L346.332 377H345.648L347.44 371.492H348.328L350.12 377H349.392L348.952 375.596ZM346.952 375.02H348.772L347.868 372.076L346.952 375.02ZM351.493 377H350.725L352.281 374.776L350.917 372.788H351.713L352.689 374.356L353.677 372.788H354.445L353.085 374.748L354.637 377H353.813L352.661 375.192L351.493 377ZM358.014 372.788V376.468H359.202V377H356.042V376.468H357.342V373.32H356.082V372.788H358.014ZM357.478 370.816C357.627 370.816 357.746 370.861 357.834 370.952C357.925 371.043 357.97 371.153 357.97 371.284C357.97 371.42 357.925 371.535 357.834 371.628C357.746 371.719 357.627 371.764 357.478 371.764C357.337 371.764 357.221 371.719 357.13 371.628C357.039 371.535 356.994 371.42 356.994 371.284C356.994 371.153 357.039 371.043 357.13 370.952C357.221 370.861 357.337 370.816 357.478 370.816ZM362.111 376.536C362.434 376.536 362.688 376.476 362.875 376.356C363.064 376.233 363.159 376.071 363.159 375.868C363.159 375.74 363.135 375.629 363.087 375.536C363.042 375.443 362.947 375.359 362.803 375.284C362.659 375.209 362.438 375.135 362.139 375.06C361.848 374.988 361.595 374.905 361.379 374.812C361.166 374.716 360.999 374.592 360.879 374.44C360.762 374.288 360.703 374.091 360.703 373.848C360.703 373.611 360.77 373.407 360.903 373.236C361.039 373.063 361.227 372.931 361.467 372.84C361.707 372.747 361.986 372.7 362.303 372.7C362.642 372.7 362.936 372.745 363.187 372.836C363.44 372.924 363.655 373.033 363.831 373.164L363.535 373.62C363.375 373.511 363.199 373.421 363.007 373.352C362.815 373.28 362.583 373.244 362.311 373.244C361.98 373.244 361.746 373.296 361.607 373.4C361.468 373.501 361.399 373.633 361.399 373.796C361.399 373.919 361.432 374.021 361.499 374.104C361.568 374.184 361.684 374.257 361.847 374.324C362.01 374.388 362.234 374.459 362.519 374.536C362.794 374.608 363.032 374.695 363.235 374.796C363.44 374.897 363.6 375.031 363.715 375.196C363.83 375.361 363.887 375.575 363.887 375.836C363.887 376.135 363.802 376.377 363.631 376.564C363.46 376.748 363.239 376.883 362.967 376.968C362.698 377.051 362.412 377.092 362.111 377.092C361.73 377.092 361.404 377.037 361.135 376.928C360.868 376.816 360.644 376.681 360.463 376.524L360.847 376.08C361.012 376.216 361.202 376.327 361.415 376.412C361.631 376.495 361.863 376.536 362.111 376.536ZM372.937 375.596H370.757L370.317 377H369.633L371.425 371.492H372.313L374.105 377H373.377L372.937 375.596ZM370.937 375.02H372.757L371.853 372.076L370.937 375.02ZM376.71 371.092V375.96C376.71 376.168 376.774 376.316 376.902 376.404C377.032 376.489 377.2 376.532 377.406 376.532C377.534 376.532 377.655 376.519 377.77 376.492C377.884 376.465 377.999 376.429 378.114 376.384L378.294 376.876C378.179 376.932 378.036 376.981 377.866 377.024C377.698 377.069 377.507 377.092 377.294 377.092C376.92 377.092 376.618 376.989 376.386 376.784C376.154 376.576 376.038 376.289 376.038 375.924V371.624H374.746V371.092H376.71ZM381.999 372.788V376.468H383.187V377H380.027V376.468H381.327V373.32H380.067V372.788H381.999ZM381.463 370.816C381.612 370.816 381.731 370.861 381.819 370.952C381.909 371.043 381.955 371.153 381.955 371.284C381.955 371.42 381.909 371.535 381.819 371.628C381.731 371.719 381.612 371.764 381.463 371.764C381.321 371.764 381.205 371.719 381.115 371.628C381.024 371.535 380.979 371.42 380.979 371.284C380.979 371.153 381.024 371.043 381.115 370.952C381.205 370.861 381.321 370.816 381.463 370.816ZM388.087 372.34L388.295 372.972C388.117 373.028 387.926 373.063 387.723 373.076C387.521 373.089 387.301 373.096 387.063 373.096C387.306 373.208 387.489 373.353 387.611 373.532C387.734 373.708 387.795 373.916 387.795 374.156C387.795 374.433 387.733 374.68 387.607 374.896C387.482 375.112 387.301 375.281 387.063 375.404C386.829 375.527 386.545 375.588 386.211 375.588C386.07 375.588 385.951 375.581 385.855 375.568C385.762 375.555 385.671 375.535 385.583 375.508C385.519 375.551 385.466 375.609 385.423 375.684C385.383 375.759 385.363 375.836 385.363 375.916C385.363 376.017 385.403 376.101 385.483 376.168C385.563 376.235 385.711 376.268 385.927 376.268H386.687C386.97 376.268 387.223 376.319 387.447 376.42C387.674 376.521 387.851 376.657 387.979 376.828C388.11 376.999 388.175 377.193 388.175 377.412C388.175 377.825 387.999 378.143 387.647 378.364C387.298 378.585 386.803 378.696 386.163 378.696C385.715 378.696 385.362 378.649 385.103 378.556C384.845 378.465 384.659 378.325 384.547 378.136C384.438 377.949 384.383 377.713 384.383 377.428H384.991C384.991 377.591 385.023 377.725 385.087 377.832C385.151 377.939 385.267 378.017 385.435 378.068C385.603 378.121 385.845 378.148 386.159 378.148C386.469 378.148 386.721 378.121 386.915 378.068C387.113 378.017 387.258 377.94 387.351 377.836C387.447 377.735 387.495 377.608 387.495 377.456C387.495 377.256 387.405 377.105 387.223 377.004C387.042 376.903 386.815 376.852 386.543 376.852H385.791C385.429 376.852 385.161 376.772 384.987 376.612C384.817 376.452 384.731 376.268 384.731 376.06C384.731 375.924 384.77 375.792 384.847 375.664C384.927 375.536 385.043 375.423 385.195 375.324C384.953 375.196 384.774 375.037 384.659 374.848C384.545 374.659 384.487 374.429 384.487 374.16C384.487 373.875 384.558 373.623 384.699 373.404C384.841 373.183 385.038 373.009 385.291 372.884C385.545 372.759 385.837 372.696 386.167 372.696C386.522 372.693 386.81 372.679 387.031 372.652C387.253 372.623 387.442 372.581 387.599 372.528C387.759 372.475 387.922 372.412 388.087 372.34ZM386.167 373.188C385.829 373.188 385.578 373.28 385.415 373.464C385.255 373.645 385.175 373.877 385.175 374.16C385.175 374.445 385.258 374.68 385.423 374.864C385.589 375.048 385.842 375.14 386.183 375.14C386.482 375.14 386.709 375.053 386.863 374.88C387.021 374.707 387.099 374.465 387.099 374.156C387.099 373.839 387.021 373.599 386.863 373.436C386.709 373.271 386.477 373.188 386.167 373.188ZM389.46 377V372.788H390.032L390.084 373.372C390.255 373.156 390.468 372.991 390.724 372.876C390.983 372.759 391.234 372.7 391.476 372.7C391.89 372.7 392.19 372.809 392.376 373.028C392.566 373.247 392.66 373.551 392.66 373.94V377H391.988V374.436C391.988 374.148 391.972 373.916 391.94 373.74C391.908 373.561 391.842 373.432 391.74 373.352C391.639 373.269 391.482 373.228 391.268 373.228C391.103 373.228 390.947 373.264 390.8 373.336C390.656 373.408 390.527 373.499 390.412 373.608C390.3 373.715 390.207 373.823 390.132 373.932V377H389.46ZM397.033 372.7C397.169 372.7 397.298 372.729 397.421 372.788C397.546 372.847 397.649 372.96 397.729 373.128C397.809 373.296 397.849 373.541 397.849 373.864V377H397.225V373.972C397.225 373.708 397.209 373.517 397.177 373.4C397.145 373.283 397.053 373.224 396.901 373.224C396.776 373.224 396.65 373.264 396.525 373.344C396.402 373.421 396.282 373.549 396.165 373.728V377H395.537V373.972C395.537 373.708 395.521 373.517 395.489 373.4C395.457 373.283 395.365 373.224 395.213 373.224C395.082 373.224 394.956 373.264 394.833 373.344C394.713 373.421 394.594 373.549 394.477 373.728V377H393.857V372.788H394.385L394.425 373.276C394.54 373.113 394.668 372.977 394.809 372.868C394.953 372.756 395.13 372.7 395.341 372.7C395.501 372.7 395.652 372.739 395.793 372.816C395.934 372.891 396.038 373.037 396.105 373.256C396.22 373.091 396.349 372.957 396.493 372.856C396.637 372.752 396.817 372.7 397.033 372.7ZM399.582 375.132C399.595 375.457 399.658 375.724 399.77 375.932C399.882 376.137 400.03 376.289 400.214 376.388C400.398 376.484 400.598 376.532 400.814 376.532C401.03 376.532 401.225 376.5 401.398 376.436C401.574 376.372 401.754 376.277 401.938 376.152L402.254 376.596C402.057 376.751 401.831 376.872 401.578 376.96C401.327 377.048 401.07 377.092 400.806 377.092C400.398 377.092 400.05 377 399.762 376.816C399.474 376.632 399.254 376.376 399.102 376.048C398.953 375.717 398.878 375.335 398.878 374.9C398.878 374.473 398.954 374.095 399.106 373.764C399.258 373.433 399.471 373.173 399.746 372.984C400.021 372.795 400.345 372.7 400.718 372.7C401.073 372.7 401.378 372.784 401.634 372.952C401.89 373.117 402.086 373.355 402.222 373.664C402.361 373.971 402.43 374.337 402.43 374.764C402.43 374.836 402.429 374.904 402.426 374.968C402.423 375.029 402.419 375.084 402.414 375.132H399.582ZM400.726 373.252C400.414 373.252 400.153 373.363 399.942 373.584C399.734 373.805 399.615 374.148 399.586 374.612H401.782C401.774 374.161 401.675 373.823 401.486 373.596C401.297 373.367 401.043 373.252 400.726 373.252ZM403.851 377V372.788H404.423L404.475 373.372C404.646 373.156 404.859 372.991 405.115 372.876C405.374 372.759 405.624 372.7 405.867 372.7C406.28 372.7 406.58 372.809 406.767 373.028C406.956 373.247 407.051 373.551 407.051 373.94V377H406.379V374.436C406.379 374.148 406.363 373.916 406.331 373.74C406.299 373.561 406.232 373.432 406.131 373.352C406.03 373.269 405.872 373.228 405.659 373.228C405.494 373.228 405.338 373.264 405.191 373.336C405.047 373.408 404.918 373.499 404.803 373.608C404.691 373.715 404.598 373.823 404.523 373.932V377H403.851ZM411.992 376.788C411.848 376.884 411.673 376.959 411.468 377.012C411.262 377.065 411.061 377.092 410.864 377.092C410.41 377.092 410.061 376.973 409.816 376.736C409.57 376.499 409.448 376.193 409.448 375.82V373.308H408.48V372.788H409.448V371.832L410.12 371.752V372.788H411.576L411.496 373.308H410.12V375.812C410.12 376.047 410.181 376.225 410.304 376.348C410.429 376.471 410.636 376.532 410.924 376.532C411.081 376.532 411.226 376.513 411.36 376.476C411.493 376.439 411.617 376.391 411.732 376.332L411.992 376.788ZM421.394 373.464V374.044H418.282V373.464H421.394ZM421.394 374.98V375.564H418.282V374.98H421.394ZM428.731 372.06V373.916H430.771V374.488H428.731V376.444H431.235V377H428.035V371.492H431.163L431.083 372.06H428.731ZM432.632 377V372.788H433.204L433.256 373.372C433.427 373.156 433.64 372.991 433.896 372.876C434.155 372.759 434.405 372.7 434.648 372.7C435.061 372.7 435.361 372.809 435.548 373.028C435.737 373.247 435.832 373.551 435.832 373.94V377H435.16V374.436C435.16 374.148 435.144 373.916 435.112 373.74C435.08 373.561 435.013 373.432 434.912 373.352C434.811 373.269 434.653 373.228 434.44 373.228C434.275 373.228 434.119 373.264 433.972 373.336C433.828 373.408 433.699 373.499 433.584 373.608C433.472 373.715 433.379 373.823 433.304 373.932V377H432.632ZM439.949 371.008L440.621 371.092V377H440.033L439.969 376.444C439.812 376.668 439.63 376.832 439.425 376.936C439.222 377.04 439.005 377.092 438.773 377.092C438.408 377.092 438.106 377 437.869 376.816C437.632 376.632 437.456 376.376 437.341 376.048C437.226 375.717 437.169 375.335 437.169 374.9C437.169 374.479 437.234 374.103 437.365 373.772C437.496 373.439 437.684 373.177 437.929 372.988C438.177 372.796 438.474 372.7 438.821 372.7C439.064 372.7 439.277 372.743 439.461 372.828C439.645 372.911 439.808 373.033 439.949 373.196V371.008ZM438.997 373.24C438.645 373.24 438.374 373.377 438.185 373.652C437.996 373.927 437.901 374.343 437.901 374.9C437.901 375.263 437.94 375.567 438.017 375.812C438.094 376.057 438.208 376.241 438.357 376.364C438.509 376.487 438.694 376.548 438.913 376.548C439.153 376.548 439.357 376.48 439.525 376.344C439.696 376.208 439.837 376.055 439.949 375.884V373.78C439.834 373.609 439.696 373.477 439.533 373.384C439.37 373.288 439.192 373.24 438.997 373.24Z" fill="white"/>
<path d="M321.864 385.404C322.224 385.404 322.525 385.449 322.768 385.54C323.011 385.631 323.241 385.764 323.46 385.94L323.072 386.392C322.899 386.245 322.715 386.141 322.52 386.08C322.328 386.016 322.127 385.984 321.916 385.984C321.615 385.984 321.336 386.056 321.08 386.2C320.824 386.341 320.617 386.577 320.46 386.908C320.305 387.236 320.228 387.681 320.228 388.244C320.228 388.791 320.301 389.229 320.448 389.56C320.597 389.891 320.799 390.129 321.052 390.276C321.305 390.423 321.588 390.496 321.9 390.496C322.209 390.496 322.463 390.449 322.66 390.356C322.86 390.263 323.033 390.156 323.18 390.036L323.54 390.492C323.372 390.655 323.153 390.796 322.884 390.916C322.615 391.033 322.284 391.092 321.892 391.092C321.447 391.092 321.043 390.983 320.68 390.764C320.32 390.545 320.035 390.225 319.824 389.804C319.613 389.38 319.508 388.86 319.508 388.244C319.508 387.625 319.615 387.105 319.828 386.684C320.044 386.263 320.331 385.944 320.688 385.728C321.048 385.512 321.44 385.404 321.864 385.404ZM324.641 391V390.484H325.297V387.304H324.641V386.788H325.809L325.933 387.784C326.096 387.437 326.293 387.169 326.525 386.98C326.757 386.791 327.064 386.696 327.445 386.696C327.562 386.696 327.666 386.705 327.757 386.724C327.85 386.74 327.945 386.761 328.041 386.788L327.845 387.388C327.757 387.364 327.677 387.347 327.605 387.336C327.533 387.323 327.45 387.316 327.357 387.316C327.034 387.316 326.757 387.431 326.525 387.66C326.293 387.889 326.108 388.236 325.969 388.7V390.484H326.825V391H324.641ZM327.393 388.212V387.296L327.461 386.788H328.041L327.945 388.212H327.393ZM331.002 386.7C331.399 386.7 331.731 386.791 331.998 386.972C332.267 387.151 332.468 387.404 332.602 387.732C332.738 388.06 332.806 388.447 332.806 388.892C332.806 389.321 332.736 389.701 332.598 390.032C332.459 390.363 332.255 390.623 331.986 390.812C331.719 390.999 331.388 391.092 330.994 391.092C330.599 391.092 330.267 391.001 329.998 390.82C329.728 390.639 329.524 390.384 329.386 390.056C329.25 389.725 329.182 389.34 329.182 388.9C329.182 388.465 329.251 388.083 329.39 387.752C329.528 387.421 329.732 387.164 330.002 386.98C330.274 386.793 330.607 386.7 331.002 386.7ZM331.002 387.248C330.639 387.248 330.364 387.383 330.178 387.652C329.994 387.919 329.902 388.335 329.902 388.9C329.902 389.455 329.992 389.867 330.174 390.136C330.358 390.405 330.631 390.54 330.994 390.54C331.356 390.54 331.628 390.405 331.81 390.136C331.994 389.867 332.086 389.452 332.086 388.892C332.086 388.332 331.995 387.919 331.814 387.652C331.632 387.383 331.362 387.248 331.002 387.248ZM335.627 390.536C335.949 390.536 336.204 390.476 336.391 390.356C336.58 390.233 336.675 390.071 336.675 389.868C336.675 389.74 336.651 389.629 336.603 389.536C336.557 389.443 336.463 389.359 336.319 389.284C336.175 389.209 335.953 389.135 335.655 389.06C335.364 388.988 335.111 388.905 334.895 388.812C334.681 388.716 334.515 388.592 334.395 388.44C334.277 388.288 334.219 388.091 334.219 387.848C334.219 387.611 334.285 387.407 334.419 387.236C334.555 387.063 334.743 386.931 334.983 386.84C335.223 386.747 335.501 386.7 335.819 386.7C336.157 386.7 336.452 386.745 336.703 386.836C336.956 386.924 337.171 387.033 337.347 387.164L337.051 387.62C336.891 387.511 336.715 387.421 336.523 387.352C336.331 387.28 336.099 387.244 335.827 387.244C335.496 387.244 335.261 387.296 335.123 387.4C334.984 387.501 334.915 387.633 334.915 387.796C334.915 387.919 334.948 388.021 335.015 388.104C335.084 388.184 335.2 388.257 335.363 388.324C335.525 388.388 335.749 388.459 336.035 388.536C336.309 388.608 336.548 388.695 336.751 388.796C336.956 388.897 337.116 389.031 337.231 389.196C337.345 389.361 337.403 389.575 337.403 389.836C337.403 390.135 337.317 390.377 337.147 390.564C336.976 390.748 336.755 390.883 336.483 390.968C336.213 391.051 335.928 391.092 335.627 391.092C335.245 391.092 334.92 391.037 334.651 390.928C334.384 390.816 334.16 390.681 333.979 390.524L334.363 390.08C334.528 390.216 334.717 390.327 334.931 390.412C335.147 390.495 335.379 390.536 335.627 390.536ZM340.424 390.536C340.746 390.536 341.001 390.476 341.188 390.356C341.377 390.233 341.472 390.071 341.472 389.868C341.472 389.74 341.448 389.629 341.4 389.536C341.354 389.443 341.26 389.359 341.116 389.284C340.972 389.209 340.75 389.135 340.452 389.06C340.161 388.988 339.908 388.905 339.692 388.812C339.478 388.716 339.312 388.592 339.192 388.44C339.074 388.288 339.016 388.091 339.016 387.848C339.016 387.611 339.082 387.407 339.215 387.236C339.352 387.063 339.54 386.931 339.78 386.84C340.02 386.747 340.298 386.7 340.616 386.7C340.954 386.7 341.249 386.745 341.5 386.836C341.753 386.924 341.968 387.033 342.144 387.164L341.848 387.62C341.688 387.511 341.512 387.421 341.32 387.352C341.128 387.28 340.896 387.244 340.624 387.244C340.293 387.244 340.058 387.296 339.92 387.4C339.781 387.501 339.712 387.633 339.712 387.796C339.712 387.919 339.745 388.021 339.812 388.104C339.881 388.184 339.997 388.257 340.16 388.324C340.322 388.388 340.546 388.459 340.832 388.536C341.106 388.608 341.345 388.695 341.548 388.796C341.753 388.897 341.913 389.031 342.028 389.196C342.142 389.361 342.2 389.575 342.2 389.836C342.2 390.135 342.114 390.377 341.944 390.564C341.773 390.748 341.552 390.883 341.28 390.968C341.01 391.051 340.725 391.092 340.424 391.092C340.042 391.092 339.717 391.037 339.448 390.928C339.181 390.816 338.957 390.681 338.775 390.524L339.16 390.08C339.325 390.216 339.514 390.327 339.728 390.412C339.944 390.495 340.176 390.536 340.424 390.536ZM351.249 389.596H349.069L348.629 391H347.945L349.737 385.492H350.625L352.417 391H351.689L351.249 389.596ZM349.249 389.02H351.069L350.165 386.076L349.249 389.02ZM353.79 391H353.022L354.578 388.776L353.214 386.788H354.01L354.986 388.356L355.974 386.788H356.742L355.382 388.748L356.934 391H356.11L354.958 389.192L353.79 391ZM360.311 386.788V390.468H361.499V391H358.339V390.468H359.639V387.32H358.379V386.788H360.311ZM359.775 384.816C359.924 384.816 360.043 384.861 360.131 384.952C360.222 385.043 360.267 385.153 360.267 385.284C360.267 385.42 360.222 385.535 360.131 385.628C360.043 385.719 359.924 385.764 359.775 385.764C359.634 385.764 359.518 385.719 359.427 385.628C359.336 385.535 359.291 385.42 359.291 385.284C359.291 385.153 359.336 385.043 359.427 384.952C359.518 384.861 359.634 384.816 359.775 384.816ZM364.408 390.536C364.731 390.536 364.985 390.476 365.172 390.356C365.361 390.233 365.456 390.071 365.456 389.868C365.456 389.74 365.432 389.629 365.384 389.536C365.339 389.443 365.244 389.359 365.1 389.284C364.956 389.209 364.735 389.135 364.436 389.06C364.145 388.988 363.892 388.905 363.676 388.812C363.463 388.716 363.296 388.592 363.176 388.44C363.059 388.288 363 388.091 363 387.848C363 387.611 363.067 387.407 363.2 387.236C363.336 387.063 363.524 386.931 363.764 386.84C364.004 386.747 364.283 386.7 364.6 386.7C364.939 386.7 365.233 386.745 365.484 386.836C365.737 386.924 365.952 387.033 366.128 387.164L365.832 387.62C365.672 387.511 365.496 387.421 365.304 387.352C365.112 387.28 364.88 387.244 364.608 387.244C364.277 387.244 364.043 387.296 363.904 387.4C363.765 387.501 363.696 387.633 363.696 387.796C363.696 387.919 363.729 388.021 363.796 388.104C363.865 388.184 363.981 388.257 364.144 388.324C364.307 388.388 364.531 388.459 364.816 388.536C365.091 388.608 365.329 388.695 365.532 388.796C365.737 388.897 365.897 389.031 366.012 389.196C366.127 389.361 366.184 389.575 366.184 389.836C366.184 390.135 366.099 390.377 365.928 390.564C365.757 390.748 365.536 390.883 365.264 390.968C364.995 391.051 364.709 391.092 364.408 391.092C364.027 391.092 363.701 391.037 363.432 390.928C363.165 390.816 362.941 390.681 362.76 390.524L363.144 390.08C363.309 390.216 363.499 390.327 363.712 390.412C363.928 390.495 364.16 390.536 364.408 390.536ZM375.234 389.596H373.054L372.614 391H371.93L373.722 385.492H374.61L376.402 391H375.674L375.234 389.596ZM373.234 389.02H375.054L374.15 386.076L373.234 389.02ZM379.007 385.092V389.96C379.007 390.168 379.071 390.316 379.199 390.404C379.329 390.489 379.497 390.532 379.703 390.532C379.831 390.532 379.952 390.519 380.067 390.492C380.181 390.465 380.296 390.429 380.411 390.384L380.591 390.876C380.476 390.932 380.333 390.981 380.163 391.024C379.995 391.069 379.804 391.092 379.591 391.092C379.217 391.092 378.915 390.989 378.683 390.784C378.451 390.576 378.335 390.289 378.335 389.924V385.624H377.043V385.092H379.007ZM384.295 386.788V390.468H385.483V391H382.323V390.468H383.623V387.32H382.363V386.788H384.295ZM383.759 384.816C383.909 384.816 384.027 384.861 384.115 384.952C384.206 385.043 384.251 385.153 384.251 385.284C384.251 385.42 384.206 385.535 384.115 385.628C384.027 385.719 383.909 385.764 383.759 385.764C383.618 385.764 383.502 385.719 383.411 385.628C383.321 385.535 383.275 385.42 383.275 385.284C383.275 385.153 383.321 385.043 383.411 384.952C383.502 384.861 383.618 384.816 383.759 384.816ZM390.384 386.34L390.592 386.972C390.414 387.028 390.223 387.063 390.02 387.076C389.818 387.089 389.598 387.096 389.36 387.096C389.603 387.208 389.786 387.353 389.908 387.532C390.031 387.708 390.092 387.916 390.092 388.156C390.092 388.433 390.03 388.68 389.904 388.896C389.779 389.112 389.598 389.281 389.36 389.404C389.126 389.527 388.842 389.588 388.508 389.588C388.367 389.588 388.248 389.581 388.152 389.568C388.059 389.555 387.968 389.535 387.88 389.508C387.816 389.551 387.763 389.609 387.72 389.684C387.68 389.759 387.66 389.836 387.66 389.916C387.66 390.017 387.7 390.101 387.78 390.168C387.86 390.235 388.008 390.268 388.224 390.268H388.984C389.267 390.268 389.52 390.319 389.744 390.42C389.971 390.521 390.148 390.657 390.276 390.828C390.407 390.999 390.472 391.193 390.472 391.412C390.472 391.825 390.296 392.143 389.944 392.364C389.595 392.585 389.1 392.696 388.46 392.696C388.012 392.696 387.659 392.649 387.4 392.556C387.142 392.465 386.956 392.325 386.844 392.136C386.735 391.949 386.68 391.713 386.68 391.428H387.288C387.288 391.591 387.32 391.725 387.384 391.832C387.448 391.939 387.564 392.017 387.732 392.068C387.9 392.121 388.142 392.148 388.456 392.148C388.766 392.148 389.018 392.121 389.212 392.068C389.41 392.017 389.555 391.94 389.648 391.836C389.744 391.735 389.792 391.608 389.792 391.456C389.792 391.256 389.702 391.105 389.52 391.004C389.339 390.903 389.112 390.852 388.84 390.852H388.088C387.726 390.852 387.458 390.772 387.284 390.612C387.114 390.452 387.028 390.268 387.028 390.06C387.028 389.924 387.067 389.792 387.144 389.664C387.224 389.536 387.34 389.423 387.492 389.324C387.25 389.196 387.071 389.037 386.956 388.848C386.842 388.659 386.784 388.429 386.784 388.16C386.784 387.875 386.855 387.623 386.996 387.404C387.138 387.183 387.335 387.009 387.588 386.884C387.842 386.759 388.134 386.696 388.464 386.696C388.819 386.693 389.107 386.679 389.328 386.652C389.55 386.623 389.739 386.581 389.896 386.528C390.056 386.475 390.219 386.412 390.384 386.34ZM388.464 387.188C388.126 387.188 387.875 387.28 387.712 387.464C387.552 387.645 387.472 387.877 387.472 388.16C387.472 388.445 387.555 388.68 387.72 388.864C387.886 389.048 388.139 389.14 388.48 389.14C388.779 389.14 389.006 389.053 389.16 388.88C389.318 388.707 389.396 388.465 389.396 388.156C389.396 387.839 389.318 387.599 389.16 387.436C389.006 387.271 388.774 387.188 388.464 387.188ZM391.757 391V386.788H392.329L392.381 387.372C392.552 387.156 392.765 386.991 393.021 386.876C393.28 386.759 393.53 386.7 393.773 386.7C394.186 386.7 394.486 386.809 394.673 387.028C394.862 387.247 394.957 387.551 394.957 387.94V391H394.285V388.436C394.285 388.148 394.269 387.916 394.237 387.74C394.205 387.561 394.138 387.432 394.037 387.352C393.936 387.269 393.778 387.228 393.565 387.228C393.4 387.228 393.244 387.264 393.097 387.336C392.953 387.408 392.824 387.499 392.709 387.608C392.597 387.715 392.504 387.823 392.429 387.932V391H391.757ZM399.33 386.7C399.466 386.7 399.595 386.729 399.718 386.788C399.843 386.847 399.946 386.96 400.026 387.128C400.106 387.296 400.146 387.541 400.146 387.864V391H399.522V387.972C399.522 387.708 399.506 387.517 399.474 387.4C399.442 387.283 399.35 387.224 399.198 387.224C399.073 387.224 398.947 387.264 398.822 387.344C398.699 387.421 398.579 387.549 398.462 387.728V391H397.834V387.972C397.834 387.708 397.818 387.517 397.786 387.4C397.754 387.283 397.662 387.224 397.51 387.224C397.379 387.224 397.253 387.264 397.13 387.344C397.01 387.421 396.891 387.549 396.774 387.728V391H396.154V386.788H396.682L396.722 387.276C396.837 387.113 396.965 386.977 397.106 386.868C397.25 386.756 397.427 386.7 397.638 386.7C397.798 386.7 397.949 386.739 398.09 386.816C398.231 386.891 398.335 387.037 398.402 387.256C398.517 387.091 398.646 386.957 398.79 386.856C398.934 386.752 399.114 386.7 399.33 386.7ZM401.879 389.132C401.892 389.457 401.955 389.724 402.067 389.932C402.179 390.137 402.327 390.289 402.511 390.388C402.695 390.484 402.895 390.532 403.111 390.532C403.327 390.532 403.522 390.5 403.695 390.436C403.871 390.372 404.051 390.277 404.235 390.152L404.551 390.596C404.354 390.751 404.128 390.872 403.875 390.96C403.624 391.048 403.367 391.092 403.103 391.092C402.695 391.092 402.347 391 402.059 390.816C401.771 390.632 401.551 390.376 401.399 390.048C401.25 389.717 401.175 389.335 401.175 388.9C401.175 388.473 401.251 388.095 401.403 387.764C401.555 387.433 401.768 387.173 402.043 386.984C402.318 386.795 402.642 386.7 403.015 386.7C403.37 386.7 403.675 386.784 403.931 386.952C404.187 387.117 404.383 387.355 404.519 387.664C404.658 387.971 404.727 388.337 404.727 388.764C404.727 388.836 404.726 388.904 404.723 388.968C404.72 389.029 404.716 389.084 404.711 389.132H401.879ZM403.023 387.252C402.711 387.252 402.45 387.363 402.239 387.584C402.031 387.805 401.912 388.148 401.883 388.612H404.079C404.071 388.161 403.972 387.823 403.783 387.596C403.594 387.367 403.34 387.252 403.023 387.252ZM406.148 391V386.788H406.72L406.772 387.372C406.942 387.156 407.156 386.991 407.412 386.876C407.67 386.759 407.921 386.7 408.164 386.7C408.577 386.7 408.877 386.809 409.064 387.028C409.253 387.247 409.348 387.551 409.348 387.94V391H408.676V388.436C408.676 388.148 408.66 387.916 408.628 387.74C408.596 387.561 408.529 387.432 408.428 387.352C408.326 387.269 408.169 387.228 407.956 387.228C407.79 387.228 407.634 387.264 407.488 387.336C407.344 387.408 407.214 387.499 407.1 387.608C406.988 387.715 406.894 387.823 406.82 387.932V391H406.148ZM414.289 390.788C414.145 390.884 413.97 390.959 413.765 391.012C413.559 391.065 413.358 391.092 413.161 391.092C412.707 391.092 412.358 390.973 412.113 390.736C411.867 390.499 411.745 390.193 411.745 389.82V387.308H410.777V386.788H411.745V385.832L412.417 385.752V386.788H413.873L413.793 387.308H412.417V389.812C412.417 390.047 412.478 390.225 412.601 390.348C412.726 390.471 412.933 390.532 413.221 390.532C413.378 390.532 413.523 390.513 413.657 390.476C413.79 390.439 413.914 390.391 414.029 390.332L414.289 390.788ZM423.69 387.464V388.044H420.578V387.464H423.69ZM423.69 388.98V389.564H420.578V388.98H423.69ZM431.028 386.06V387.916H433.068V388.488H431.028V390.444H433.532V391H430.332V385.492H433.46L433.38 386.06H431.028ZM434.929 391V386.788H435.501L435.553 387.372C435.724 387.156 435.937 386.991 436.193 386.876C436.452 386.759 436.702 386.7 436.945 386.7C437.358 386.7 437.658 386.809 437.845 387.028C438.034 387.247 438.129 387.551 438.129 387.94V391H437.457V388.436C437.457 388.148 437.441 387.916 437.409 387.74C437.377 387.561 437.31 387.432 437.209 387.352C437.108 387.269 436.95 387.228 436.737 387.228C436.572 387.228 436.416 387.264 436.269 387.336C436.125 387.408 435.996 387.499 435.881 387.608C435.769 387.715 435.676 387.823 435.601 387.932V391H434.929ZM442.246 385.008L442.918 385.092V391H442.33L442.266 390.444C442.109 390.668 441.927 390.832 441.722 390.936C441.519 391.04 441.302 391.092 441.07 391.092C440.705 391.092 440.403 391 440.166 390.816C439.929 390.632 439.753 390.376 439.638 390.048C439.523 389.717 439.466 389.335 439.466 388.9C439.466 388.479 439.531 388.103 439.662 387.772C439.793 387.439 439.981 387.177 440.226 386.988C440.474 386.796 440.771 386.7 441.118 386.7C441.361 386.7 441.574 386.743 441.758 386.828C441.942 386.911 442.105 387.033 442.246 387.196V385.008ZM441.294 387.24C440.942 387.24 440.671 387.377 440.482 387.652C440.293 387.927 440.198 388.343 440.198 388.9C440.198 389.263 440.237 389.567 440.314 389.812C440.391 390.057 440.505 390.241 440.654 390.364C440.806 390.487 440.991 390.548 441.21 390.548C441.45 390.548 441.654 390.48 441.822 390.344C441.993 390.208 442.134 390.055 442.246 389.884V387.78C442.131 387.609 441.993 387.477 441.83 387.384C441.667 387.288 441.489 387.24 441.294 387.24Z" fill="white"/>
</svg>
