<svg width="500" height="500" viewBox="0 0 500 500" fill="none" xmlns="http://www.w3.org/2000/svg">
<rect width="500" height="500" fill="#2E294E"/>
<path d="M250.854 28.6464C250.658 28.4512 250.342 28.4512 250.146 28.6464L246.964 31.8284C246.769 32.0237 246.769 32.3403 246.964 32.5355C247.16 32.7308 247.476 32.7308 247.672 32.5355L250.5 29.7071L253.328 32.5355C253.524 32.7308 253.84 32.7308 254.036 32.5355C254.231 32.3403 254.231 32.0237 254.036 31.8284L250.854 28.6464ZM250.146 472.354C250.342 472.549 250.658 472.549 250.854 472.354L254.036 469.172C254.231 468.976 254.231 468.66 254.036 468.464C253.84 468.269 253.524 468.269 253.328 468.464L250.5 471.293L247.672 468.464C247.476 468.269 247.16 468.269 246.964 468.464C246.769 468.66 246.769 468.976 246.964 469.172L250.146 472.354ZM250 29L250 472L251 472L251 29L250 29Z" fill="white"/>
<path d="M28.6464 249.646C28.4512 249.842 28.4512 250.158 28.6464 250.354L31.8284 253.536C32.0237 253.731 32.3403 253.731 32.5355 253.536C32.7308 253.34 32.7308 253.024 32.5355 252.828L29.7071 250L32.5355 247.172C32.7308 246.976 32.7308 246.66 32.5355 246.464C32.3403 246.269 32.0237 246.269 31.8284 246.464L28.6464 249.646ZM472.354 250.354C472.549 250.158 472.549 249.842 472.354 249.646L469.172 246.464C468.976 246.269 468.66 246.269 468.464 246.464C468.269 246.66 468.269 246.976 468.464 247.172L471.293 250L468.464 252.828C468.269 253.024 468.269 253.34 468.464 253.536C468.66 253.731 468.976 253.731 469.172 253.536L472.354 250.354ZM29 250.5L472 250.5V249.5L29 249.5V250.5Z" fill="white"/>
<path d="M262.305 45.115L262.695 52H261.86L261.645 48.405C261.635 48.1617 261.625 47.915 261.615 47.665C261.605 47.415 261.598 47.175 261.595 46.945C261.592 46.715 261.59 46.51 261.59 46.33C261.59 46.15 261.59 46.01 261.59 45.91L260.43 50.765H259.56L258.315 45.91C258.318 46.0067 258.322 46.15 258.325 46.34C258.328 46.5267 258.33 46.7383 258.33 46.975C258.333 47.2117 258.332 47.455 258.325 47.705C258.322 47.9517 258.315 48.1817 258.305 48.395L258.12 52H257.305L257.695 45.115H258.905L260.02 49.83L261.085 45.115H262.305ZM267.771 50.85C267.771 51.06 267.806 51.2133 267.876 51.31C267.946 51.4067 268.054 51.4783 268.201 51.525L267.996 52.115C267.769 52.085 267.571 52.0133 267.401 51.9C267.231 51.7833 267.108 51.6083 267.031 51.375C266.841 51.6183 266.604 51.8033 266.321 51.93C266.038 52.0533 265.724 52.115 265.381 52.115C264.854 52.115 264.439 51.9667 264.136 51.67C263.833 51.3733 263.681 50.98 263.681 50.49C263.681 49.9467 263.893 49.53 264.316 49.24C264.739 48.95 265.351 48.805 266.151 48.805H266.926V48.365C266.926 47.985 266.814 47.7167 266.591 47.56C266.371 47.4 266.064 47.32 265.671 47.32C265.498 47.32 265.294 47.3417 265.061 47.385C264.828 47.425 264.574 47.4933 264.301 47.59L264.081 46.955C264.404 46.835 264.708 46.75 264.991 46.7C265.274 46.65 265.544 46.625 265.801 46.625C266.458 46.625 266.949 46.7783 267.276 47.085C267.606 47.3883 267.771 47.8017 267.771 48.325V50.85ZM265.596 51.475C265.856 51.475 266.104 51.41 266.341 51.28C266.578 51.1467 266.773 50.9633 266.926 50.73V49.375H266.166C265.586 49.375 265.176 49.475 264.936 49.675C264.699 49.875 264.581 50.1433 264.581 50.48C264.581 50.8067 264.664 51.055 264.831 51.225C265.001 51.3917 265.256 51.475 265.596 51.475ZM272.662 46.735V51.335H274.147V52H270.197V51.335H271.822V47.4H270.247V46.735H272.662ZM271.992 44.27C272.179 44.27 272.327 44.3267 272.437 44.44C272.551 44.5533 272.607 44.6917 272.607 44.855C272.607 45.025 272.551 45.1683 272.437 45.285C272.327 45.3983 272.179 45.455 271.992 45.455C271.816 45.455 271.671 45.3983 271.557 45.285C271.444 45.1683 271.387 45.025 271.387 44.855C271.387 44.6917 271.444 44.5533 271.557 44.44C271.671 44.3267 271.816 44.27 271.992 44.27ZM275.993 52V46.735H276.708L276.773 47.465C276.987 47.195 277.253 46.9883 277.573 46.845C277.897 46.6983 278.21 46.625 278.513 46.625C279.03 46.625 279.405 46.7617 279.638 47.035C279.875 47.3083 279.993 47.6883 279.993 48.175V52H279.153V48.795C279.153 48.435 279.133 48.145 279.093 47.925C279.053 47.7017 278.97 47.54 278.843 47.44C278.717 47.3367 278.52 47.285 278.253 47.285C278.047 47.285 277.852 47.33 277.668 47.42C277.488 47.51 277.327 47.6233 277.183 47.76C277.043 47.8933 276.927 48.0283 276.833 48.165V52H275.993ZM291.315 50.245H288.59L288.04 52H287.185L289.425 45.115H290.535L292.775 52H291.865L291.315 50.245ZM288.815 49.525H291.09L289.96 45.845L288.815 49.525ZM294.492 52H293.532L295.477 49.22L293.772 46.735H294.767L295.987 48.695L297.222 46.735H298.182L296.482 49.185L298.422 52H297.392L295.952 49.74L294.492 52ZM302.643 46.735V51.335H304.128V52H300.178V51.335H301.803V47.4H300.228V46.735H302.643ZM301.973 44.27C302.159 44.27 302.308 44.3267 302.418 44.44C302.531 44.5533 302.588 44.6917 302.588 44.855C302.588 45.025 302.531 45.1683 302.418 45.285C302.308 45.3983 302.159 45.455 301.973 45.455C301.796 45.455 301.651 45.3983 301.538 45.285C301.424 45.1683 301.368 45.025 301.368 44.855C301.368 44.6917 301.424 44.5533 301.538 44.44C301.651 44.3267 301.796 44.27 301.973 44.27ZM307.764 51.42C308.167 51.42 308.485 51.345 308.719 51.195C308.955 51.0417 309.074 50.8383 309.074 50.585C309.074 50.425 309.044 50.2867 308.984 50.17C308.927 50.0533 308.809 49.9483 308.629 49.855C308.449 49.7617 308.172 49.6683 307.799 49.575C307.435 49.485 307.119 49.3817 306.849 49.265C306.582 49.145 306.374 48.99 306.224 48.8C306.077 48.61 306.004 48.3633 306.004 48.06C306.004 47.7633 306.087 47.5083 306.254 47.295C306.424 47.0783 306.659 46.9133 306.959 46.8C307.259 46.6833 307.607 46.625 308.004 46.625C308.427 46.625 308.795 46.6817 309.109 46.795C309.425 46.905 309.694 47.0417 309.914 47.205L309.544 47.775C309.344 47.6383 309.124 47.5267 308.884 47.44C308.644 47.35 308.354 47.305 308.014 47.305C307.6 47.305 307.307 47.37 307.134 47.5C306.96 47.6267 306.874 47.7917 306.874 47.995C306.874 48.1483 306.915 48.2767 306.999 48.38C307.085 48.48 307.23 48.5717 307.434 48.655C307.637 48.735 307.917 48.8233 308.274 48.92C308.617 49.01 308.915 49.1183 309.169 49.245C309.425 49.3717 309.625 49.5383 309.769 49.745C309.912 49.9517 309.984 50.2183 309.984 50.545C309.984 50.9183 309.877 51.2217 309.664 51.455C309.45 51.685 309.174 51.8533 308.834 51.96C308.497 52.0633 308.14 52.115 307.764 52.115C307.287 52.115 306.88 52.0467 306.544 51.91C306.21 51.77 305.93 51.6017 305.704 51.405L306.184 50.85C306.39 51.02 306.627 51.1583 306.894 51.265C307.164 51.3683 307.454 51.42 307.764 51.42Z" fill="white"/>
<path d="M54.58 235.005C55.03 235.005 55.4067 235.062 55.71 235.175C56.0133 235.288 56.3017 235.455 56.575 235.675L56.09 236.24C55.8733 236.057 55.6433 235.927 55.4 235.85C55.16 235.77 54.9083 235.73 54.645 235.73C54.2683 235.73 53.92 235.82 53.6 236C53.28 236.177 53.0217 236.472 52.825 236.885C52.6317 237.295 52.535 237.852 52.535 238.555C52.535 239.238 52.6267 239.787 52.81 240.2C52.9967 240.613 53.2483 240.912 53.565 241.095C53.8817 241.278 54.235 241.37 54.625 241.37C55.0117 241.37 55.3283 241.312 55.575 241.195C55.825 241.078 56.0417 240.945 56.225 240.795L56.675 241.365C56.465 241.568 56.1917 241.745 55.855 241.895C55.5183 242.042 55.105 242.115 54.615 242.115C54.0583 242.115 53.5533 241.978 53.1 241.705C52.65 241.432 52.2933 241.032 52.03 240.505C51.7667 239.975 51.635 239.325 51.635 238.555C51.635 237.782 51.7683 237.132 52.035 236.605C52.305 236.078 52.6633 235.68 53.11 235.41C53.56 235.14 54.05 235.005 54.58 235.005ZM58.0511 242V241.355H58.8711V237.38H58.0511V236.735H59.5111L59.6661 237.98C59.8694 237.547 60.1161 237.212 60.4061 236.975C60.6961 236.738 61.0794 236.62 61.5561 236.62C61.7028 236.62 61.8328 236.632 61.9461 236.655C62.0628 236.675 62.1811 236.702 62.3011 236.735L62.0561 237.485C61.9461 237.455 61.8461 237.433 61.7561 237.42C61.6661 237.403 61.5628 237.395 61.4461 237.395C61.0428 237.395 60.6961 237.538 60.4061 237.825C60.1161 238.112 59.8844 238.545 59.7111 239.125V241.355H60.7811V242H58.0511ZM61.4911 238.515V237.37L61.5761 236.735H62.3011L62.1811 238.515H61.4911ZM66.0022 236.625C66.4989 236.625 66.9139 236.738 67.2472 236.965C67.5839 237.188 67.8355 237.505 68.0022 237.915C68.1722 238.325 68.2572 238.808 68.2572 239.365C68.2572 239.902 68.1705 240.377 67.9972 240.79C67.8239 241.203 67.5689 241.528 67.2322 241.765C66.8989 241.998 66.4855 242.115 65.9922 242.115C65.4989 242.115 65.0839 242.002 64.7472 241.775C64.4105 241.548 64.1555 241.23 63.9822 240.82C63.8122 240.407 63.7272 239.925 63.7272 239.375C63.7272 238.832 63.8139 238.353 63.9872 237.94C64.1605 237.527 64.4155 237.205 64.7522 236.975C65.0922 236.742 65.5089 236.625 66.0022 236.625ZM66.0022 237.31C65.5489 237.31 65.2055 237.478 64.9722 237.815C64.7422 238.148 64.6272 238.668 64.6272 239.375C64.6272 240.068 64.7405 240.583 64.9672 240.92C65.1972 241.257 65.5389 241.425 65.9922 241.425C66.4455 241.425 66.7855 241.257 67.0122 240.92C67.2422 240.583 67.3572 240.065 67.3572 239.365C67.3572 238.665 67.2439 238.148 67.0172 237.815C66.7905 237.478 66.4522 237.31 66.0022 237.31ZM71.7833 241.42C72.1866 241.42 72.5049 241.345 72.7383 241.195C72.9749 241.042 73.0933 240.838 73.0933 240.585C73.0933 240.425 73.0633 240.287 73.0033 240.17C72.9466 240.053 72.8283 239.948 72.6483 239.855C72.4683 239.762 72.1916 239.668 71.8183 239.575C71.4549 239.485 71.1383 239.382 70.8683 239.265C70.6016 239.145 70.3933 238.99 70.2433 238.8C70.0966 238.61 70.0233 238.363 70.0233 238.06C70.0233 237.763 70.1066 237.508 70.2733 237.295C70.4433 237.078 70.6783 236.913 70.9783 236.8C71.2783 236.683 71.6266 236.625 72.0233 236.625C72.4466 236.625 72.8149 236.682 73.1283 236.795C73.4449 236.905 73.7133 237.042 73.9333 237.205L73.5633 237.775C73.3633 237.638 73.1433 237.527 72.9033 237.44C72.6633 237.35 72.3733 237.305 72.0333 237.305C71.6199 237.305 71.3266 237.37 71.1533 237.5C70.9799 237.627 70.8933 237.792 70.8933 237.995C70.8933 238.148 70.9349 238.277 71.0183 238.38C71.1049 238.48 71.2499 238.572 71.4533 238.655C71.6566 238.735 71.9366 238.823 72.2933 238.92C72.6366 239.01 72.9349 239.118 73.1883 239.245C73.4449 239.372 73.6449 239.538 73.7883 239.745C73.9316 239.952 74.0033 240.218 74.0033 240.545C74.0033 240.918 73.8966 241.222 73.6833 241.455C73.4699 241.685 73.1933 241.853 72.8533 241.96C72.5166 242.063 72.1599 242.115 71.7833 242.115C71.3066 242.115 70.8999 242.047 70.5633 241.91C70.2299 241.77 69.9499 241.602 69.7233 241.405L70.2033 240.85C70.4099 241.02 70.6466 241.158 70.9133 241.265C71.1833 241.368 71.4733 241.42 71.7833 241.42ZM77.7794 241.42C78.1827 241.42 78.501 241.345 78.7344 241.195C78.971 241.042 79.0894 240.838 79.0894 240.585C79.0894 240.425 79.0594 240.287 78.9994 240.17C78.9427 240.053 78.8244 239.948 78.6444 239.855C78.4644 239.762 78.1877 239.668 77.8144 239.575C77.451 239.485 77.1344 239.382 76.8644 239.265C76.5977 239.145 76.3894 238.99 76.2394 238.8C76.0927 238.61 76.0194 238.363 76.0194 238.06C76.0194 237.763 76.1027 237.508 76.2694 237.295C76.4394 237.078 76.6744 236.913 76.9744 236.8C77.2744 236.683 77.6227 236.625 78.0194 236.625C78.4427 236.625 78.811 236.682 79.1244 236.795C79.441 236.905 79.7094 237.042 79.9294 237.205L79.5594 237.775C79.3594 237.638 79.1394 237.527 78.8994 237.44C78.6594 237.35 78.3694 237.305 78.0294 237.305C77.616 237.305 77.3227 237.37 77.1494 237.5C76.976 237.627 76.8894 237.792 76.8894 237.995C76.8894 238.148 76.931 238.277 77.0144 238.38C77.101 238.48 77.246 238.572 77.4494 238.655C77.6527 238.735 77.9327 238.823 78.2894 238.92C78.6327 239.01 78.931 239.118 79.1844 239.245C79.441 239.372 79.641 239.538 79.7844 239.745C79.9277 239.952 79.9994 240.218 79.9994 240.545C79.9994 240.918 79.8927 241.222 79.6794 241.455C79.466 241.685 79.1894 241.853 78.8494 241.96C78.5127 242.063 78.156 242.115 77.7794 242.115C77.3027 242.115 76.896 242.047 76.5594 241.91C76.226 241.77 75.946 241.602 75.7194 241.405L76.1994 240.85C76.406 241.02 76.6427 241.158 76.9094 241.265C77.1794 241.368 77.4694 241.42 77.7794 241.42ZM91.3116 240.245H88.5866L88.0366 242H87.1816L89.4216 235.115H90.5316L92.7716 242H91.8616L91.3116 240.245ZM88.8116 239.525H91.0866L89.9566 235.845L88.8116 239.525ZM94.4877 242H93.5277L95.4727 239.22L93.7677 236.735H94.7627L95.9827 238.695L97.2177 236.735H98.1777L96.4777 239.185L98.4177 242H97.3877L95.9477 239.74L94.4877 242ZM102.639 236.735V241.335H104.124V242H100.174V241.335H101.799V237.4H100.224V236.735H102.639ZM101.969 234.27C102.155 234.27 102.304 234.327 102.414 234.44C102.527 234.553 102.584 234.692 102.584 234.855C102.584 235.025 102.527 235.168 102.414 235.285C102.304 235.398 102.155 235.455 101.969 235.455C101.792 235.455 101.647 235.398 101.534 235.285C101.42 235.168 101.364 235.025 101.364 234.855C101.364 234.692 101.42 234.553 101.534 234.44C101.647 234.327 101.792 234.27 101.969 234.27ZM107.76 241.42C108.163 241.42 108.482 241.345 108.715 241.195C108.952 241.042 109.07 240.838 109.07 240.585C109.07 240.425 109.04 240.287 108.98 240.17C108.923 240.053 108.805 239.948 108.625 239.855C108.445 239.762 108.168 239.668 107.795 239.575C107.432 239.485 107.115 239.382 106.845 239.265C106.578 239.145 106.37 238.99 106.22 238.8C106.073 238.61 106 238.363 106 238.06C106 237.763 106.083 237.508 106.25 237.295C106.42 237.078 106.655 236.913 106.955 236.8C107.255 236.683 107.603 236.625 108 236.625C108.423 236.625 108.792 236.682 109.105 236.795C109.422 236.905 109.69 237.042 109.91 237.205L109.54 237.775C109.34 237.638 109.12 237.527 108.88 237.44C108.64 237.35 108.35 237.305 108.01 237.305C107.597 237.305 107.303 237.37 107.13 237.5C106.957 237.627 106.87 237.792 106.87 237.995C106.87 238.148 106.912 238.277 106.995 238.38C107.082 238.48 107.227 238.572 107.43 238.655C107.633 238.735 107.913 238.823 108.27 238.92C108.613 239.01 108.912 239.118 109.165 239.245C109.422 239.372 109.622 239.538 109.765 239.745C109.908 239.952 109.98 240.218 109.98 240.545C109.98 240.918 109.873 241.222 109.66 241.455C109.447 241.685 109.17 241.853 108.83 241.96C108.493 242.063 108.137 242.115 107.76 242.115C107.283 242.115 106.877 242.047 106.54 241.91C106.207 241.77 105.927 241.602 105.7 241.405L106.18 240.85C106.387 241.02 106.623 241.158 106.89 241.265C107.16 241.368 107.45 241.42 107.76 241.42Z" fill="white"/>
<rect x="175" y="175" width="150" height="150" rx="7" fill="#1B998B"/>
<path d="M187.244 240.492L187.556 246H186.888L186.716 243.124C186.708 242.929 186.7 242.732 186.692 242.532C186.684 242.332 186.679 242.14 186.676 241.956C186.673 241.772 186.672 241.608 186.672 241.464C186.672 241.32 186.672 241.208 186.672 241.128L185.744 245.012H185.048L184.052 241.128C184.055 241.205 184.057 241.32 184.06 241.472C184.063 241.621 184.064 241.791 184.064 241.98C184.067 242.169 184.065 242.364 184.06 242.564C184.057 242.761 184.052 242.945 184.044 243.116L183.896 246H183.244L183.556 240.492H184.524L185.416 244.264L186.268 240.492H187.244ZM191.617 245.08C191.617 245.248 191.645 245.371 191.701 245.448C191.757 245.525 191.844 245.583 191.961 245.62L191.797 246.092C191.616 246.068 191.457 246.011 191.321 245.92C191.185 245.827 191.086 245.687 191.025 245.5C190.873 245.695 190.684 245.843 190.457 245.944C190.23 246.043 189.98 246.092 189.705 246.092C189.284 246.092 188.952 245.973 188.709 245.736C188.466 245.499 188.345 245.184 188.345 244.792C188.345 244.357 188.514 244.024 188.853 243.792C189.192 243.56 189.681 243.444 190.321 243.444H190.941V243.092C190.941 242.788 190.852 242.573 190.673 242.448C190.497 242.32 190.252 242.256 189.937 242.256C189.798 242.256 189.636 242.273 189.449 242.308C189.262 242.34 189.06 242.395 188.841 242.472L188.665 241.964C188.924 241.868 189.166 241.8 189.393 241.76C189.62 241.72 189.836 241.7 190.041 241.7C190.566 241.7 190.96 241.823 191.221 242.068C191.485 242.311 191.617 242.641 191.617 243.06V245.08ZM189.877 245.58C190.085 245.58 190.284 245.528 190.473 245.424C190.662 245.317 190.818 245.171 190.941 244.984V243.9H190.333C189.869 243.9 189.541 243.98 189.349 244.14C189.16 244.3 189.065 244.515 189.065 244.784C189.065 245.045 189.132 245.244 189.265 245.38C189.401 245.513 189.605 245.58 189.877 245.58ZM195.53 241.788V245.468H196.718V246H193.558V245.468H194.858V242.32H193.598V241.788H195.53ZM194.994 239.816C195.143 239.816 195.262 239.861 195.35 239.952C195.44 240.043 195.486 240.153 195.486 240.284C195.486 240.42 195.44 240.535 195.35 240.628C195.262 240.719 195.143 240.764 194.994 240.764C194.852 240.764 194.736 240.719 194.646 240.628C194.555 240.535 194.51 240.42 194.51 240.284C194.51 240.153 194.555 240.043 194.646 239.952C194.736 239.861 194.852 239.816 194.994 239.816ZM198.195 246V241.788H198.767L198.819 242.372C198.989 242.156 199.203 241.991 199.459 241.876C199.717 241.759 199.968 241.7 200.211 241.7C200.624 241.7 200.924 241.809 201.111 242.028C201.3 242.247 201.395 242.551 201.395 242.94V246H200.723V243.436C200.723 243.148 200.707 242.916 200.675 242.74C200.643 242.561 200.576 242.432 200.475 242.352C200.373 242.269 200.216 242.228 200.003 242.228C199.837 242.228 199.681 242.264 199.535 242.336C199.391 242.408 199.261 242.499 199.147 242.608C199.035 242.715 198.941 242.823 198.867 242.932V246H198.195ZM210.452 244.596H208.272L207.832 246H207.148L208.94 240.492H209.828L211.62 246H210.892L210.452 244.596ZM208.452 244.02H210.272L209.368 241.076L208.452 244.02ZM212.993 246H212.225L213.781 243.776L212.417 241.788H213.213L214.189 243.356L215.177 241.788H215.945L214.585 243.748L216.137 246H215.313L214.161 244.192L212.993 246ZM219.514 241.788V245.468H220.702V246H217.542V245.468H218.842V242.32H217.582V241.788H219.514ZM218.978 239.816C219.127 239.816 219.246 239.861 219.334 239.952C219.425 240.043 219.47 240.153 219.47 240.284C219.47 240.42 219.425 240.535 219.334 240.628C219.246 240.719 219.127 240.764 218.978 240.764C218.837 240.764 218.721 240.719 218.63 240.628C218.539 240.535 218.494 240.42 218.494 240.284C218.494 240.153 218.539 240.043 218.63 239.952C218.721 239.861 218.837 239.816 218.978 239.816ZM223.611 245.536C223.934 245.536 224.188 245.476 224.375 245.356C224.564 245.233 224.659 245.071 224.659 244.868C224.659 244.74 224.635 244.629 224.587 244.536C224.542 244.443 224.447 244.359 224.303 244.284C224.159 244.209 223.938 244.135 223.639 244.06C223.348 243.988 223.095 243.905 222.879 243.812C222.666 243.716 222.499 243.592 222.379 243.44C222.262 243.288 222.203 243.091 222.203 242.848C222.203 242.611 222.27 242.407 222.403 242.236C222.539 242.063 222.727 241.931 222.967 241.84C223.207 241.747 223.486 241.7 223.803 241.7C224.142 241.7 224.436 241.745 224.687 241.836C224.94 241.924 225.155 242.033 225.331 242.164L225.035 242.62C224.875 242.511 224.699 242.421 224.507 242.352C224.315 242.28 224.083 242.244 223.811 242.244C223.48 242.244 223.246 242.296 223.107 242.4C222.968 242.501 222.899 242.633 222.899 242.796C222.899 242.919 222.932 243.021 222.999 243.104C223.068 243.184 223.184 243.257 223.347 243.324C223.51 243.388 223.734 243.459 224.019 243.536C224.294 243.608 224.532 243.695 224.735 243.796C224.94 243.897 225.1 244.031 225.215 244.196C225.33 244.361 225.387 244.575 225.387 244.836C225.387 245.135 225.302 245.377 225.131 245.564C224.96 245.748 224.739 245.883 224.467 245.968C224.198 246.051 223.912 246.092 223.611 246.092C223.23 246.092 222.904 246.037 222.635 245.928C222.368 245.816 222.144 245.681 221.963 245.524L222.347 245.08C222.512 245.216 222.702 245.327 222.915 245.412C223.131 245.495 223.363 245.536 223.611 245.536ZM234.437 244.596H232.257L231.817 246H231.133L232.925 240.492H233.813L235.605 246H234.877L234.437 244.596ZM232.437 244.02H234.257L233.353 241.076L232.437 244.02ZM238.21 240.092V244.96C238.21 245.168 238.274 245.316 238.402 245.404C238.532 245.489 238.7 245.532 238.906 245.532C239.034 245.532 239.155 245.519 239.27 245.492C239.384 245.465 239.499 245.429 239.614 245.384L239.794 245.876C239.679 245.932 239.536 245.981 239.366 246.024C239.198 246.069 239.007 246.092 238.794 246.092C238.42 246.092 238.118 245.989 237.886 245.784C237.654 245.576 237.538 245.289 237.538 244.924V240.624H236.246V240.092H238.21ZM243.499 241.788V245.468H244.687V246H241.527V245.468H242.827V242.32H241.567V241.788H243.499ZM242.963 239.816C243.112 239.816 243.231 239.861 243.319 239.952C243.409 240.043 243.455 240.153 243.455 240.284C243.455 240.42 243.409 240.535 243.319 240.628C243.231 240.719 243.112 240.764 242.963 240.764C242.821 240.764 242.705 240.719 242.615 240.628C242.524 240.535 242.479 240.42 242.479 240.284C242.479 240.153 242.524 240.043 242.615 239.952C242.705 239.861 242.821 239.816 242.963 239.816ZM249.587 241.34L249.795 241.972C249.617 242.028 249.426 242.063 249.223 242.076C249.021 242.089 248.801 242.096 248.563 242.096C248.806 242.208 248.989 242.353 249.111 242.532C249.234 242.708 249.295 242.916 249.295 243.156C249.295 243.433 249.233 243.68 249.107 243.896C248.982 244.112 248.801 244.281 248.563 244.404C248.329 244.527 248.045 244.588 247.711 244.588C247.57 244.588 247.451 244.581 247.355 244.568C247.262 244.555 247.171 244.535 247.083 244.508C247.019 244.551 246.966 244.609 246.923 244.684C246.883 244.759 246.863 244.836 246.863 244.916C246.863 245.017 246.903 245.101 246.983 245.168C247.063 245.235 247.211 245.268 247.427 245.268H248.187C248.47 245.268 248.723 245.319 248.947 245.42C249.174 245.521 249.351 245.657 249.479 245.828C249.61 245.999 249.675 246.193 249.675 246.412C249.675 246.825 249.499 247.143 249.147 247.364C248.798 247.585 248.303 247.696 247.663 247.696C247.215 247.696 246.862 247.649 246.603 247.556C246.345 247.465 246.159 247.325 246.047 247.136C245.938 246.949 245.883 246.713 245.883 246.428H246.491C246.491 246.591 246.523 246.725 246.587 246.832C246.651 246.939 246.767 247.017 246.935 247.068C247.103 247.121 247.345 247.148 247.659 247.148C247.969 247.148 248.221 247.121 248.415 247.068C248.613 247.017 248.758 246.94 248.851 246.836C248.947 246.735 248.995 246.608 248.995 246.456C248.995 246.256 248.905 246.105 248.723 246.004C248.542 245.903 248.315 245.852 248.043 245.852H247.291C246.929 245.852 246.661 245.772 246.487 245.612C246.317 245.452 246.231 245.268 246.231 245.06C246.231 244.924 246.27 244.792 246.347 244.664C246.427 244.536 246.543 244.423 246.695 244.324C246.453 244.196 246.274 244.037 246.159 243.848C246.045 243.659 245.987 243.429 245.987 243.16C245.987 242.875 246.058 242.623 246.199 242.404C246.341 242.183 246.538 242.009 246.791 241.884C247.045 241.759 247.337 241.696 247.667 241.696C248.022 241.693 248.31 241.679 248.531 241.652C248.753 241.623 248.942 241.581 249.099 241.528C249.259 241.475 249.422 241.412 249.587 241.34ZM247.667 242.188C247.329 242.188 247.078 242.28 246.915 242.464C246.755 242.645 246.675 242.877 246.675 243.16C246.675 243.445 246.758 243.68 246.923 243.864C247.089 244.048 247.342 244.14 247.683 244.14C247.982 244.14 248.209 244.053 248.363 243.88C248.521 243.707 248.599 243.465 248.599 243.156C248.599 242.839 248.521 242.599 248.363 242.436C248.209 242.271 247.977 242.188 247.667 242.188ZM250.96 246V241.788H251.532L251.584 242.372C251.755 242.156 251.968 241.991 252.224 241.876C252.483 241.759 252.734 241.7 252.976 241.7C253.39 241.7 253.69 241.809 253.876 242.028C254.066 242.247 254.16 242.551 254.16 242.94V246H253.488V243.436C253.488 243.148 253.472 242.916 253.44 242.74C253.408 242.561 253.342 242.432 253.24 242.352C253.139 242.269 252.982 242.228 252.768 242.228C252.603 242.228 252.447 242.264 252.3 242.336C252.156 242.408 252.027 242.499 251.912 242.608C251.8 242.715 251.707 242.823 251.632 242.932V246H250.96ZM258.533 241.7C258.669 241.7 258.798 241.729 258.921 241.788C259.046 241.847 259.149 241.96 259.229 242.128C259.309 242.296 259.349 242.541 259.349 242.864V246H258.725V242.972C258.725 242.708 258.709 242.517 258.677 242.4C258.645 242.283 258.553 242.224 258.401 242.224C258.276 242.224 258.15 242.264 258.025 242.344C257.902 242.421 257.782 242.549 257.665 242.728V246H257.037V242.972C257.037 242.708 257.021 242.517 256.989 242.4C256.957 242.283 256.865 242.224 256.713 242.224C256.582 242.224 256.456 242.264 256.333 242.344C256.213 242.421 256.094 242.549 255.977 242.728V246H255.357V241.788H255.885L255.925 242.276C256.04 242.113 256.168 241.977 256.309 241.868C256.453 241.756 256.63 241.7 256.841 241.7C257.001 241.7 257.152 241.739 257.293 241.816C257.434 241.891 257.538 242.037 257.605 242.256C257.72 242.091 257.849 241.957 257.993 241.856C258.137 241.752 258.317 241.7 258.533 241.7ZM261.082 244.132C261.095 244.457 261.158 244.724 261.27 244.932C261.382 245.137 261.53 245.289 261.714 245.388C261.898 245.484 262.098 245.532 262.314 245.532C262.53 245.532 262.725 245.5 262.898 245.436C263.074 245.372 263.254 245.277 263.438 245.152L263.754 245.596C263.557 245.751 263.331 245.872 263.078 245.96C262.827 246.048 262.57 246.092 262.306 246.092C261.898 246.092 261.55 246 261.262 245.816C260.974 245.632 260.754 245.376 260.602 245.048C260.453 244.717 260.378 244.335 260.378 243.9C260.378 243.473 260.454 243.095 260.606 242.764C260.758 242.433 260.971 242.173 261.246 241.984C261.521 241.795 261.845 241.7 262.218 241.7C262.573 241.7 262.878 241.784 263.134 241.952C263.39 242.117 263.586 242.355 263.722 242.664C263.861 242.971 263.93 243.337 263.93 243.764C263.93 243.836 263.929 243.904 263.926 243.968C263.923 244.029 263.919 244.084 263.914 244.132H261.082ZM262.226 242.252C261.914 242.252 261.653 242.363 261.442 242.584C261.234 242.805 261.115 243.148 261.086 243.612H263.282C263.274 243.161 263.175 242.823 262.986 242.596C262.797 242.367 262.543 242.252 262.226 242.252ZM265.351 246V241.788H265.923L265.975 242.372C266.146 242.156 266.359 241.991 266.615 241.876C266.874 241.759 267.124 241.7 267.367 241.7C267.78 241.7 268.08 241.809 268.267 242.028C268.456 242.247 268.551 242.551 268.551 242.94V246H267.879V243.436C267.879 243.148 267.863 242.916 267.831 242.74C267.799 242.561 267.732 242.432 267.631 242.352C267.53 242.269 267.372 242.228 267.159 242.228C266.994 242.228 266.838 242.264 266.691 242.336C266.547 242.408 266.418 242.499 266.303 242.608C266.191 242.715 266.098 242.823 266.023 242.932V246H265.351ZM273.492 245.788C273.348 245.884 273.173 245.959 272.968 246.012C272.762 246.065 272.561 246.092 272.364 246.092C271.91 246.092 271.561 245.973 271.316 245.736C271.07 245.499 270.948 245.193 270.948 244.82V242.308H269.98V241.788H270.948V240.832L271.62 240.752V241.788H273.076L272.996 242.308H271.62V244.812C271.62 245.047 271.681 245.225 271.804 245.348C271.929 245.471 272.136 245.532 272.424 245.532C272.581 245.532 272.726 245.513 272.86 245.476C272.993 245.439 273.117 245.391 273.232 245.332L273.492 245.788ZM282.894 242.464V243.044H279.782V242.464H282.894ZM282.894 243.98V244.564H279.782V243.98H282.894ZM291.395 240.404C291.755 240.404 292.057 240.449 292.299 240.54C292.542 240.631 292.773 240.764 292.991 240.94L292.603 241.392C292.43 241.245 292.246 241.141 292.051 241.08C291.859 241.016 291.658 240.984 291.447 240.984C291.146 240.984 290.867 241.056 290.611 241.2C290.355 241.341 290.149 241.577 289.991 241.908C289.837 242.236 289.759 242.681 289.759 243.244C289.759 243.791 289.833 244.229 289.979 244.56C290.129 244.891 290.33 245.129 290.583 245.276C290.837 245.423 291.119 245.496 291.431 245.496C291.741 245.496 291.994 245.449 292.191 245.356C292.391 245.263 292.565 245.156 292.711 245.036L293.071 245.492C292.903 245.655 292.685 245.796 292.415 245.916C292.146 246.033 291.815 246.092 291.423 246.092C290.978 246.092 290.574 245.983 290.211 245.764C289.851 245.545 289.566 245.225 289.355 244.804C289.145 244.38 289.039 243.86 289.039 243.244C289.039 242.625 289.146 242.105 289.359 241.684C289.575 241.263 289.862 240.944 290.219 240.728C290.579 240.512 290.971 240.404 291.395 240.404ZM294.66 244.132C294.673 244.457 294.736 244.724 294.848 244.932C294.96 245.137 295.108 245.289 295.292 245.388C295.476 245.484 295.676 245.532 295.892 245.532C296.108 245.532 296.303 245.5 296.476 245.436C296.652 245.372 296.832 245.277 297.016 245.152L297.332 245.596C297.135 245.751 296.909 245.872 296.656 245.96C296.405 246.048 296.148 246.092 295.884 246.092C295.476 246.092 295.128 246 294.84 245.816C294.552 245.632 294.332 245.376 294.18 245.048C294.031 244.717 293.956 244.335 293.956 243.9C293.956 243.473 294.032 243.095 294.184 242.764C294.336 242.433 294.549 242.173 294.824 241.984C295.099 241.795 295.423 241.7 295.796 241.7C296.151 241.7 296.456 241.784 296.712 241.952C296.968 242.117 297.164 242.355 297.3 242.664C297.439 242.971 297.508 243.337 297.508 243.764C297.508 243.836 297.507 243.904 297.504 243.968C297.501 244.029 297.497 244.084 297.492 244.132H294.66ZM295.804 242.252C295.492 242.252 295.231 242.363 295.02 242.584C294.812 242.805 294.693 243.148 294.664 243.612H296.86C296.852 243.161 296.753 242.823 296.564 242.596C296.375 242.367 296.121 242.252 295.804 242.252ZM298.929 246V241.788H299.501L299.553 242.372C299.724 242.156 299.937 241.991 300.193 241.876C300.452 241.759 300.702 241.7 300.945 241.7C301.358 241.7 301.658 241.809 301.845 242.028C302.034 242.247 302.129 242.551 302.129 242.94V246H301.457V243.436C301.457 243.148 301.441 242.916 301.409 242.74C301.377 242.561 301.31 242.432 301.209 242.352C301.108 242.269 300.95 242.228 300.737 242.228C300.572 242.228 300.416 242.264 300.269 242.336C300.125 242.408 299.996 242.499 299.881 242.608C299.769 242.715 299.676 242.823 299.601 242.932V246H298.929ZM307.07 245.788C306.926 245.884 306.751 245.959 306.546 246.012C306.341 246.065 306.139 246.092 305.942 246.092C305.489 246.092 305.139 245.973 304.894 245.736C304.649 245.499 304.526 245.193 304.526 244.82V242.308H303.558V241.788H304.526V240.832L305.198 240.752V241.788H306.654L306.574 242.308H305.198V244.812C305.198 245.047 305.259 245.225 305.382 245.348C305.507 245.471 305.714 245.532 306.002 245.532C306.159 245.532 306.305 245.513 306.438 245.476C306.571 245.439 306.695 245.391 306.81 245.332L307.07 245.788ZM309.051 244.132C309.064 244.457 309.127 244.724 309.239 244.932C309.351 245.137 309.499 245.289 309.683 245.388C309.867 245.484 310.067 245.532 310.283 245.532C310.499 245.532 310.693 245.5 310.867 245.436C311.043 245.372 311.223 245.277 311.407 245.152L311.723 245.596C311.525 245.751 311.3 245.872 311.047 245.96C310.796 246.048 310.539 246.092 310.275 246.092C309.867 246.092 309.519 246 309.231 245.816C308.943 245.632 308.723 245.376 308.571 245.048C308.421 244.717 308.347 244.335 308.347 243.9C308.347 243.473 308.423 243.095 308.575 242.764C308.727 242.433 308.94 242.173 309.215 241.984C309.489 241.795 309.813 241.7 310.187 241.7C310.541 241.7 310.847 241.784 311.103 241.952C311.359 242.117 311.555 242.355 311.691 242.664C311.829 242.971 311.899 243.337 311.899 243.764C311.899 243.836 311.897 243.904 311.895 243.968C311.892 244.029 311.888 244.084 311.883 244.132H309.051ZM310.195 242.252C309.883 242.252 309.621 242.363 309.411 242.584C309.203 242.805 309.084 243.148 309.055 243.612H311.251C311.243 243.161 311.144 242.823 310.955 242.596C310.765 242.367 310.512 242.252 310.195 242.252ZM313.36 246V245.484H314.016V242.304H313.36V241.788H314.528L314.652 242.784C314.814 242.437 315.012 242.169 315.244 241.98C315.476 241.791 315.782 241.696 316.164 241.696C316.281 241.696 316.385 241.705 316.476 241.724C316.569 241.74 316.664 241.761 316.76 241.788L316.564 242.388C316.476 242.364 316.396 242.347 316.324 242.336C316.252 242.323 316.169 242.316 316.076 242.316C315.753 242.316 315.476 242.431 315.244 242.66C315.012 242.889 314.826 243.236 314.688 243.7V245.484H315.544V246H313.36ZM316.112 243.212V242.296L316.18 241.788H316.76L316.664 243.212H316.112Z" fill="white"/>
<path d="M183.364 254.404C183.724 254.404 184.025 254.449 184.268 254.54C184.511 254.631 184.741 254.764 184.96 254.94L184.572 255.392C184.399 255.245 184.215 255.141 184.02 255.08C183.828 255.016 183.627 254.984 183.416 254.984C183.115 254.984 182.836 255.056 182.58 255.2C182.324 255.341 182.117 255.577 181.96 255.908C181.805 256.236 181.728 256.681 181.728 257.244C181.728 257.791 181.801 258.229 181.948 258.56C182.097 258.891 182.299 259.129 182.552 259.276C182.805 259.423 183.088 259.496 183.4 259.496C183.709 259.496 183.963 259.449 184.16 259.356C184.36 259.263 184.533 259.156 184.68 259.036L185.04 259.492C184.872 259.655 184.653 259.796 184.384 259.916C184.115 260.033 183.784 260.092 183.392 260.092C182.947 260.092 182.543 259.983 182.18 259.764C181.82 259.545 181.535 259.225 181.324 258.804C181.113 258.38 181.008 257.86 181.008 257.244C181.008 256.625 181.115 256.105 181.328 255.684C181.544 255.263 181.831 254.944 182.188 254.728C182.548 254.512 182.94 254.404 183.364 254.404ZM186.141 260V259.484H186.797V256.304H186.141V255.788H187.309L187.433 256.784C187.596 256.437 187.793 256.169 188.025 255.98C188.257 255.791 188.564 255.696 188.945 255.696C189.062 255.696 189.166 255.705 189.257 255.724C189.35 255.74 189.445 255.761 189.541 255.788L189.345 256.388C189.257 256.364 189.177 256.347 189.105 256.336C189.033 256.323 188.95 256.316 188.857 256.316C188.534 256.316 188.257 256.431 188.025 256.66C187.793 256.889 187.608 257.236 187.469 257.7V259.484H188.325V260H186.141ZM188.893 257.212V256.296L188.961 255.788H189.541L189.445 257.212H188.893ZM192.502 255.7C192.899 255.7 193.231 255.791 193.498 255.972C193.767 256.151 193.968 256.404 194.102 256.732C194.238 257.06 194.306 257.447 194.306 257.892C194.306 258.321 194.236 258.701 194.098 259.032C193.959 259.363 193.755 259.623 193.486 259.812C193.219 259.999 192.888 260.092 192.494 260.092C192.099 260.092 191.767 260.001 191.498 259.82C191.228 259.639 191.024 259.384 190.886 259.056C190.75 258.725 190.682 258.34 190.682 257.9C190.682 257.465 190.751 257.083 190.89 256.752C191.028 256.421 191.232 256.164 191.502 255.98C191.774 255.793 192.107 255.7 192.502 255.7ZM192.502 256.248C192.139 256.248 191.864 256.383 191.678 256.652C191.494 256.919 191.402 257.335 191.402 257.9C191.402 258.455 191.492 258.867 191.674 259.136C191.858 259.405 192.131 259.54 192.494 259.54C192.856 259.54 193.128 259.405 193.31 259.136C193.494 258.867 193.586 258.452 193.586 257.892C193.586 257.332 193.495 256.919 193.314 256.652C193.132 256.383 192.862 256.248 192.502 256.248ZM197.127 259.536C197.449 259.536 197.704 259.476 197.891 259.356C198.08 259.233 198.175 259.071 198.175 258.868C198.175 258.74 198.151 258.629 198.103 258.536C198.057 258.443 197.963 258.359 197.819 258.284C197.675 258.209 197.453 258.135 197.155 258.06C196.864 257.988 196.611 257.905 196.395 257.812C196.181 257.716 196.015 257.592 195.895 257.44C195.777 257.288 195.719 257.091 195.719 256.848C195.719 256.611 195.785 256.407 195.919 256.236C196.055 256.063 196.243 255.931 196.483 255.84C196.723 255.747 197.001 255.7 197.319 255.7C197.657 255.7 197.952 255.745 198.203 255.836C198.456 255.924 198.671 256.033 198.847 256.164L198.551 256.62C198.391 256.511 198.215 256.421 198.023 256.352C197.831 256.28 197.599 256.244 197.327 256.244C196.996 256.244 196.761 256.296 196.623 256.4C196.484 256.501 196.415 256.633 196.415 256.796C196.415 256.919 196.448 257.021 196.515 257.104C196.584 257.184 196.7 257.257 196.863 257.324C197.025 257.388 197.249 257.459 197.535 257.536C197.809 257.608 198.048 257.695 198.251 257.796C198.456 257.897 198.616 258.031 198.731 258.196C198.845 258.361 198.903 258.575 198.903 258.836C198.903 259.135 198.817 259.377 198.647 259.564C198.476 259.748 198.255 259.883 197.983 259.968C197.713 260.051 197.428 260.092 197.127 260.092C196.745 260.092 196.42 260.037 196.151 259.928C195.884 259.816 195.66 259.681 195.479 259.524L195.863 259.08C196.028 259.216 196.217 259.327 196.431 259.412C196.647 259.495 196.879 259.536 197.127 259.536ZM201.924 259.536C202.246 259.536 202.501 259.476 202.688 259.356C202.877 259.233 202.972 259.071 202.972 258.868C202.972 258.74 202.948 258.629 202.9 258.536C202.854 258.443 202.76 258.359 202.616 258.284C202.472 258.209 202.25 258.135 201.952 258.06C201.661 257.988 201.408 257.905 201.192 257.812C200.978 257.716 200.812 257.592 200.692 257.44C200.574 257.288 200.516 257.091 200.516 256.848C200.516 256.611 200.582 256.407 200.715 256.236C200.852 256.063 201.04 255.931 201.28 255.84C201.52 255.747 201.798 255.7 202.116 255.7C202.454 255.7 202.749 255.745 203 255.836C203.253 255.924 203.468 256.033 203.644 256.164L203.348 256.62C203.188 256.511 203.012 256.421 202.82 256.352C202.628 256.28 202.396 256.244 202.124 256.244C201.793 256.244 201.558 256.296 201.42 256.4C201.281 256.501 201.212 256.633 201.212 256.796C201.212 256.919 201.245 257.021 201.312 257.104C201.381 257.184 201.497 257.257 201.66 257.324C201.822 257.388 202.046 257.459 202.332 257.536C202.606 257.608 202.845 257.695 203.048 257.796C203.253 257.897 203.413 258.031 203.528 258.196C203.642 258.361 203.7 258.575 203.7 258.836C203.7 259.135 203.614 259.377 203.444 259.564C203.273 259.748 203.052 259.883 202.78 259.968C202.51 260.051 202.225 260.092 201.924 260.092C201.542 260.092 201.217 260.037 200.948 259.928C200.681 259.816 200.457 259.681 200.275 259.524L200.66 259.08C200.825 259.216 201.014 259.327 201.228 259.412C201.444 259.495 201.676 259.536 201.924 259.536ZM212.749 258.596H210.569L210.129 260H209.445L211.237 254.492H212.125L213.917 260H213.189L212.749 258.596ZM210.749 258.02H212.569L211.665 255.076L210.749 258.02ZM215.29 260H214.522L216.078 257.776L214.714 255.788H215.51L216.486 257.356L217.474 255.788H218.242L216.882 257.748L218.434 260H217.61L216.458 258.192L215.29 260ZM221.811 255.788V259.468H222.999V260H219.839V259.468H221.139V256.32H219.879V255.788H221.811ZM221.275 253.816C221.424 253.816 221.543 253.861 221.631 253.952C221.722 254.043 221.767 254.153 221.767 254.284C221.767 254.42 221.722 254.535 221.631 254.628C221.543 254.719 221.424 254.764 221.275 254.764C221.134 254.764 221.018 254.719 220.927 254.628C220.836 254.535 220.791 254.42 220.791 254.284C220.791 254.153 220.836 254.043 220.927 253.952C221.018 253.861 221.134 253.816 221.275 253.816ZM225.908 259.536C226.231 259.536 226.485 259.476 226.672 259.356C226.861 259.233 226.956 259.071 226.956 258.868C226.956 258.74 226.932 258.629 226.884 258.536C226.839 258.443 226.744 258.359 226.6 258.284C226.456 258.209 226.235 258.135 225.936 258.06C225.645 257.988 225.392 257.905 225.176 257.812C224.963 257.716 224.796 257.592 224.676 257.44C224.559 257.288 224.5 257.091 224.5 256.848C224.5 256.611 224.567 256.407 224.7 256.236C224.836 256.063 225.024 255.931 225.264 255.84C225.504 255.747 225.783 255.7 226.1 255.7C226.439 255.7 226.733 255.745 226.984 255.836C227.237 255.924 227.452 256.033 227.628 256.164L227.332 256.62C227.172 256.511 226.996 256.421 226.804 256.352C226.612 256.28 226.38 256.244 226.108 256.244C225.777 256.244 225.543 256.296 225.404 256.4C225.265 256.501 225.196 256.633 225.196 256.796C225.196 256.919 225.229 257.021 225.296 257.104C225.365 257.184 225.481 257.257 225.644 257.324C225.807 257.388 226.031 257.459 226.316 257.536C226.591 257.608 226.829 257.695 227.032 257.796C227.237 257.897 227.397 258.031 227.512 258.196C227.627 258.361 227.684 258.575 227.684 258.836C227.684 259.135 227.599 259.377 227.428 259.564C227.257 259.748 227.036 259.883 226.764 259.968C226.495 260.051 226.209 260.092 225.908 260.092C225.527 260.092 225.201 260.037 224.932 259.928C224.665 259.816 224.441 259.681 224.26 259.524L224.644 259.08C224.809 259.216 224.999 259.327 225.212 259.412C225.428 259.495 225.66 259.536 225.908 259.536ZM236.734 258.596H234.554L234.114 260H233.43L235.222 254.492H236.11L237.902 260H237.174L236.734 258.596ZM234.734 258.02H236.554L235.65 255.076L234.734 258.02ZM240.507 254.092V258.96C240.507 259.168 240.571 259.316 240.699 259.404C240.829 259.489 240.997 259.532 241.203 259.532C241.331 259.532 241.452 259.519 241.567 259.492C241.681 259.465 241.796 259.429 241.911 259.384L242.091 259.876C241.976 259.932 241.833 259.981 241.663 260.024C241.495 260.069 241.304 260.092 241.091 260.092C240.717 260.092 240.415 259.989 240.183 259.784C239.951 259.576 239.835 259.289 239.835 258.924V254.624H238.543V254.092H240.507ZM245.795 255.788V259.468H246.983V260H243.823V259.468H245.123V256.32H243.863V255.788H245.795ZM245.259 253.816C245.409 253.816 245.527 253.861 245.615 253.952C245.706 254.043 245.751 254.153 245.751 254.284C245.751 254.42 245.706 254.535 245.615 254.628C245.527 254.719 245.409 254.764 245.259 254.764C245.118 254.764 245.002 254.719 244.911 254.628C244.821 254.535 244.775 254.42 244.775 254.284C244.775 254.153 244.821 254.043 244.911 253.952C245.002 253.861 245.118 253.816 245.259 253.816ZM251.884 255.34L252.092 255.972C251.914 256.028 251.723 256.063 251.52 256.076C251.318 256.089 251.098 256.096 250.86 256.096C251.103 256.208 251.286 256.353 251.408 256.532C251.531 256.708 251.592 256.916 251.592 257.156C251.592 257.433 251.53 257.68 251.404 257.896C251.279 258.112 251.098 258.281 250.86 258.404C250.626 258.527 250.342 258.588 250.008 258.588C249.867 258.588 249.748 258.581 249.652 258.568C249.559 258.555 249.468 258.535 249.38 258.508C249.316 258.551 249.263 258.609 249.22 258.684C249.18 258.759 249.16 258.836 249.16 258.916C249.16 259.017 249.2 259.101 249.28 259.168C249.36 259.235 249.508 259.268 249.724 259.268H250.484C250.767 259.268 251.02 259.319 251.244 259.42C251.471 259.521 251.648 259.657 251.776 259.828C251.907 259.999 251.972 260.193 251.972 260.412C251.972 260.825 251.796 261.143 251.444 261.364C251.095 261.585 250.6 261.696 249.96 261.696C249.512 261.696 249.159 261.649 248.9 261.556C248.642 261.465 248.456 261.325 248.344 261.136C248.235 260.949 248.18 260.713 248.18 260.428H248.788C248.788 260.591 248.82 260.725 248.884 260.832C248.948 260.939 249.064 261.017 249.232 261.068C249.4 261.121 249.642 261.148 249.956 261.148C250.266 261.148 250.518 261.121 250.712 261.068C250.91 261.017 251.055 260.94 251.148 260.836C251.244 260.735 251.292 260.608 251.292 260.456C251.292 260.256 251.202 260.105 251.02 260.004C250.839 259.903 250.612 259.852 250.34 259.852H249.588C249.226 259.852 248.958 259.772 248.784 259.612C248.614 259.452 248.528 259.268 248.528 259.06C248.528 258.924 248.567 258.792 248.644 258.664C248.724 258.536 248.84 258.423 248.992 258.324C248.75 258.196 248.571 258.037 248.456 257.848C248.342 257.659 248.284 257.429 248.284 257.16C248.284 256.875 248.355 256.623 248.496 256.404C248.638 256.183 248.835 256.009 249.088 255.884C249.342 255.759 249.634 255.696 249.964 255.696C250.319 255.693 250.607 255.679 250.828 255.652C251.05 255.623 251.239 255.581 251.396 255.528C251.556 255.475 251.719 255.412 251.884 255.34ZM249.964 256.188C249.626 256.188 249.375 256.28 249.212 256.464C249.052 256.645 248.972 256.877 248.972 257.16C248.972 257.445 249.055 257.68 249.22 257.864C249.386 258.048 249.639 258.14 249.98 258.14C250.279 258.14 250.506 258.053 250.66 257.88C250.818 257.707 250.896 257.465 250.896 257.156C250.896 256.839 250.818 256.599 250.66 256.436C250.506 256.271 250.274 256.188 249.964 256.188ZM253.257 260V255.788H253.829L253.881 256.372C254.052 256.156 254.265 255.991 254.521 255.876C254.78 255.759 255.03 255.7 255.273 255.7C255.686 255.7 255.986 255.809 256.173 256.028C256.362 256.247 256.457 256.551 256.457 256.94V260H255.785V257.436C255.785 257.148 255.769 256.916 255.737 256.74C255.705 256.561 255.638 256.432 255.537 256.352C255.436 256.269 255.278 256.228 255.065 256.228C254.9 256.228 254.744 256.264 254.597 256.336C254.453 256.408 254.324 256.499 254.209 256.608C254.097 256.715 254.004 256.823 253.929 256.932V260H253.257ZM260.83 255.7C260.966 255.7 261.095 255.729 261.218 255.788C261.343 255.847 261.446 255.96 261.526 256.128C261.606 256.296 261.646 256.541 261.646 256.864V260H261.022V256.972C261.022 256.708 261.006 256.517 260.974 256.4C260.942 256.283 260.85 256.224 260.698 256.224C260.573 256.224 260.447 256.264 260.322 256.344C260.199 256.421 260.079 256.549 259.962 256.728V260H259.334V256.972C259.334 256.708 259.318 256.517 259.286 256.4C259.254 256.283 259.162 256.224 259.01 256.224C258.879 256.224 258.753 256.264 258.63 256.344C258.51 256.421 258.391 256.549 258.274 256.728V260H257.654V255.788H258.182L258.222 256.276C258.337 256.113 258.465 255.977 258.606 255.868C258.75 255.756 258.927 255.7 259.138 255.7C259.298 255.7 259.449 255.739 259.59 255.816C259.731 255.891 259.835 256.037 259.902 256.256C260.017 256.091 260.146 255.957 260.29 255.856C260.434 255.752 260.614 255.7 260.83 255.7ZM263.379 258.132C263.392 258.457 263.455 258.724 263.567 258.932C263.679 259.137 263.827 259.289 264.011 259.388C264.195 259.484 264.395 259.532 264.611 259.532C264.827 259.532 265.022 259.5 265.195 259.436C265.371 259.372 265.551 259.277 265.735 259.152L266.051 259.596C265.854 259.751 265.628 259.872 265.375 259.96C265.124 260.048 264.867 260.092 264.603 260.092C264.195 260.092 263.847 260 263.559 259.816C263.271 259.632 263.051 259.376 262.899 259.048C262.75 258.717 262.675 258.335 262.675 257.9C262.675 257.473 262.751 257.095 262.903 256.764C263.055 256.433 263.268 256.173 263.543 255.984C263.818 255.795 264.142 255.7 264.515 255.7C264.87 255.7 265.175 255.784 265.431 255.952C265.687 256.117 265.883 256.355 266.019 256.664C266.158 256.971 266.227 257.337 266.227 257.764C266.227 257.836 266.226 257.904 266.223 257.968C266.22 258.029 266.216 258.084 266.211 258.132H263.379ZM264.523 256.252C264.211 256.252 263.95 256.363 263.739 256.584C263.531 256.805 263.412 257.148 263.383 257.612H265.579C265.571 257.161 265.472 256.823 265.283 256.596C265.094 256.367 264.84 256.252 264.523 256.252ZM267.648 260V255.788H268.22L268.272 256.372C268.442 256.156 268.656 255.991 268.912 255.876C269.17 255.759 269.421 255.7 269.664 255.7C270.077 255.7 270.377 255.809 270.564 256.028C270.753 256.247 270.848 256.551 270.848 256.94V260H270.176V257.436C270.176 257.148 270.16 256.916 270.128 256.74C270.096 256.561 270.029 256.432 269.928 256.352C269.826 256.269 269.669 256.228 269.456 256.228C269.29 256.228 269.134 256.264 268.988 256.336C268.844 256.408 268.714 256.499 268.6 256.608C268.488 256.715 268.394 256.823 268.32 256.932V260H267.648ZM275.789 259.788C275.645 259.884 275.47 259.959 275.265 260.012C275.059 260.065 274.858 260.092 274.661 260.092C274.207 260.092 273.858 259.973 273.613 259.736C273.367 259.499 273.245 259.193 273.245 258.82V256.308H272.277V255.788H273.245V254.832L273.917 254.752V255.788H275.373L275.293 256.308H273.917V258.812C273.917 259.047 273.978 259.225 274.101 259.348C274.226 259.471 274.433 259.532 274.721 259.532C274.878 259.532 275.023 259.513 275.157 259.476C275.29 259.439 275.414 259.391 275.529 259.332L275.789 259.788ZM285.19 256.464V257.044H282.078V256.464H285.19ZM285.19 257.98V258.564H282.078V257.98H285.19ZM293.692 254.404C294.052 254.404 294.353 254.449 294.596 254.54C294.839 254.631 295.069 254.764 295.288 254.94L294.9 255.392C294.727 255.245 294.543 255.141 294.348 255.08C294.156 255.016 293.955 254.984 293.744 254.984C293.443 254.984 293.164 255.056 292.908 255.2C292.652 255.341 292.445 255.577 292.288 255.908C292.133 256.236 292.056 256.681 292.056 257.244C292.056 257.791 292.129 258.229 292.276 258.56C292.425 258.891 292.627 259.129 292.88 259.276C293.133 259.423 293.416 259.496 293.728 259.496C294.037 259.496 294.291 259.449 294.488 259.356C294.688 259.263 294.861 259.156 295.008 259.036L295.368 259.492C295.2 259.655 294.981 259.796 294.712 259.916C294.443 260.033 294.112 260.092 293.72 260.092C293.275 260.092 292.871 259.983 292.508 259.764C292.148 259.545 291.863 259.225 291.652 258.804C291.441 258.38 291.336 257.86 291.336 257.244C291.336 256.625 291.443 256.105 291.656 255.684C291.872 255.263 292.159 254.944 292.516 254.728C292.876 254.512 293.268 254.404 293.692 254.404ZM296.957 258.132C296.97 258.457 297.033 258.724 297.145 258.932C297.257 259.137 297.405 259.289 297.589 259.388C297.773 259.484 297.973 259.532 298.189 259.532C298.405 259.532 298.6 259.5 298.773 259.436C298.949 259.372 299.129 259.277 299.313 259.152L299.629 259.596C299.432 259.751 299.206 259.872 298.953 259.96C298.702 260.048 298.445 260.092 298.181 260.092C297.773 260.092 297.425 260 297.137 259.816C296.849 259.632 296.629 259.376 296.477 259.048C296.328 258.717 296.253 258.335 296.253 257.9C296.253 257.473 296.329 257.095 296.481 256.764C296.633 256.433 296.846 256.173 297.121 255.984C297.396 255.795 297.72 255.7 298.093 255.7C298.448 255.7 298.753 255.784 299.009 255.952C299.265 256.117 299.461 256.355 299.597 256.664C299.736 256.971 299.805 257.337 299.805 257.764C299.805 257.836 299.804 257.904 299.801 257.968C299.798 258.029 299.794 258.084 299.789 258.132H296.957ZM298.101 256.252C297.789 256.252 297.528 256.363 297.317 256.584C297.109 256.805 296.99 257.148 296.961 257.612H299.157C299.149 257.161 299.05 256.823 298.861 256.596C298.672 256.367 298.418 256.252 298.101 256.252ZM301.226 260V255.788H301.798L301.85 256.372C302.021 256.156 302.234 255.991 302.49 255.876C302.749 255.759 302.999 255.7 303.242 255.7C303.655 255.7 303.955 255.809 304.142 256.028C304.331 256.247 304.426 256.551 304.426 256.94V260H303.754V257.436C303.754 257.148 303.738 256.916 303.706 256.74C303.674 256.561 303.607 256.432 303.506 256.352C303.405 256.269 303.247 256.228 303.034 256.228C302.869 256.228 302.713 256.264 302.566 256.336C302.422 256.408 302.293 256.499 302.178 256.608C302.066 256.715 301.973 256.823 301.898 256.932V260H301.226ZM309.367 259.788C309.223 259.884 309.048 259.959 308.843 260.012C308.637 260.065 308.436 260.092 308.239 260.092C307.785 260.092 307.436 259.973 307.191 259.736C306.945 259.499 306.823 259.193 306.823 258.82V256.308H305.855V255.788H306.823V254.832L307.495 254.752V255.788H308.951L308.871 256.308H307.495V258.812C307.495 259.047 307.556 259.225 307.679 259.348C307.804 259.471 308.011 259.532 308.299 259.532C308.456 259.532 308.601 259.513 308.735 259.476C308.868 259.439 308.992 259.391 309.107 259.332L309.367 259.788ZM311.348 258.132C311.361 258.457 311.424 258.724 311.536 258.932C311.648 259.137 311.796 259.289 311.98 259.388C312.164 259.484 312.364 259.532 312.58 259.532C312.796 259.532 312.99 259.5 313.164 259.436C313.34 259.372 313.52 259.277 313.704 259.152L314.02 259.596C313.822 259.751 313.597 259.872 313.344 259.96C313.093 260.048 312.836 260.092 312.572 260.092C312.164 260.092 311.816 260 311.528 259.816C311.24 259.632 311.02 259.376 310.868 259.048C310.718 258.717 310.644 258.335 310.644 257.9C310.644 257.473 310.72 257.095 310.872 256.764C311.024 256.433 311.237 256.173 311.512 255.984C311.786 255.795 312.11 255.7 312.484 255.7C312.838 255.7 313.144 255.784 313.4 255.952C313.656 256.117 313.852 256.355 313.988 256.664C314.126 256.971 314.196 257.337 314.196 257.764C314.196 257.836 314.194 257.904 314.192 257.968C314.189 258.029 314.185 258.084 314.18 258.132H311.348ZM312.492 256.252C312.18 256.252 311.918 256.363 311.708 256.584C311.5 256.805 311.381 257.148 311.352 257.612H313.548C313.54 257.161 313.441 256.823 313.252 256.596C313.062 256.367 312.809 256.252 312.492 256.252ZM315.657 260V259.484H316.313V256.304H315.657V255.788H316.825L316.949 256.784C317.111 256.437 317.309 256.169 317.541 255.98C317.773 255.791 318.079 255.696 318.461 255.696C318.578 255.696 318.682 255.705 318.773 255.724C318.866 255.74 318.961 255.761 319.057 255.788L318.861 256.388C318.773 256.364 318.693 256.347 318.621 256.336C318.549 256.323 318.466 256.316 318.373 256.316C318.05 256.316 317.773 256.431 317.541 256.66C317.309 256.889 317.123 257.236 316.985 257.7V259.484H317.841V260H315.657ZM318.409 257.212V256.296L318.477 255.788H319.057L318.961 257.212H318.409Z" fill="white"/>
</svg>
