<svg width="500" height="500" viewBox="0 0 500 500" fill="none" xmlns="http://www.w3.org/2000/svg">
<rect width="500" height="500" fill="#2E294E"/>
<rect x="44" y="44" width="150" height="150" rx="7" fill="#1B998B"/>
<path d="M58.744 109.492L59.056 115H58.388L58.216 112.124C58.208 111.929 58.2 111.732 58.192 111.532C58.184 111.332 58.1787 111.14 58.176 110.956C58.1733 110.772 58.172 110.608 58.172 110.464C58.172 110.32 58.172 110.208 58.172 110.128L57.244 114.012H56.548L55.552 110.128C55.5547 110.205 55.5573 110.32 55.56 110.472C55.5627 110.621 55.564 110.791 55.564 110.98C55.5667 111.169 55.5653 111.364 55.56 111.564C55.5573 111.761 55.552 111.945 55.544 112.116L55.396 115H54.744L55.056 109.492H56.024L56.916 113.264L57.768 109.492H58.744ZM63.1169 114.08C63.1169 114.248 63.1449 114.371 63.2009 114.448C63.2569 114.525 63.3435 114.583 63.4609 114.62L63.2969 115.092C63.1155 115.068 62.9569 115.011 62.8209 114.92C62.6849 114.827 62.5862 114.687 62.5249 114.5C62.3729 114.695 62.1835 114.843 61.9569 114.944C61.7302 115.043 61.4795 115.092 61.2049 115.092C60.7835 115.092 60.4515 114.973 60.2089 114.736C59.9662 114.499 59.8449 114.184 59.8449 113.792C59.8449 113.357 60.0142 113.024 60.3529 112.792C60.6915 112.56 61.1809 112.444 61.8209 112.444H62.4409V112.092C62.4409 111.788 62.3515 111.573 62.1729 111.448C61.9969 111.32 61.7515 111.256 61.4369 111.256C61.2982 111.256 61.1355 111.273 60.9489 111.308C60.7622 111.34 60.5595 111.395 60.3409 111.472L60.1649 110.964C60.4235 110.868 60.6662 110.8 60.8929 110.76C61.1195 110.72 61.3355 110.7 61.5409 110.7C62.0662 110.7 62.4595 110.823 62.7209 111.068C62.9849 111.311 63.1169 111.641 63.1169 112.06V114.08ZM61.3769 114.58C61.5849 114.58 61.7835 114.528 61.9729 114.424C62.1622 114.317 62.3182 114.171 62.4409 113.984V112.9H61.8329C61.3689 112.9 61.0409 112.98 60.8489 113.14C60.6595 113.3 60.5649 113.515 60.5649 113.784C60.5649 114.045 60.6315 114.244 60.7649 114.38C60.9009 114.513 61.1049 114.58 61.3769 114.58ZM67.0298 110.788V114.468H68.2178V115H65.0578V114.468H66.3578V111.32H65.0978V110.788H67.0298ZM66.4938 108.816C66.6431 108.816 66.7618 108.861 66.8498 108.952C66.9404 109.043 66.9858 109.153 66.9858 109.284C66.9858 109.42 66.9404 109.535 66.8498 109.628C66.7618 109.719 66.6431 109.764 66.4938 109.764C66.3524 109.764 66.2364 109.719 66.1458 109.628C66.0551 109.535 66.0098 109.42 66.0098 109.284C66.0098 109.153 66.0551 109.043 66.1458 108.952C66.2364 108.861 66.3524 108.816 66.4938 108.816ZM69.6946 115V110.788H70.2666L70.3186 111.372C70.4893 111.156 70.7026 110.991 70.9586 110.876C71.2173 110.759 71.468 110.7 71.7106 110.7C72.124 110.7 72.424 110.809 72.6106 111.028C72.8 111.247 72.8946 111.551 72.8946 111.94V115H72.2226V112.436C72.2226 112.148 72.2066 111.916 72.1746 111.74C72.1426 111.561 72.076 111.432 71.9746 111.352C71.8733 111.269 71.716 111.228 71.5026 111.228C71.3373 111.228 71.1813 111.264 71.0346 111.336C70.8906 111.408 70.7613 111.499 70.6466 111.608C70.5346 111.715 70.4413 111.823 70.3666 111.932V115H69.6946ZM81.9524 113.596H79.7724L79.3324 115H78.6484L80.4404 109.492H81.3284L83.1204 115H82.3924L81.9524 113.596ZM79.9524 113.02H81.7724L80.8684 110.076L79.9524 113.02ZM84.4933 115H83.7253L85.2812 112.776L83.9173 110.788H84.7133L85.6893 112.356L86.6773 110.788H87.4453L86.0853 112.748L87.6373 115H86.8133L85.6613 113.192L84.4933 115ZM91.0141 110.788V114.468H92.2021V115H89.0421V114.468H90.3421V111.32H89.0821V110.788H91.0141ZM90.4781 108.816C90.6275 108.816 90.7461 108.861 90.8341 108.952C90.9248 109.043 90.9701 109.153 90.9701 109.284C90.9701 109.42 90.9248 109.535 90.8341 109.628C90.7461 109.719 90.6275 109.764 90.4781 109.764C90.3368 109.764 90.2208 109.719 90.1301 109.628C90.0395 109.535 89.9941 109.42 89.9941 109.284C89.9941 109.153 90.0395 109.043 90.1301 108.952C90.2208 108.861 90.3368 108.816 90.4781 108.816ZM95.111 114.536C95.4337 114.536 95.6883 114.476 95.875 114.356C96.0643 114.233 96.159 114.071 96.159 113.868C96.159 113.74 96.135 113.629 96.087 113.536C96.0417 113.443 95.947 113.359 95.803 113.284C95.659 113.209 95.4377 113.135 95.139 113.06C94.8483 112.988 94.595 112.905 94.379 112.812C94.1657 112.716 93.999 112.592 93.879 112.44C93.7617 112.288 93.703 112.091 93.703 111.848C93.703 111.611 93.7697 111.407 93.903 111.236C94.039 111.063 94.227 110.931 94.467 110.84C94.707 110.747 94.9857 110.7 95.303 110.7C95.6417 110.7 95.9363 110.745 96.187 110.836C96.4403 110.924 96.655 111.033 96.831 111.164L96.535 111.62C96.375 111.511 96.199 111.421 96.007 111.352C95.815 111.28 95.583 111.244 95.311 111.244C94.9803 111.244 94.7457 111.296 94.607 111.4C94.4683 111.501 94.399 111.633 94.399 111.796C94.399 111.919 94.4323 112.021 94.499 112.104C94.5683 112.184 94.6843 112.257 94.847 112.324C95.0097 112.388 95.2337 112.459 95.519 112.536C95.7937 112.608 96.0323 112.695 96.235 112.796C96.4403 112.897 96.6003 113.031 96.715 113.196C96.8297 113.361 96.887 113.575 96.887 113.836C96.887 114.135 96.8017 114.377 96.631 114.564C96.4603 114.748 96.239 114.883 95.967 114.968C95.6977 115.051 95.4123 115.092 95.111 115.092C94.7297 115.092 94.4043 115.037 94.135 114.928C93.8683 114.816 93.6443 114.681 93.463 114.524L93.847 114.08C94.0123 114.216 94.2017 114.327 94.415 114.412C94.631 114.495 94.863 114.536 95.111 114.536ZM105.937 113.596H103.757L103.317 115H102.633L104.425 109.492H105.313L107.105 115H106.377L105.937 113.596ZM103.937 113.02H105.757L104.853 110.076L103.937 113.02ZM109.71 109.092V113.96C109.71 114.168 109.774 114.316 109.902 114.404C110.032 114.489 110.2 114.532 110.406 114.532C110.534 114.532 110.655 114.519 110.77 114.492C110.884 114.465 110.999 114.429 111.114 114.384L111.294 114.876C111.179 114.932 111.036 114.981 110.866 115.024C110.698 115.069 110.507 115.092 110.294 115.092C109.92 115.092 109.618 114.989 109.386 114.784C109.154 114.576 109.038 114.289 109.038 113.924V109.624H107.746V109.092H109.71ZM114.999 110.788V114.468H116.187V115H113.027V114.468H114.327V111.32H113.067V110.788H114.999ZM114.463 108.816C114.612 108.816 114.731 108.861 114.819 108.952C114.909 109.043 114.955 109.153 114.955 109.284C114.955 109.42 114.909 109.535 114.819 109.628C114.731 109.719 114.612 109.764 114.463 109.764C114.321 109.764 114.205 109.719 114.115 109.628C114.024 109.535 113.979 109.42 113.979 109.284C113.979 109.153 114.024 109.043 114.115 108.952C114.205 108.861 114.321 108.816 114.463 108.816ZM121.087 110.34L121.295 110.972C121.117 111.028 120.926 111.063 120.723 111.076C120.521 111.089 120.301 111.096 120.063 111.096C120.306 111.208 120.489 111.353 120.611 111.532C120.734 111.708 120.795 111.916 120.795 112.156C120.795 112.433 120.733 112.68 120.607 112.896C120.482 113.112 120.301 113.281 120.063 113.404C119.829 113.527 119.545 113.588 119.211 113.588C119.07 113.588 118.951 113.581 118.855 113.568C118.762 113.555 118.671 113.535 118.583 113.508C118.519 113.551 118.466 113.609 118.423 113.684C118.383 113.759 118.363 113.836 118.363 113.916C118.363 114.017 118.403 114.101 118.483 114.168C118.563 114.235 118.711 114.268 118.927 114.268H119.687C119.97 114.268 120.223 114.319 120.447 114.42C120.674 114.521 120.851 114.657 120.979 114.828C121.11 114.999 121.175 115.193 121.175 115.412C121.175 115.825 120.999 116.143 120.647 116.364C120.298 116.585 119.803 116.696 119.163 116.696C118.715 116.696 118.362 116.649 118.103 116.556C117.845 116.465 117.659 116.325 117.547 116.136C117.438 115.949 117.383 115.713 117.383 115.428H117.991C117.991 115.591 118.023 115.725 118.087 115.832C118.151 115.939 118.267 116.017 118.435 116.068C118.603 116.121 118.845 116.148 119.159 116.148C119.469 116.148 119.721 116.121 119.915 116.068C120.113 116.017 120.258 115.94 120.351 115.836C120.447 115.735 120.495 115.608 120.495 115.456C120.495 115.256 120.405 115.105 120.223 115.004C120.042 114.903 119.815 114.852 119.543 114.852H118.791C118.429 114.852 118.161 114.772 117.987 114.612C117.817 114.452 117.731 114.268 117.731 114.06C117.731 113.924 117.77 113.792 117.847 113.664C117.927 113.536 118.043 113.423 118.195 113.324C117.953 113.196 117.774 113.037 117.659 112.848C117.545 112.659 117.487 112.429 117.487 112.16C117.487 111.875 117.558 111.623 117.699 111.404C117.841 111.183 118.038 111.009 118.291 110.884C118.545 110.759 118.837 110.696 119.167 110.696C119.522 110.693 119.81 110.679 120.031 110.652C120.253 110.623 120.442 110.581 120.599 110.528C120.759 110.475 120.922 110.412 121.087 110.34ZM119.167 111.188C118.829 111.188 118.578 111.28 118.415 111.464C118.255 111.645 118.175 111.877 118.175 112.16C118.175 112.445 118.258 112.68 118.423 112.864C118.589 113.048 118.842 113.14 119.183 113.14C119.482 113.14 119.709 113.053 119.863 112.88C120.021 112.707 120.099 112.465 120.099 112.156C120.099 111.839 120.021 111.599 119.863 111.436C119.709 111.271 119.477 111.188 119.167 111.188ZM122.46 115V110.788H123.032L123.084 111.372C123.255 111.156 123.468 110.991 123.724 110.876C123.983 110.759 124.234 110.7 124.476 110.7C124.89 110.7 125.19 110.809 125.376 111.028C125.566 111.247 125.66 111.551 125.66 111.94V115H124.988V112.436C124.988 112.148 124.972 111.916 124.94 111.74C124.908 111.561 124.842 111.432 124.74 111.352C124.639 111.269 124.482 111.228 124.268 111.228C124.103 111.228 123.947 111.264 123.8 111.336C123.656 111.408 123.527 111.499 123.412 111.608C123.3 111.715 123.207 111.823 123.132 111.932V115H122.46ZM130.033 110.7C130.169 110.7 130.298 110.729 130.421 110.788C130.546 110.847 130.649 110.96 130.729 111.128C130.809 111.296 130.849 111.541 130.849 111.864V115H130.225V111.972C130.225 111.708 130.209 111.517 130.177 111.4C130.145 111.283 130.053 111.224 129.901 111.224C129.776 111.224 129.65 111.264 129.525 111.344C129.402 111.421 129.282 111.549 129.165 111.728V115H128.537V111.972C128.537 111.708 128.521 111.517 128.489 111.4C128.457 111.283 128.365 111.224 128.213 111.224C128.082 111.224 127.956 111.264 127.833 111.344C127.713 111.421 127.594 111.549 127.477 111.728V115H126.857V110.788H127.385L127.425 111.276C127.54 111.113 127.668 110.977 127.809 110.868C127.953 110.756 128.13 110.7 128.341 110.7C128.501 110.7 128.652 110.739 128.793 110.816C128.934 110.891 129.038 111.037 129.105 111.256C129.22 111.091 129.349 110.957 129.493 110.856C129.637 110.752 129.817 110.7 130.033 110.7ZM132.582 113.132C132.595 113.457 132.658 113.724 132.77 113.932C132.882 114.137 133.03 114.289 133.214 114.388C133.398 114.484 133.598 114.532 133.814 114.532C134.03 114.532 134.225 114.5 134.398 114.436C134.574 114.372 134.754 114.277 134.938 114.152L135.254 114.596C135.057 114.751 134.831 114.872 134.578 114.96C134.327 115.048 134.07 115.092 133.806 115.092C133.398 115.092 133.05 115 132.762 114.816C132.474 114.632 132.254 114.376 132.102 114.048C131.953 113.717 131.878 113.335 131.878 112.9C131.878 112.473 131.954 112.095 132.106 111.764C132.258 111.433 132.471 111.173 132.746 110.984C133.021 110.795 133.345 110.7 133.718 110.7C134.073 110.7 134.378 110.784 134.634 110.952C134.89 111.117 135.086 111.355 135.222 111.664C135.361 111.971 135.43 112.337 135.43 112.764C135.43 112.836 135.429 112.904 135.426 112.968C135.423 113.029 135.419 113.084 135.414 113.132H132.582ZM133.726 111.252C133.414 111.252 133.153 111.363 132.942 111.584C132.734 111.805 132.615 112.148 132.586 112.612H134.782C134.774 112.161 134.675 111.823 134.486 111.596C134.297 111.367 134.043 111.252 133.726 111.252ZM136.851 115V110.788H137.423L137.475 111.372C137.646 111.156 137.859 110.991 138.115 110.876C138.374 110.759 138.624 110.7 138.867 110.7C139.28 110.7 139.58 110.809 139.767 111.028C139.956 111.247 140.051 111.551 140.051 111.94V115H139.379V112.436C139.379 112.148 139.363 111.916 139.331 111.74C139.299 111.561 139.232 111.432 139.131 111.352C139.03 111.269 138.872 111.228 138.659 111.228C138.494 111.228 138.338 111.264 138.191 111.336C138.047 111.408 137.918 111.499 137.803 111.608C137.691 111.715 137.598 111.823 137.523 111.932V115H136.851ZM144.992 114.788C144.848 114.884 144.673 114.959 144.468 115.012C144.262 115.065 144.061 115.092 143.864 115.092C143.41 115.092 143.061 114.973 142.816 114.736C142.57 114.499 142.448 114.193 142.448 113.82V111.308H141.48V110.788H142.448V109.832L143.12 109.752V110.788H144.576L144.496 111.308H143.12V113.812C143.12 114.047 143.181 114.225 143.304 114.348C143.429 114.471 143.636 114.532 143.924 114.532C144.081 114.532 144.226 114.513 144.36 114.476C144.493 114.439 144.617 114.391 144.732 114.332L144.992 114.788ZM154.394 111.464V112.044H151.282V111.464H154.394ZM154.394 112.98V113.564H151.282V112.98H154.394ZM164.323 113.476C164.323 113.791 164.245 114.071 164.087 114.316C163.93 114.559 163.702 114.749 163.403 114.888C163.105 115.024 162.741 115.092 162.311 115.092C161.909 115.092 161.543 115.031 161.215 114.908C160.89 114.785 160.611 114.612 160.379 114.388L160.791 113.924C160.983 114.103 161.203 114.245 161.451 114.352C161.699 114.456 161.99 114.508 162.323 114.508C162.547 114.508 162.757 114.472 162.951 114.4C163.146 114.325 163.303 114.213 163.423 114.064C163.543 113.912 163.603 113.72 163.603 113.488C163.603 113.309 163.569 113.157 163.499 113.032C163.43 112.907 163.307 112.796 163.131 112.7C162.955 112.601 162.71 112.505 162.395 112.412C162.033 112.305 161.718 112.185 161.451 112.052C161.187 111.916 160.982 111.749 160.835 111.552C160.691 111.355 160.619 111.111 160.619 110.82C160.619 110.545 160.695 110.301 160.847 110.088C160.999 109.875 161.209 109.708 161.475 109.588C161.745 109.465 162.054 109.404 162.403 109.404C162.785 109.404 163.115 109.459 163.395 109.568C163.678 109.675 163.934 109.829 164.163 110.032L163.755 110.484C163.558 110.308 163.346 110.181 163.119 110.104C162.893 110.024 162.662 109.984 162.427 109.984C162.227 109.984 162.043 110.015 161.875 110.076C161.71 110.135 161.577 110.224 161.475 110.344C161.377 110.461 161.327 110.612 161.327 110.796C161.327 110.953 161.37 111.089 161.455 111.204C161.541 111.319 161.685 111.424 161.887 111.52C162.09 111.613 162.366 111.712 162.715 111.816C163.001 111.899 163.265 112.003 163.507 112.128C163.753 112.251 163.95 112.419 164.099 112.632C164.249 112.843 164.323 113.124 164.323 113.476ZM168.976 114.788C168.832 114.884 168.657 114.959 168.452 115.012C168.247 115.065 168.045 115.092 167.848 115.092C167.395 115.092 167.045 114.973 166.8 114.736C166.555 114.499 166.432 114.193 166.432 113.82V111.308H165.464V110.788H166.432V109.832L167.104 109.752V110.788H168.56L168.48 111.308H167.104V113.812C167.104 114.047 167.165 114.225 167.288 114.348C167.413 114.471 167.62 114.532 167.908 114.532C168.065 114.532 168.211 114.513 168.344 114.476C168.477 114.439 168.601 114.391 168.716 114.332L168.976 114.788ZM173.445 114.08C173.445 114.248 173.473 114.371 173.529 114.448C173.585 114.525 173.672 114.583 173.789 114.62L173.625 115.092C173.444 115.068 173.285 115.011 173.149 114.92C173.013 114.827 172.914 114.687 172.853 114.5C172.701 114.695 172.512 114.843 172.285 114.944C172.058 115.043 171.808 115.092 171.533 115.092C171.112 115.092 170.78 114.973 170.537 114.736C170.294 114.499 170.173 114.184 170.173 113.792C170.173 113.357 170.342 113.024 170.681 112.792C171.02 112.56 171.509 112.444 172.149 112.444H172.769V112.092C172.769 111.788 172.68 111.573 172.501 111.448C172.325 111.32 172.08 111.256 171.765 111.256C171.626 111.256 171.464 111.273 171.277 111.308C171.09 111.34 170.888 111.395 170.669 111.472L170.493 110.964C170.752 110.868 170.994 110.8 171.221 110.76C171.448 110.72 171.664 110.7 171.869 110.7C172.394 110.7 172.788 110.823 173.049 111.068C173.313 111.311 173.445 111.641 173.445 112.06V114.08ZM171.705 114.58C171.913 114.58 172.112 114.528 172.301 114.424C172.49 114.317 172.646 114.171 172.769 113.984V112.9H172.161C171.697 112.9 171.369 112.98 171.177 113.14C170.988 113.3 170.893 113.515 170.893 113.784C170.893 114.045 170.96 114.244 171.093 114.38C171.229 114.513 171.433 114.58 171.705 114.58ZM175.266 115V114.484H175.922V111.304H175.266V110.788H176.434L176.558 111.784C176.721 111.437 176.918 111.169 177.15 110.98C177.382 110.791 177.689 110.696 178.07 110.696C178.187 110.696 178.291 110.705 178.382 110.724C178.475 110.74 178.57 110.761 178.666 110.788L178.47 111.388C178.382 111.364 178.302 111.347 178.23 111.336C178.158 111.323 178.075 111.316 177.982 111.316C177.659 111.316 177.382 111.431 177.15 111.66C176.918 111.889 176.733 112.236 176.594 112.7V114.484H177.45V115H175.266ZM178.018 112.212V111.296L178.086 110.788H178.666L178.57 112.212H178.018ZM183.367 114.788C183.223 114.884 183.048 114.959 182.843 115.012C182.637 115.065 182.436 115.092 182.239 115.092C181.785 115.092 181.436 114.973 181.191 114.736C180.945 114.499 180.823 114.193 180.823 113.82V111.308H179.855V110.788H180.823V109.832L181.495 109.752V110.788H182.951L182.871 111.308H181.495V113.812C181.495 114.047 181.556 114.225 181.679 114.348C181.804 114.471 182.011 114.532 182.299 114.532C182.456 114.532 182.601 114.513 182.735 114.476C182.868 114.439 182.992 114.391 183.107 114.332L183.367 114.788Z" fill="white"/>
<path d="M54.864 123.404C55.224 123.404 55.5253 123.449 55.768 123.54C56.0107 123.631 56.2413 123.764 56.46 123.94L56.072 124.392C55.8987 124.245 55.7147 124.141 55.52 124.08C55.328 124.016 55.1267 123.984 54.916 123.984C54.6147 123.984 54.336 124.056 54.08 124.2C53.824 124.341 53.6173 124.577 53.46 124.908C53.3053 125.236 53.228 125.681 53.228 126.244C53.228 126.791 53.3013 127.229 53.448 127.56C53.5973 127.891 53.7987 128.129 54.052 128.276C54.3053 128.423 54.588 128.496 54.9 128.496C55.2093 128.496 55.4627 128.449 55.66 128.356C55.86 128.263 56.0333 128.156 56.18 128.036L56.54 128.492C56.372 128.655 56.1533 128.796 55.884 128.916C55.6147 129.033 55.284 129.092 54.892 129.092C54.4467 129.092 54.0427 128.983 53.68 128.764C53.32 128.545 53.0347 128.225 52.824 127.804C52.6133 127.38 52.508 126.86 52.508 126.244C52.508 125.625 52.6147 125.105 52.828 124.684C53.044 124.263 53.3307 123.944 53.688 123.728C54.048 123.512 54.44 123.404 54.864 123.404ZM57.6409 129V128.484H58.2969V125.304H57.6409V124.788H58.8089L58.9329 125.784C59.0955 125.437 59.2929 125.169 59.5249 124.98C59.7569 124.791 60.0635 124.696 60.4449 124.696C60.5622 124.696 60.6662 124.705 60.7569 124.724C60.8502 124.74 60.9449 124.761 61.0409 124.788L60.8449 125.388C60.7569 125.364 60.6769 125.347 60.6049 125.336C60.5329 125.323 60.4502 125.316 60.3569 125.316C60.0342 125.316 59.7569 125.431 59.5249 125.66C59.2929 125.889 59.1075 126.236 58.9689 126.7V128.484H59.8249V129H57.6409ZM60.3929 126.212V125.296L60.4609 124.788H61.0409L60.9449 126.212H60.3929ZM64.0018 124.7C64.3991 124.7 64.7311 124.791 64.9978 124.972C65.2671 125.151 65.4684 125.404 65.6018 125.732C65.7378 126.06 65.8058 126.447 65.8058 126.892C65.8058 127.321 65.7364 127.701 65.5978 128.032C65.4591 128.363 65.2551 128.623 64.9858 128.812C64.7191 128.999 64.3884 129.092 63.9938 129.092C63.5991 129.092 63.2671 129.001 62.9978 128.82C62.7284 128.639 62.5244 128.384 62.3858 128.056C62.2498 127.725 62.1817 127.34 62.1817 126.9C62.1817 126.465 62.2511 126.083 62.3898 125.752C62.5284 125.421 62.7324 125.164 63.0018 124.98C63.2738 124.793 63.6071 124.7 64.0018 124.7ZM64.0018 125.248C63.6391 125.248 63.3644 125.383 63.1778 125.652C62.9938 125.919 62.9018 126.335 62.9018 126.9C62.9018 127.455 62.9924 127.867 63.1738 128.136C63.3578 128.405 63.6311 128.54 63.9938 128.54C64.3564 128.54 64.6284 128.405 64.8098 128.136C64.9938 127.867 65.0858 127.452 65.0858 126.892C65.0858 126.332 64.9951 125.919 64.8138 125.652C64.6324 125.383 64.3618 125.248 64.0018 125.248ZM68.6266 128.536C68.9493 128.536 69.204 128.476 69.3906 128.356C69.58 128.233 69.6746 128.071 69.6746 127.868C69.6746 127.74 69.6506 127.629 69.6026 127.536C69.5573 127.443 69.4626 127.359 69.3186 127.284C69.1746 127.209 68.9533 127.135 68.6546 127.06C68.364 126.988 68.1106 126.905 67.8946 126.812C67.6813 126.716 67.5146 126.592 67.3946 126.44C67.2773 126.288 67.2186 126.091 67.2186 125.848C67.2186 125.611 67.2853 125.407 67.4186 125.236C67.5546 125.063 67.7426 124.931 67.9826 124.84C68.2226 124.747 68.5013 124.7 68.8186 124.7C69.1573 124.7 69.452 124.745 69.7026 124.836C69.956 124.924 70.1706 125.033 70.3466 125.164L70.0506 125.62C69.8906 125.511 69.7146 125.421 69.5226 125.352C69.3306 125.28 69.0986 125.244 68.8266 125.244C68.496 125.244 68.2613 125.296 68.1226 125.4C67.984 125.501 67.9146 125.633 67.9146 125.796C67.9146 125.919 67.948 126.021 68.0146 126.104C68.084 126.184 68.2 126.257 68.3626 126.324C68.5253 126.388 68.7493 126.459 69.0346 126.536C69.3093 126.608 69.548 126.695 69.7506 126.796C69.956 126.897 70.116 127.031 70.2306 127.196C70.3453 127.361 70.4026 127.575 70.4026 127.836C70.4026 128.135 70.3173 128.377 70.1466 128.564C69.976 128.748 69.7546 128.883 69.4826 128.968C69.2133 129.051 68.928 129.092 68.6266 129.092C68.2453 129.092 67.92 129.037 67.6506 128.928C67.384 128.816 67.16 128.681 66.9786 128.524L67.3626 128.08C67.528 128.216 67.7173 128.327 67.9306 128.412C68.1466 128.495 68.3786 128.536 68.6266 128.536ZM73.4235 128.536C73.7462 128.536 74.0008 128.476 74.1875 128.356C74.3768 128.233 74.4715 128.071 74.4715 127.868C74.4715 127.74 74.4475 127.629 74.3995 127.536C74.3542 127.443 74.2595 127.359 74.1155 127.284C73.9715 127.209 73.7502 127.135 73.4515 127.06C73.1608 126.988 72.9075 126.905 72.6915 126.812C72.4782 126.716 72.3115 126.592 72.1915 126.44C72.0742 126.288 72.0155 126.091 72.0155 125.848C72.0155 125.611 72.0822 125.407 72.2155 125.236C72.3515 125.063 72.5395 124.931 72.7795 124.84C73.0195 124.747 73.2982 124.7 73.6155 124.7C73.9542 124.7 74.2488 124.745 74.4995 124.836C74.7528 124.924 74.9675 125.033 75.1435 125.164L74.8475 125.62C74.6875 125.511 74.5115 125.421 74.3195 125.352C74.1275 125.28 73.8955 125.244 73.6235 125.244C73.2928 125.244 73.0582 125.296 72.9195 125.4C72.7808 125.501 72.7115 125.633 72.7115 125.796C72.7115 125.919 72.7448 126.021 72.8115 126.104C72.8808 126.184 72.9968 126.257 73.1595 126.324C73.3222 126.388 73.5462 126.459 73.8315 126.536C74.1062 126.608 74.3448 126.695 74.5475 126.796C74.7528 126.897 74.9128 127.031 75.0275 127.196C75.1422 127.361 75.1995 127.575 75.1995 127.836C75.1995 128.135 75.1142 128.377 74.9435 128.564C74.7728 128.748 74.5515 128.883 74.2795 128.968C74.0102 129.051 73.7248 129.092 73.4235 129.092C73.0422 129.092 72.7168 129.037 72.4475 128.928C72.1808 128.816 71.9568 128.681 71.7755 128.524L72.1595 128.08C72.3248 128.216 72.5142 128.327 72.7275 128.412C72.9435 128.495 73.1755 128.536 73.4235 128.536ZM84.2493 127.596H82.0693L81.6293 129H80.9453L82.7373 123.492H83.6253L85.4173 129H84.6893L84.2493 127.596ZM82.2493 127.02H84.0693L83.1653 124.076L82.2493 127.02ZM86.7901 129H86.0221L87.5781 126.776L86.2141 124.788H87.0101L87.9861 126.356L88.9741 124.788H89.7421L88.3821 126.748L89.9341 129H89.1101L87.9581 127.192L86.7901 129ZM93.311 124.788V128.468H94.499V129H91.339V128.468H92.639V125.32H91.379V124.788H93.311ZM92.775 122.816C92.9243 122.816 93.043 122.861 93.131 122.952C93.2217 123.043 93.267 123.153 93.267 123.284C93.267 123.42 93.2217 123.535 93.131 123.628C93.043 123.719 92.9243 123.764 92.775 123.764C92.6337 123.764 92.5177 123.719 92.427 123.628C92.3363 123.535 92.291 123.42 92.291 123.284C92.291 123.153 92.3363 123.043 92.427 122.952C92.5177 122.861 92.6337 122.816 92.775 122.816ZM97.4079 128.536C97.7305 128.536 97.9852 128.476 98.1719 128.356C98.3612 128.233 98.4559 128.071 98.4559 127.868C98.4559 127.74 98.4319 127.629 98.3839 127.536C98.3385 127.443 98.2439 127.359 98.0999 127.284C97.9559 127.209 97.7345 127.135 97.4359 127.06C97.1452 126.988 96.8919 126.905 96.6759 126.812C96.4625 126.716 96.2959 126.592 96.1759 126.44C96.0585 126.288 95.9999 126.091 95.9999 125.848C95.9999 125.611 96.0665 125.407 96.1999 125.236C96.3359 125.063 96.5239 124.931 96.7639 124.84C97.0039 124.747 97.2825 124.7 97.5999 124.7C97.9385 124.7 98.2332 124.745 98.4839 124.836C98.7372 124.924 98.9519 125.033 99.1279 125.164L98.8319 125.62C98.6719 125.511 98.4959 125.421 98.3039 125.352C98.1119 125.28 97.8799 125.244 97.6079 125.244C97.2772 125.244 97.0425 125.296 96.9039 125.4C96.7652 125.501 96.6959 125.633 96.6959 125.796C96.6959 125.919 96.7292 126.021 96.7959 126.104C96.8652 126.184 96.9812 126.257 97.1439 126.324C97.3065 126.388 97.5305 126.459 97.8159 126.536C98.0905 126.608 98.3292 126.695 98.5319 126.796C98.7372 126.897 98.8972 127.031 99.0119 127.196C99.1265 127.361 99.1839 127.575 99.1839 127.836C99.1839 128.135 99.0985 128.377 98.9279 128.564C98.7572 128.748 98.5359 128.883 98.2639 128.968C97.9945 129.051 97.7092 129.092 97.4079 129.092C97.0265 129.092 96.7012 129.037 96.4319 128.928C96.1652 128.816 95.9412 128.681 95.7599 128.524L96.1439 128.08C96.3092 128.216 96.4985 128.327 96.7119 128.412C96.9279 128.495 97.1599 128.536 97.4079 128.536ZM108.234 127.596H106.054L105.614 129H104.93L106.722 123.492H107.61L109.402 129H108.674L108.234 127.596ZM106.234 127.02H108.054L107.15 124.076L106.234 127.02ZM112.007 123.092V127.96C112.007 128.168 112.071 128.316 112.199 128.404C112.329 128.489 112.497 128.532 112.703 128.532C112.831 128.532 112.952 128.519 113.067 128.492C113.181 128.465 113.296 128.429 113.411 128.384L113.591 128.876C113.476 128.932 113.333 128.981 113.163 129.024C112.995 129.069 112.804 129.092 112.591 129.092C112.217 129.092 111.915 128.989 111.683 128.784C111.451 128.576 111.335 128.289 111.335 127.924V123.624H110.043V123.092H112.007ZM117.295 124.788V128.468H118.483V129H115.323V128.468H116.623V125.32H115.363V124.788H117.295ZM116.759 122.816C116.909 122.816 117.027 122.861 117.115 122.952C117.206 123.043 117.251 123.153 117.251 123.284C117.251 123.42 117.206 123.535 117.115 123.628C117.027 123.719 116.909 123.764 116.759 123.764C116.618 123.764 116.502 123.719 116.411 123.628C116.321 123.535 116.275 123.42 116.275 123.284C116.275 123.153 116.321 123.043 116.411 122.952C116.502 122.861 116.618 122.816 116.759 122.816ZM123.384 124.34L123.592 124.972C123.414 125.028 123.223 125.063 123.02 125.076C122.818 125.089 122.598 125.096 122.36 125.096C122.603 125.208 122.786 125.353 122.908 125.532C123.031 125.708 123.092 125.916 123.092 126.156C123.092 126.433 123.03 126.68 122.904 126.896C122.779 127.112 122.598 127.281 122.36 127.404C122.126 127.527 121.842 127.588 121.508 127.588C121.367 127.588 121.248 127.581 121.152 127.568C121.059 127.555 120.968 127.535 120.88 127.508C120.816 127.551 120.763 127.609 120.72 127.684C120.68 127.759 120.66 127.836 120.66 127.916C120.66 128.017 120.7 128.101 120.78 128.168C120.86 128.235 121.008 128.268 121.224 128.268H121.984C122.267 128.268 122.52 128.319 122.744 128.42C122.971 128.521 123.148 128.657 123.276 128.828C123.407 128.999 123.472 129.193 123.472 129.412C123.472 129.825 123.296 130.143 122.944 130.364C122.595 130.585 122.1 130.696 121.46 130.696C121.012 130.696 120.659 130.649 120.4 130.556C120.142 130.465 119.956 130.325 119.844 130.136C119.735 129.949 119.68 129.713 119.68 129.428H120.288C120.288 129.591 120.32 129.725 120.384 129.832C120.448 129.939 120.564 130.017 120.732 130.068C120.9 130.121 121.142 130.148 121.456 130.148C121.766 130.148 122.018 130.121 122.212 130.068C122.41 130.017 122.555 129.94 122.648 129.836C122.744 129.735 122.792 129.608 122.792 129.456C122.792 129.256 122.702 129.105 122.52 129.004C122.339 128.903 122.112 128.852 121.84 128.852H121.088C120.726 128.852 120.458 128.772 120.284 128.612C120.114 128.452 120.028 128.268 120.028 128.06C120.028 127.924 120.067 127.792 120.144 127.664C120.224 127.536 120.34 127.423 120.492 127.324C120.25 127.196 120.071 127.037 119.956 126.848C119.842 126.659 119.784 126.429 119.784 126.16C119.784 125.875 119.855 125.623 119.996 125.404C120.138 125.183 120.335 125.009 120.588 124.884C120.842 124.759 121.134 124.696 121.464 124.696C121.819 124.693 122.107 124.679 122.328 124.652C122.55 124.623 122.739 124.581 122.896 124.528C123.056 124.475 123.219 124.412 123.384 124.34ZM121.464 125.188C121.126 125.188 120.875 125.28 120.712 125.464C120.552 125.645 120.472 125.877 120.472 126.16C120.472 126.445 120.555 126.68 120.72 126.864C120.886 127.048 121.139 127.14 121.48 127.14C121.779 127.14 122.006 127.053 122.16 126.88C122.318 126.707 122.396 126.465 122.396 126.156C122.396 125.839 122.318 125.599 122.16 125.436C122.006 125.271 121.774 125.188 121.464 125.188ZM124.757 129V124.788H125.329L125.381 125.372C125.552 125.156 125.765 124.991 126.021 124.876C126.28 124.759 126.53 124.7 126.773 124.7C127.186 124.7 127.486 124.809 127.673 125.028C127.862 125.247 127.957 125.551 127.957 125.94V129H127.285V126.436C127.285 126.148 127.269 125.916 127.237 125.74C127.205 125.561 127.138 125.432 127.037 125.352C126.936 125.269 126.778 125.228 126.565 125.228C126.4 125.228 126.244 125.264 126.097 125.336C125.953 125.408 125.824 125.499 125.709 125.608C125.597 125.715 125.504 125.823 125.429 125.932V129H124.757ZM132.33 124.7C132.466 124.7 132.595 124.729 132.718 124.788C132.843 124.847 132.946 124.96 133.026 125.128C133.106 125.296 133.146 125.541 133.146 125.864V129H132.522V125.972C132.522 125.708 132.506 125.517 132.474 125.4C132.442 125.283 132.35 125.224 132.198 125.224C132.073 125.224 131.947 125.264 131.822 125.344C131.699 125.421 131.579 125.549 131.462 125.728V129H130.834V125.972C130.834 125.708 130.818 125.517 130.786 125.4C130.754 125.283 130.662 125.224 130.51 125.224C130.379 125.224 130.253 125.264 130.13 125.344C130.01 125.421 129.891 125.549 129.774 125.728V129H129.154V124.788H129.682L129.722 125.276C129.837 125.113 129.965 124.977 130.106 124.868C130.25 124.756 130.427 124.7 130.638 124.7C130.798 124.7 130.949 124.739 131.09 124.816C131.231 124.891 131.335 125.037 131.402 125.256C131.517 125.091 131.646 124.957 131.79 124.856C131.934 124.752 132.114 124.7 132.33 124.7ZM134.879 127.132C134.892 127.457 134.955 127.724 135.067 127.932C135.179 128.137 135.327 128.289 135.511 128.388C135.695 128.484 135.895 128.532 136.111 128.532C136.327 128.532 136.522 128.5 136.695 128.436C136.871 128.372 137.051 128.277 137.235 128.152L137.551 128.596C137.354 128.751 137.128 128.872 136.875 128.96C136.624 129.048 136.367 129.092 136.103 129.092C135.695 129.092 135.347 129 135.059 128.816C134.771 128.632 134.551 128.376 134.399 128.048C134.25 127.717 134.175 127.335 134.175 126.9C134.175 126.473 134.251 126.095 134.403 125.764C134.555 125.433 134.768 125.173 135.043 124.984C135.318 124.795 135.642 124.7 136.015 124.7C136.37 124.7 136.675 124.784 136.931 124.952C137.187 125.117 137.383 125.355 137.519 125.664C137.658 125.971 137.727 126.337 137.727 126.764C137.727 126.836 137.726 126.904 137.723 126.968C137.72 127.029 137.716 127.084 137.711 127.132H134.879ZM136.023 125.252C135.711 125.252 135.45 125.363 135.239 125.584C135.031 125.805 134.912 126.148 134.883 126.612H137.079C137.071 126.161 136.972 125.823 136.783 125.596C136.594 125.367 136.34 125.252 136.023 125.252ZM139.148 129V124.788H139.72L139.772 125.372C139.942 125.156 140.156 124.991 140.412 124.876C140.67 124.759 140.921 124.7 141.164 124.7C141.577 124.7 141.877 124.809 142.064 125.028C142.253 125.247 142.348 125.551 142.348 125.94V129H141.676V126.436C141.676 126.148 141.66 125.916 141.628 125.74C141.596 125.561 141.529 125.432 141.428 125.352C141.326 125.269 141.169 125.228 140.956 125.228C140.79 125.228 140.634 125.264 140.488 125.336C140.344 125.408 140.214 125.499 140.1 125.608C139.988 125.715 139.894 125.823 139.82 125.932V129H139.148ZM147.289 128.788C147.145 128.884 146.97 128.959 146.765 129.012C146.559 129.065 146.358 129.092 146.161 129.092C145.707 129.092 145.358 128.973 145.113 128.736C144.867 128.499 144.745 128.193 144.745 127.82V125.308H143.777V124.788H144.745V123.832L145.417 123.752V124.788H146.873L146.793 125.308H145.417V127.812C145.417 128.047 145.478 128.225 145.601 128.348C145.726 128.471 145.933 128.532 146.221 128.532C146.378 128.532 146.523 128.513 146.657 128.476C146.79 128.439 146.914 128.391 147.029 128.332L147.289 128.788ZM156.69 125.464V126.044H153.578V125.464H156.69ZM156.69 126.98V127.564H153.578V126.98H156.69ZM166.62 127.476C166.62 127.791 166.541 128.071 166.384 128.316C166.227 128.559 165.999 128.749 165.7 128.888C165.401 129.024 165.037 129.092 164.608 129.092C164.205 129.092 163.84 129.031 163.512 128.908C163.187 128.785 162.908 128.612 162.676 128.388L163.088 127.924C163.28 128.103 163.5 128.245 163.748 128.352C163.996 128.456 164.287 128.508 164.62 128.508C164.844 128.508 165.053 128.472 165.248 128.4C165.443 128.325 165.6 128.213 165.72 128.064C165.84 127.912 165.9 127.72 165.9 127.488C165.9 127.309 165.865 127.157 165.796 127.032C165.727 126.907 165.604 126.796 165.428 126.7C165.252 126.601 165.007 126.505 164.692 126.412C164.329 126.305 164.015 126.185 163.748 126.052C163.484 125.916 163.279 125.749 163.132 125.552C162.988 125.355 162.916 125.111 162.916 124.82C162.916 124.545 162.992 124.301 163.144 124.088C163.296 123.875 163.505 123.708 163.772 123.588C164.041 123.465 164.351 123.404 164.7 123.404C165.081 123.404 165.412 123.459 165.692 123.568C165.975 123.675 166.231 123.829 166.46 124.032L166.052 124.484C165.855 124.308 165.643 124.181 165.416 124.104C165.189 124.024 164.959 123.984 164.724 123.984C164.524 123.984 164.34 124.015 164.172 124.076C164.007 124.135 163.873 124.224 163.772 124.344C163.673 124.461 163.624 124.612 163.624 124.796C163.624 124.953 163.667 125.089 163.752 125.204C163.837 125.319 163.981 125.424 164.184 125.52C164.387 125.613 164.663 125.712 165.012 125.816C165.297 125.899 165.561 126.003 165.804 126.128C166.049 126.251 166.247 126.419 166.396 126.632C166.545 126.843 166.62 127.124 166.62 127.476ZM171.273 128.788C171.129 128.884 170.954 128.959 170.749 129.012C170.544 129.065 170.342 129.092 170.145 129.092C169.692 129.092 169.342 128.973 169.097 128.736C168.852 128.499 168.729 128.193 168.729 127.82V125.308H167.761V124.788H168.729V123.832L169.401 123.752V124.788H170.857L170.777 125.308H169.401V127.812C169.401 128.047 169.462 128.225 169.585 128.348C169.71 128.471 169.917 128.532 170.205 128.532C170.362 128.532 170.508 128.513 170.641 128.476C170.774 128.439 170.898 128.391 171.013 128.332L171.273 128.788ZM175.742 128.08C175.742 128.248 175.77 128.371 175.826 128.448C175.882 128.525 175.969 128.583 176.086 128.62L175.922 129.092C175.741 129.068 175.582 129.011 175.446 128.92C175.31 128.827 175.211 128.687 175.15 128.5C174.998 128.695 174.809 128.843 174.582 128.944C174.355 129.043 174.105 129.092 173.83 129.092C173.409 129.092 173.077 128.973 172.834 128.736C172.591 128.499 172.47 128.184 172.47 127.792C172.47 127.357 172.639 127.024 172.978 126.792C173.317 126.56 173.806 126.444 174.446 126.444H175.066V126.092C175.066 125.788 174.977 125.573 174.798 125.448C174.622 125.32 174.377 125.256 174.062 125.256C173.923 125.256 173.761 125.273 173.574 125.308C173.387 125.34 173.185 125.395 172.966 125.472L172.79 124.964C173.049 124.868 173.291 124.8 173.518 124.76C173.745 124.72 173.961 124.7 174.166 124.7C174.691 124.7 175.085 124.823 175.346 125.068C175.61 125.311 175.742 125.641 175.742 126.06V128.08ZM174.002 128.58C174.21 128.58 174.409 128.528 174.598 128.424C174.787 128.317 174.943 128.171 175.066 127.984V126.9H174.458C173.994 126.9 173.666 126.98 173.474 127.14C173.285 127.3 173.19 127.515 173.19 127.784C173.19 128.045 173.257 128.244 173.39 128.38C173.526 128.513 173.73 128.58 174.002 128.58ZM177.563 129V128.484H178.219V125.304H177.563V124.788H178.731L178.855 125.784C179.017 125.437 179.215 125.169 179.447 124.98C179.679 124.791 179.985 124.696 180.367 124.696C180.484 124.696 180.588 124.705 180.679 124.724C180.772 124.74 180.867 124.761 180.963 124.788L180.767 125.388C180.679 125.364 180.599 125.347 180.527 125.336C180.455 125.323 180.372 125.316 180.279 125.316C179.956 125.316 179.679 125.431 179.447 125.66C179.215 125.889 179.029 126.236 178.891 126.7V128.484H179.747V129H177.563ZM180.315 126.212V125.296L180.383 124.788H180.963L180.867 126.212H180.315ZM185.664 128.788C185.52 128.884 185.345 128.959 185.14 129.012C184.934 129.065 184.733 129.092 184.536 129.092C184.082 129.092 183.733 128.973 183.488 128.736C183.242 128.499 183.12 128.193 183.12 127.82V125.308H182.152V124.788H183.12V123.832L183.792 123.752V124.788H185.248L185.168 125.308H183.792V127.812C183.792 128.047 183.853 128.225 183.976 128.348C184.101 128.471 184.308 128.532 184.596 128.532C184.753 128.532 184.898 128.513 185.032 128.476C185.165 128.439 185.289 128.391 185.404 128.332L185.664 128.788Z" fill="white"/>
<path d="M250.854 28.6464C250.658 28.4512 250.342 28.4512 250.146 28.6464L246.964 31.8284C246.769 32.0237 246.769 32.3403 246.964 32.5355C247.16 32.7308 247.476 32.7308 247.672 32.5355L250.5 29.7071L253.328 32.5355C253.524 32.7308 253.84 32.7308 254.036 32.5355C254.231 32.3403 254.231 32.0237 254.036 31.8284L250.854 28.6464ZM250.146 472.354C250.342 472.549 250.658 472.549 250.854 472.354L254.036 469.172C254.231 468.976 254.231 468.66 254.036 468.464C253.84 468.269 253.524 468.269 253.328 468.464L250.5 471.293L247.672 468.464C247.476 468.269 247.16 468.269 246.964 468.464C246.769 468.66 246.769 468.976 246.964 469.172L250.146 472.354ZM250 29L250 472L251 472L251 29L250 29Z" fill="white"/>
<path d="M28.6464 249.646C28.4512 249.842 28.4512 250.158 28.6464 250.354L31.8284 253.536C32.0237 253.731 32.3403 253.731 32.5355 253.536C32.7308 253.34 32.7308 253.024 32.5355 252.828L29.7071 250L32.5355 247.172C32.7308 246.976 32.7308 246.66 32.5355 246.464C32.3403 246.269 32.0237 246.269 31.8284 246.464L28.6464 249.646ZM472.354 250.354C472.549 250.158 472.549 249.842 472.354 249.646L469.172 246.464C468.976 246.269 468.66 246.269 468.464 246.464C468.269 246.66 468.269 246.976 468.464 247.172L471.293 250L468.464 252.828C468.269 253.024 468.269 253.34 468.464 253.536C468.66 253.731 468.976 253.731 469.172 253.536L472.354 250.354ZM29 250.5L472 250.5V249.5L29 249.5V250.5Z" fill="white"/>
<path d="M262.305 45.115L262.695 52H261.86L261.645 48.405C261.635 48.1617 261.625 47.915 261.615 47.665C261.605 47.415 261.598 47.175 261.595 46.945C261.592 46.715 261.59 46.51 261.59 46.33C261.59 46.15 261.59 46.01 261.59 45.91L260.43 50.765H259.56L258.315 45.91C258.318 46.0067 258.322 46.15 258.325 46.34C258.328 46.5267 258.33 46.7383 258.33 46.975C258.333 47.2117 258.332 47.455 258.325 47.705C258.322 47.9517 258.315 48.1817 258.305 48.395L258.12 52H257.305L257.695 45.115H258.905L260.02 49.83L261.085 45.115H262.305ZM267.771 50.85C267.771 51.06 267.806 51.2133 267.876 51.31C267.946 51.4067 268.054 51.4783 268.201 51.525L267.996 52.115C267.769 52.085 267.571 52.0133 267.401 51.9C267.231 51.7833 267.108 51.6083 267.031 51.375C266.841 51.6183 266.604 51.8033 266.321 51.93C266.038 52.0533 265.724 52.115 265.381 52.115C264.854 52.115 264.439 51.9667 264.136 51.67C263.833 51.3733 263.681 50.98 263.681 50.49C263.681 49.9467 263.893 49.53 264.316 49.24C264.739 48.95 265.351 48.805 266.151 48.805H266.926V48.365C266.926 47.985 266.814 47.7167 266.591 47.56C266.371 47.4 266.064 47.32 265.671 47.32C265.498 47.32 265.294 47.3417 265.061 47.385C264.828 47.425 264.574 47.4933 264.301 47.59L264.081 46.955C264.404 46.835 264.708 46.75 264.991 46.7C265.274 46.65 265.544 46.625 265.801 46.625C266.458 46.625 266.949 46.7783 267.276 47.085C267.606 47.3883 267.771 47.8017 267.771 48.325V50.85ZM265.596 51.475C265.856 51.475 266.104 51.41 266.341 51.28C266.578 51.1467 266.773 50.9633 266.926 50.73V49.375H266.166C265.586 49.375 265.176 49.475 264.936 49.675C264.699 49.875 264.581 50.1433 264.581 50.48C264.581 50.8067 264.664 51.055 264.831 51.225C265.001 51.3917 265.256 51.475 265.596 51.475ZM272.662 46.735V51.335H274.147V52H270.197V51.335H271.822V47.4H270.247V46.735H272.662ZM271.992 44.27C272.179 44.27 272.327 44.3267 272.437 44.44C272.551 44.5533 272.607 44.6917 272.607 44.855C272.607 45.025 272.551 45.1683 272.437 45.285C272.327 45.3983 272.179 45.455 271.992 45.455C271.816 45.455 271.671 45.3983 271.557 45.285C271.444 45.1683 271.387 45.025 271.387 44.855C271.387 44.6917 271.444 44.5533 271.557 44.44C271.671 44.3267 271.816 44.27 271.992 44.27ZM275.993 52V46.735H276.708L276.773 47.465C276.987 47.195 277.253 46.9883 277.573 46.845C277.897 46.6983 278.21 46.625 278.513 46.625C279.03 46.625 279.405 46.7617 279.638 47.035C279.875 47.3083 279.993 47.6883 279.993 48.175V52H279.153V48.795C279.153 48.435 279.133 48.145 279.093 47.925C279.053 47.7017 278.97 47.54 278.843 47.44C278.717 47.3367 278.52 47.285 278.253 47.285C278.047 47.285 277.852 47.33 277.668 47.42C277.488 47.51 277.327 47.6233 277.183 47.76C277.043 47.8933 276.927 48.0283 276.833 48.165V52H275.993ZM291.315 50.245H288.59L288.04 52H287.185L289.425 45.115H290.535L292.775 52H291.865L291.315 50.245ZM288.815 49.525H291.09L289.96 45.845L288.815 49.525ZM294.492 52H293.532L295.477 49.22L293.772 46.735H294.767L295.987 48.695L297.222 46.735H298.182L296.482 49.185L298.422 52H297.392L295.952 49.74L294.492 52ZM302.643 46.735V51.335H304.128V52H300.178V51.335H301.803V47.4H300.228V46.735H302.643ZM301.973 44.27C302.159 44.27 302.308 44.3267 302.418 44.44C302.531 44.5533 302.588 44.6917 302.588 44.855C302.588 45.025 302.531 45.1683 302.418 45.285C302.308 45.3983 302.159 45.455 301.973 45.455C301.796 45.455 301.651 45.3983 301.538 45.285C301.424 45.1683 301.368 45.025 301.368 44.855C301.368 44.6917 301.424 44.5533 301.538 44.44C301.651 44.3267 301.796 44.27 301.973 44.27ZM307.764 51.42C308.167 51.42 308.485 51.345 308.719 51.195C308.955 51.0417 309.074 50.8383 309.074 50.585C309.074 50.425 309.044 50.2867 308.984 50.17C308.927 50.0533 308.809 49.9483 308.629 49.855C308.449 49.7617 308.172 49.6683 307.799 49.575C307.435 49.485 307.119 49.3817 306.849 49.265C306.582 49.145 306.374 48.99 306.224 48.8C306.077 48.61 306.004 48.3633 306.004 48.06C306.004 47.7633 306.087 47.5083 306.254 47.295C306.424 47.0783 306.659 46.9133 306.959 46.8C307.259 46.6833 307.607 46.625 308.004 46.625C308.427 46.625 308.795 46.6817 309.109 46.795C309.425 46.905 309.694 47.0417 309.914 47.205L309.544 47.775C309.344 47.6383 309.124 47.5267 308.884 47.44C308.644 47.35 308.354 47.305 308.014 47.305C307.6 47.305 307.307 47.37 307.134 47.5C306.96 47.6267 306.874 47.7917 306.874 47.995C306.874 48.1483 306.915 48.2767 306.999 48.38C307.085 48.48 307.23 48.5717 307.434 48.655C307.637 48.735 307.917 48.8233 308.274 48.92C308.617 49.01 308.915 49.1183 309.169 49.245C309.425 49.3717 309.625 49.5383 309.769 49.745C309.912 49.9517 309.984 50.2183 309.984 50.545C309.984 50.9183 309.877 51.2217 309.664 51.455C309.45 51.685 309.174 51.8533 308.834 51.96C308.497 52.0633 308.14 52.115 307.764 52.115C307.287 52.115 306.88 52.0467 306.544 51.91C306.21 51.77 305.93 51.6017 305.704 51.405L306.184 50.85C306.39 51.02 306.627 51.1583 306.894 51.265C307.164 51.3683 307.454 51.42 307.764 51.42Z" fill="white"/>
<path d="M54.58 235.005C55.03 235.005 55.4067 235.062 55.71 235.175C56.0133 235.288 56.3017 235.455 56.575 235.675L56.09 236.24C55.8733 236.057 55.6433 235.927 55.4 235.85C55.16 235.77 54.9083 235.73 54.645 235.73C54.2683 235.73 53.92 235.82 53.6 236C53.28 236.177 53.0217 236.472 52.825 236.885C52.6317 237.295 52.535 237.852 52.535 238.555C52.535 239.238 52.6267 239.787 52.81 240.2C52.9967 240.613 53.2483 240.912 53.565 241.095C53.8817 241.278 54.235 241.37 54.625 241.37C55.0117 241.37 55.3283 241.312 55.575 241.195C55.825 241.078 56.0417 240.945 56.225 240.795L56.675 241.365C56.465 241.568 56.1917 241.745 55.855 241.895C55.5183 242.042 55.105 242.115 54.615 242.115C54.0583 242.115 53.5533 241.978 53.1 241.705C52.65 241.432 52.2933 241.032 52.03 240.505C51.7667 239.975 51.635 239.325 51.635 238.555C51.635 237.782 51.7683 237.132 52.035 236.605C52.305 236.078 52.6633 235.68 53.11 235.41C53.56 235.14 54.05 235.005 54.58 235.005ZM58.0511 242V241.355H58.8711V237.38H58.0511V236.735H59.5111L59.6661 237.98C59.8694 237.547 60.1161 237.212 60.4061 236.975C60.6961 236.738 61.0794 236.62 61.5561 236.62C61.7028 236.62 61.8328 236.632 61.9461 236.655C62.0628 236.675 62.1811 236.702 62.3011 236.735L62.0561 237.485C61.9461 237.455 61.8461 237.433 61.7561 237.42C61.6661 237.403 61.5628 237.395 61.4461 237.395C61.0428 237.395 60.6961 237.538 60.4061 237.825C60.1161 238.112 59.8844 238.545 59.7111 239.125V241.355H60.7811V242H58.0511ZM61.4911 238.515V237.37L61.5761 236.735H62.3011L62.1811 238.515H61.4911ZM66.0022 236.625C66.4989 236.625 66.9139 236.738 67.2472 236.965C67.5839 237.188 67.8355 237.505 68.0022 237.915C68.1722 238.325 68.2572 238.808 68.2572 239.365C68.2572 239.902 68.1705 240.377 67.9972 240.79C67.8239 241.203 67.5689 241.528 67.2322 241.765C66.8989 241.998 66.4855 242.115 65.9922 242.115C65.4989 242.115 65.0839 242.002 64.7472 241.775C64.4105 241.548 64.1555 241.23 63.9822 240.82C63.8122 240.407 63.7272 239.925 63.7272 239.375C63.7272 238.832 63.8139 238.353 63.9872 237.94C64.1605 237.527 64.4155 237.205 64.7522 236.975C65.0922 236.742 65.5089 236.625 66.0022 236.625ZM66.0022 237.31C65.5489 237.31 65.2055 237.478 64.9722 237.815C64.7422 238.148 64.6272 238.668 64.6272 239.375C64.6272 240.068 64.7405 240.583 64.9672 240.92C65.1972 241.257 65.5389 241.425 65.9922 241.425C66.4455 241.425 66.7855 241.257 67.0122 240.92C67.2422 240.583 67.3572 240.065 67.3572 239.365C67.3572 238.665 67.2439 238.148 67.0172 237.815C66.7905 237.478 66.4522 237.31 66.0022 237.31ZM71.7833 241.42C72.1866 241.42 72.5049 241.345 72.7383 241.195C72.9749 241.042 73.0933 240.838 73.0933 240.585C73.0933 240.425 73.0633 240.287 73.0033 240.17C72.9466 240.053 72.8283 239.948 72.6483 239.855C72.4683 239.762 72.1916 239.668 71.8183 239.575C71.4549 239.485 71.1383 239.382 70.8683 239.265C70.6016 239.145 70.3933 238.99 70.2433 238.8C70.0966 238.61 70.0233 238.363 70.0233 238.06C70.0233 237.763 70.1066 237.508 70.2733 237.295C70.4433 237.078 70.6783 236.913 70.9783 236.8C71.2783 236.683 71.6266 236.625 72.0233 236.625C72.4466 236.625 72.8149 236.682 73.1283 236.795C73.4449 236.905 73.7133 237.042 73.9333 237.205L73.5633 237.775C73.3633 237.638 73.1433 237.527 72.9033 237.44C72.6633 237.35 72.3733 237.305 72.0333 237.305C71.6199 237.305 71.3266 237.37 71.1533 237.5C70.9799 237.627 70.8933 237.792 70.8933 237.995C70.8933 238.148 70.9349 238.277 71.0183 238.38C71.1049 238.48 71.2499 238.572 71.4533 238.655C71.6566 238.735 71.9366 238.823 72.2933 238.92C72.6366 239.01 72.9349 239.118 73.1883 239.245C73.4449 239.372 73.6449 239.538 73.7883 239.745C73.9316 239.952 74.0033 240.218 74.0033 240.545C74.0033 240.918 73.8966 241.222 73.6833 241.455C73.4699 241.685 73.1933 241.853 72.8533 241.96C72.5166 242.063 72.1599 242.115 71.7833 242.115C71.3066 242.115 70.8999 242.047 70.5633 241.91C70.2299 241.77 69.9499 241.602 69.7233 241.405L70.2033 240.85C70.4099 241.02 70.6466 241.158 70.9133 241.265C71.1833 241.368 71.4733 241.42 71.7833 241.42ZM77.7794 241.42C78.1827 241.42 78.501 241.345 78.7344 241.195C78.971 241.042 79.0894 240.838 79.0894 240.585C79.0894 240.425 79.0594 240.287 78.9994 240.17C78.9427 240.053 78.8244 239.948 78.6444 239.855C78.4644 239.762 78.1877 239.668 77.8144 239.575C77.451 239.485 77.1344 239.382 76.8644 239.265C76.5977 239.145 76.3894 238.99 76.2394 238.8C76.0927 238.61 76.0194 238.363 76.0194 238.06C76.0194 237.763 76.1027 237.508 76.2694 237.295C76.4394 237.078 76.6744 236.913 76.9744 236.8C77.2744 236.683 77.6227 236.625 78.0194 236.625C78.4427 236.625 78.811 236.682 79.1244 236.795C79.441 236.905 79.7094 237.042 79.9294 237.205L79.5594 237.775C79.3594 237.638 79.1394 237.527 78.8994 237.44C78.6594 237.35 78.3694 237.305 78.0294 237.305C77.616 237.305 77.3227 237.37 77.1494 237.5C76.976 237.627 76.8894 237.792 76.8894 237.995C76.8894 238.148 76.931 238.277 77.0144 238.38C77.101 238.48 77.246 238.572 77.4494 238.655C77.6527 238.735 77.9327 238.823 78.2894 238.92C78.6327 239.01 78.931 239.118 79.1844 239.245C79.441 239.372 79.641 239.538 79.7844 239.745C79.9277 239.952 79.9994 240.218 79.9994 240.545C79.9994 240.918 79.8927 241.222 79.6794 241.455C79.466 241.685 79.1894 241.853 78.8494 241.96C78.5127 242.063 78.156 242.115 77.7794 242.115C77.3027 242.115 76.896 242.047 76.5594 241.91C76.226 241.77 75.946 241.602 75.7194 241.405L76.1994 240.85C76.406 241.02 76.6427 241.158 76.9094 241.265C77.1794 241.368 77.4694 241.42 77.7794 241.42ZM91.3116 240.245H88.5866L88.0366 242H87.1816L89.4216 235.115H90.5316L92.7716 242H91.8616L91.3116 240.245ZM88.8116 239.525H91.0866L89.9566 235.845L88.8116 239.525ZM94.4877 242H93.5277L95.4727 239.22L93.7677 236.735H94.7627L95.9827 238.695L97.2177 236.735H98.1777L96.4777 239.185L98.4177 242H97.3877L95.9477 239.74L94.4877 242ZM102.639 236.735V241.335H104.124V242H100.174V241.335H101.799V237.4H100.224V236.735H102.639ZM101.969 234.27C102.155 234.27 102.304 234.327 102.414 234.44C102.527 234.553 102.584 234.692 102.584 234.855C102.584 235.025 102.527 235.168 102.414 235.285C102.304 235.398 102.155 235.455 101.969 235.455C101.792 235.455 101.647 235.398 101.534 235.285C101.42 235.168 101.364 235.025 101.364 234.855C101.364 234.692 101.42 234.553 101.534 234.44C101.647 234.327 101.792 234.27 101.969 234.27ZM107.76 241.42C108.163 241.42 108.482 241.345 108.715 241.195C108.952 241.042 109.07 240.838 109.07 240.585C109.07 240.425 109.04 240.287 108.98 240.17C108.923 240.053 108.805 239.948 108.625 239.855C108.445 239.762 108.168 239.668 107.795 239.575C107.432 239.485 107.115 239.382 106.845 239.265C106.578 239.145 106.37 238.99 106.22 238.8C106.073 238.61 106 238.363 106 238.06C106 237.763 106.083 237.508 106.25 237.295C106.42 237.078 106.655 236.913 106.955 236.8C107.255 236.683 107.603 236.625 108 236.625C108.423 236.625 108.792 236.682 109.105 236.795C109.422 236.905 109.69 237.042 109.91 237.205L109.54 237.775C109.34 237.638 109.12 237.527 108.88 237.44C108.64 237.35 108.35 237.305 108.01 237.305C107.597 237.305 107.303 237.37 107.13 237.5C106.957 237.627 106.87 237.792 106.87 237.995C106.87 238.148 106.912 238.277 106.995 238.38C107.082 238.48 107.227 238.572 107.43 238.655C107.633 238.735 107.913 238.823 108.27 238.92C108.613 239.01 108.912 239.118 109.165 239.245C109.422 239.372 109.622 239.538 109.765 239.745C109.908 239.952 109.98 240.218 109.98 240.545C109.98 240.918 109.873 241.222 109.66 241.455C109.447 241.685 109.17 241.853 108.83 241.96C108.493 242.063 108.137 242.115 107.76 242.115C107.283 242.115 106.877 242.047 106.54 241.91C106.207 241.77 105.927 241.602 105.7 241.405L106.18 240.85C106.387 241.02 106.623 241.158 106.89 241.265C107.16 241.368 107.45 241.42 107.76 241.42Z" fill="white"/>
</svg>
