<svg width="602" height="405" viewBox="0 0 602 405" fill="none" xmlns="http://www.w3.org/2000/svg">
<rect width="602" height="405" fill="white"/>
<rect x="213" y="36" width="102" height="29" rx="8" fill="#D6EFFF"/>
<path d="M227.365 52.095C227.365 52.4883 227.267 52.8383 227.07 53.145C226.873 53.4483 226.588 53.6867 226.215 53.86C225.842 54.03 225.387 54.115 224.85 54.115C224.347 54.115 223.89 54.0383 223.48 53.885C223.073 53.7317 222.725 53.515 222.435 53.235L222.95 52.655C223.19 52.8783 223.465 53.0567 223.775 53.19C224.085 53.32 224.448 53.385 224.865 53.385C225.145 53.385 225.407 53.34 225.65 53.25C225.893 53.1567 226.09 53.0167 226.24 52.83C226.39 52.64 226.465 52.4 226.465 52.11C226.465 51.8867 226.422 51.6967 226.335 51.54C226.248 51.3833 226.095 51.245 225.875 51.125C225.655 51.0017 225.348 50.8817 224.955 50.765C224.502 50.6317 224.108 50.4817 223.775 50.315C223.445 50.145 223.188 49.9367 223.005 49.69C222.825 49.4433 222.735 49.1383 222.735 48.775C222.735 48.4317 222.83 48.1267 223.02 47.86C223.21 47.5933 223.472 47.385 223.805 47.235C224.142 47.0817 224.528 47.005 224.965 47.005C225.442 47.005 225.855 47.0733 226.205 47.21C226.558 47.3433 226.878 47.5367 227.165 47.79L226.655 48.355C226.408 48.135 226.143 47.9767 225.86 47.88C225.577 47.78 225.288 47.73 224.995 47.73C224.745 47.73 224.515 47.7683 224.305 47.845C224.098 47.9183 223.932 48.03 223.805 48.18C223.682 48.3267 223.62 48.515 223.62 48.745C223.62 48.9417 223.673 49.1117 223.78 49.255C223.887 49.3983 224.067 49.53 224.32 49.65C224.573 49.7667 224.918 49.89 225.355 50.02C225.712 50.1233 226.042 50.2533 226.345 50.41C226.652 50.5633 226.898 50.7733 227.085 51.04C227.272 51.3033 227.365 51.655 227.365 52.095ZM231.356 48.625C231.823 48.625 232.194 48.7383 232.471 48.965C232.751 49.1917 232.953 49.5117 233.076 49.925C233.199 50.335 233.261 50.815 233.261 51.365C233.261 51.895 233.186 52.3683 233.036 52.785C232.889 53.1983 232.666 53.5233 232.366 53.76C232.066 53.9967 231.688 54.115 231.231 54.115C230.654 54.115 230.191 53.9117 229.841 53.505V56.015L229.001 56.12V48.735H229.716L229.786 49.47C229.979 49.2 230.209 48.9917 230.476 48.845C230.746 48.6983 231.039 48.625 231.356 48.625ZM231.156 49.3C230.866 49.3 230.609 49.3883 230.386 49.565C230.166 49.7383 229.984 49.9317 229.841 50.145V52.755C229.978 52.9583 230.149 53.12 230.356 53.24C230.566 53.3567 230.796 53.415 231.046 53.415C231.483 53.415 231.811 53.2483 232.031 52.915C232.251 52.5817 232.361 52.0633 232.361 51.36C232.361 50.9 232.318 50.5183 232.231 50.215C232.144 49.9083 232.013 49.68 231.836 49.53C231.659 49.3767 231.433 49.3 231.156 49.3ZM238.767 52.85C238.767 53.06 238.802 53.2133 238.872 53.31C238.942 53.4067 239.051 53.4783 239.197 53.525L238.992 54.115C238.766 54.085 238.567 54.0133 238.397 53.9C238.227 53.7833 238.104 53.6083 238.027 53.375C237.837 53.6183 237.601 53.8033 237.317 53.93C237.034 54.0533 236.721 54.115 236.377 54.115C235.851 54.115 235.436 53.9667 235.132 53.67C234.829 53.3733 234.677 52.98 234.677 52.49C234.677 51.9467 234.889 51.53 235.312 51.24C235.736 50.95 236.347 50.805 237.147 50.805H237.922V50.365C237.922 49.985 237.811 49.7167 237.587 49.56C237.367 49.4 237.061 49.32 236.667 49.32C236.494 49.32 236.291 49.3417 236.057 49.385C235.824 49.425 235.571 49.4933 235.297 49.59L235.077 48.955C235.401 48.835 235.704 48.75 235.987 48.7C236.271 48.65 236.541 48.625 236.797 48.625C237.454 48.625 237.946 48.7783 238.272 49.085C238.602 49.3883 238.767 49.8017 238.767 50.325V52.85ZM236.592 53.475C236.852 53.475 237.101 53.41 237.337 53.28C237.574 53.1467 237.769 52.9633 237.922 52.73V51.375H237.162C236.582 51.375 236.172 51.475 235.932 51.675C235.696 51.875 235.577 52.1433 235.577 52.48C235.577 52.8067 235.661 53.055 235.827 53.225C235.997 53.3917 236.252 53.475 236.592 53.475ZM243.373 53.39C243.637 53.39 243.882 53.3467 244.108 53.26C244.338 53.1733 244.55 53.0633 244.743 52.93L245.153 53.48C244.923 53.6767 244.647 53.8317 244.323 53.945C244 54.0583 243.683 54.115 243.373 54.115C242.85 54.115 242.403 54.0033 242.033 53.78C241.667 53.5533 241.387 53.2367 241.193 52.83C241 52.42 240.903 51.94 240.903 51.39C240.903 50.8633 241 50.3917 241.193 49.975C241.39 49.555 241.672 49.225 242.038 48.985C242.408 48.745 242.857 48.625 243.383 48.625C243.72 48.625 244.035 48.6767 244.328 48.78C244.625 48.88 244.897 49.0317 245.143 49.235L244.733 49.795C244.51 49.6383 244.285 49.5217 244.058 49.445C243.835 49.365 243.607 49.325 243.373 49.325C242.92 49.325 242.547 49.495 242.253 49.835C241.96 50.175 241.813 50.6933 241.813 51.39C241.813 51.8567 241.88 52.2383 242.013 52.535C242.15 52.8283 242.335 53.045 242.568 53.185C242.805 53.3217 243.073 53.39 243.373 53.39ZM249.654 48.735V53.335H251.139V54H247.189V53.335H248.814V49.4H247.239V48.735H249.654ZM248.984 46.27C249.171 46.27 249.319 46.3267 249.429 46.44C249.543 46.5533 249.599 46.6917 249.599 46.855C249.599 47.025 249.543 47.1683 249.429 47.285C249.319 47.3983 249.171 47.455 248.984 47.455C248.808 47.455 248.663 47.3983 248.549 47.285C248.436 47.1683 248.379 47.025 248.379 46.855C248.379 46.6917 248.436 46.5533 248.549 46.44C248.663 46.3267 248.808 46.27 248.984 46.27ZM252.985 54V48.735H253.7L253.765 49.465C253.979 49.195 254.245 48.9883 254.565 48.845C254.889 48.6983 255.202 48.625 255.505 48.625C256.022 48.625 256.397 48.7617 256.63 49.035C256.867 49.3083 256.985 49.6883 256.985 50.175V54H256.145V50.795C256.145 50.435 256.125 50.145 256.085 49.925C256.045 49.7017 255.962 49.54 255.835 49.44C255.709 49.3367 255.512 49.285 255.245 49.285C255.039 49.285 254.844 49.33 254.66 49.42C254.48 49.51 254.319 49.6233 254.175 49.76C254.035 49.8933 253.919 50.0283 253.825 50.165V54H252.985ZM263.262 48.175L263.522 48.965C263.298 49.035 263.06 49.0783 262.807 49.095C262.553 49.1117 262.278 49.12 261.982 49.12C262.285 49.26 262.513 49.4417 262.667 49.665C262.82 49.885 262.897 50.145 262.897 50.445C262.897 50.7917 262.818 51.1 262.662 51.37C262.505 51.64 262.278 51.8517 261.982 52.005C261.688 52.1583 261.333 52.235 260.917 52.235C260.74 52.235 260.592 52.2267 260.472 52.21C260.355 52.1933 260.242 52.1683 260.132 52.135C260.052 52.1883 259.985 52.2617 259.932 52.355C259.882 52.4483 259.857 52.545 259.857 52.645C259.857 52.7717 259.907 52.8767 260.007 52.96C260.107 53.0433 260.292 53.085 260.562 53.085H261.512C261.865 53.085 262.182 53.1483 262.462 53.275C262.745 53.4017 262.967 53.5717 263.127 53.785C263.29 53.9983 263.372 54.2417 263.372 54.515C263.372 55.0317 263.152 55.4283 262.712 55.705C262.275 55.9817 261.657 56.12 260.857 56.12C260.297 56.12 259.855 56.0617 259.532 55.945C259.208 55.8317 258.977 55.6567 258.837 55.42C258.7 55.1867 258.632 54.8917 258.632 54.535H259.392C259.392 54.7383 259.432 54.9067 259.512 55.04C259.592 55.1733 259.737 55.2717 259.947 55.335C260.157 55.4017 260.458 55.435 260.852 55.435C261.238 55.435 261.553 55.4017 261.797 55.335C262.043 55.2717 262.225 55.175 262.342 55.045C262.462 54.9183 262.522 54.76 262.522 54.57C262.522 54.32 262.408 54.1317 262.182 54.005C261.955 53.8783 261.672 53.815 261.332 53.815H260.392C259.938 53.815 259.603 53.715 259.387 53.515C259.173 53.315 259.067 53.085 259.067 52.825C259.067 52.655 259.115 52.49 259.212 52.33C259.312 52.17 259.457 52.0283 259.647 51.905C259.343 51.745 259.12 51.5467 258.977 51.31C258.833 51.0733 258.762 50.7867 258.762 50.45C258.762 50.0933 258.85 49.7783 259.027 49.505C259.203 49.2283 259.45 49.0117 259.767 48.855C260.083 48.6983 260.448 48.62 260.862 48.62C261.305 48.6167 261.665 48.5983 261.942 48.565C262.218 48.5283 262.455 48.4767 262.652 48.41C262.852 48.3433 263.055 48.265 263.262 48.175ZM260.862 49.235C260.438 49.235 260.125 49.35 259.922 49.58C259.722 49.8067 259.622 50.0967 259.622 50.45C259.622 50.8067 259.725 51.1 259.932 51.33C260.138 51.56 260.455 51.675 260.882 51.675C261.255 51.675 261.538 51.5667 261.732 51.35C261.928 51.1333 262.027 50.8317 262.027 50.445C262.027 50.0483 261.928 49.7483 261.732 49.545C261.538 49.3383 261.248 49.235 260.862 49.235ZM274.914 49.58V50.305H271.024V49.58H274.914ZM274.914 51.475V52.205H271.024V51.475H274.914ZM285.696 47.115V53.8H284.856V48.025L283.276 48.985L282.911 48.385L284.961 47.115H285.696ZM287.136 53.315V54H283.161V53.315H287.136ZM291.312 47.005C291.579 47.005 291.824 47.04 292.047 47.11C292.27 47.1767 292.479 47.275 292.672 47.405L292.342 47.975C292.185 47.8783 292.019 47.8067 291.842 47.76C291.669 47.71 291.487 47.685 291.297 47.685C290.93 47.685 290.619 47.8083 290.362 48.055C290.105 48.2983 289.912 48.6433 289.782 49.09C289.652 49.5333 289.589 50.055 289.592 50.655L289.602 50.98C289.602 51.8267 289.714 52.4483 289.937 52.845C290.16 53.2383 290.525 53.435 291.032 53.435C291.469 53.435 291.795 53.28 292.012 52.97C292.232 52.66 292.342 52.2383 292.342 51.705C292.342 51.3283 292.29 51.0317 292.187 50.815C292.087 50.595 291.945 50.4383 291.762 50.345C291.579 50.2517 291.365 50.205 291.122 50.205C290.765 50.205 290.45 50.3117 290.177 50.525C289.904 50.7383 289.682 51.0117 289.512 51.345L289.492 50.605C289.719 50.2183 289.977 49.94 290.267 49.77C290.557 49.6 290.885 49.515 291.252 49.515C291.609 49.515 291.934 49.5933 292.227 49.75C292.52 49.9067 292.755 50.1467 292.932 50.47C293.112 50.79 293.202 51.195 293.202 51.685C293.202 52.1917 293.105 52.6267 292.912 52.99C292.719 53.35 292.457 53.6283 292.127 53.825C291.797 54.0183 291.434 54.115 291.037 54.115C290.617 54.115 290.262 54.0367 289.972 53.88C289.682 53.72 289.447 53.4933 289.267 53.2C289.087 52.9033 288.955 52.5483 288.872 52.135C288.792 51.7183 288.752 51.255 288.752 50.745C288.752 49.985 288.852 49.325 289.052 48.765C289.255 48.205 289.547 47.7717 289.927 47.465C290.31 47.1583 290.772 47.005 291.312 47.005ZM297.313 48.625C297.78 48.625 298.151 48.7383 298.428 48.965C298.708 49.1917 298.91 49.5117 299.033 49.925C299.156 50.335 299.218 50.815 299.218 51.365C299.218 51.895 299.143 52.3683 298.993 52.785C298.846 53.1983 298.623 53.5233 298.323 53.76C298.023 53.9967 297.645 54.115 297.188 54.115C296.611 54.115 296.148 53.9117 295.798 53.505V56.015L294.958 56.12V48.735H295.673L295.743 49.47C295.936 49.2 296.166 48.9917 296.433 48.845C296.703 48.6983 296.996 48.625 297.313 48.625ZM297.113 49.3C296.823 49.3 296.566 49.3883 296.343 49.565C296.123 49.7383 295.941 49.9317 295.798 50.145V52.755C295.935 52.9583 296.106 53.12 296.313 53.24C296.523 53.3567 296.753 53.415 297.003 53.415C297.44 53.415 297.768 53.2483 297.988 52.915C298.208 52.5817 298.318 52.0633 298.318 51.36C298.318 50.9 298.275 50.5183 298.188 50.215C298.101 49.9083 297.97 49.68 297.793 49.53C297.616 49.3767 297.39 49.3 297.113 49.3ZM301.464 54H300.504L302.449 51.22L300.744 48.735H301.739L302.959 50.695L304.194 48.735H305.154L303.454 51.185L305.394 54H304.364L302.924 51.74L301.464 54Z" fill="black"/>
<rect x="358" y="340" width="102" height="29" rx="8" fill="#D6EFFF"/>
<path d="M371.64 353.24C371.64 352.883 371.57 352.602 371.43 352.395C371.29 352.185 371.098 352.035 370.855 351.945C370.612 351.852 370.333 351.805 370.02 351.805H369.025V354.745H369.985C370.308 354.745 370.593 354.702 370.84 354.615C371.087 354.525 371.282 354.372 371.425 354.155C371.568 353.935 371.64 353.63 371.64 353.24ZM372.57 353.23C372.57 353.767 372.455 354.197 372.225 354.52C371.998 354.843 371.685 355.078 371.285 355.225C370.885 355.372 370.425 355.445 369.905 355.445H369.025V358H368.155V351.115H369.915C370.735 351.115 371.382 351.288 371.855 351.635C372.332 351.978 372.57 352.51 372.57 353.23ZM377.771 356.85C377.771 357.06 377.806 357.213 377.876 357.31C377.946 357.407 378.054 357.478 378.201 357.525L377.996 358.115C377.769 358.085 377.571 358.013 377.401 357.9C377.231 357.783 377.108 357.608 377.031 357.375C376.841 357.618 376.604 357.803 376.321 357.93C376.038 358.053 375.724 358.115 375.381 358.115C374.854 358.115 374.439 357.967 374.136 357.67C373.833 357.373 373.681 356.98 373.681 356.49C373.681 355.947 373.893 355.53 374.316 355.24C374.739 354.95 375.351 354.805 376.151 354.805H376.926V354.365C376.926 353.985 376.814 353.717 376.591 353.56C376.371 353.4 376.064 353.32 375.671 353.32C375.498 353.32 375.294 353.342 375.061 353.385C374.828 353.425 374.574 353.493 374.301 353.59L374.081 352.955C374.404 352.835 374.708 352.75 374.991 352.7C375.274 352.65 375.544 352.625 375.801 352.625C376.458 352.625 376.949 352.778 377.276 353.085C377.606 353.388 377.771 353.802 377.771 354.325V356.85ZM375.596 357.475C375.856 357.475 376.104 357.41 376.341 357.28C376.578 357.147 376.773 356.963 376.926 356.73V355.375H376.166C375.586 355.375 375.176 355.475 374.936 355.675C374.699 355.875 374.581 356.143 374.581 356.48C374.581 356.807 374.664 357.055 374.831 357.225C375.001 357.392 375.256 357.475 375.596 357.475ZM383.147 350.51L383.987 350.615V358H383.252L383.172 357.305C382.976 357.585 382.749 357.79 382.492 357.92C382.239 358.05 381.967 358.115 381.677 358.115C381.221 358.115 380.844 358 380.547 357.77C380.251 357.54 380.031 357.22 379.887 356.81C379.744 356.397 379.672 355.918 379.672 355.375C379.672 354.848 379.754 354.378 379.917 353.965C380.081 353.548 380.316 353.222 380.622 352.985C380.932 352.745 381.304 352.625 381.737 352.625C382.041 352.625 382.307 352.678 382.537 352.785C382.767 352.888 382.971 353.042 383.147 353.245V350.51ZM381.957 353.3C381.517 353.3 381.179 353.472 380.942 353.815C380.706 354.158 380.587 354.678 380.587 355.375C380.587 355.828 380.636 356.208 380.732 356.515C380.829 356.822 380.971 357.052 381.157 357.205C381.347 357.358 381.579 357.435 381.852 357.435C382.152 357.435 382.407 357.35 382.617 357.18C382.831 357.01 383.007 356.818 383.147 356.605V353.975C383.004 353.762 382.831 353.597 382.627 353.48C382.424 353.36 382.201 353.3 381.957 353.3ZM389.143 350.51L389.983 350.615V358H389.248L389.168 357.305C388.972 357.585 388.745 357.79 388.488 357.92C388.235 358.05 387.963 358.115 387.673 358.115C387.217 358.115 386.84 358 386.543 357.77C386.247 357.54 386.027 357.22 385.883 356.81C385.74 356.397 385.668 355.918 385.668 355.375C385.668 354.848 385.75 354.378 385.913 353.965C386.077 353.548 386.312 353.222 386.618 352.985C386.928 352.745 387.3 352.625 387.733 352.625C388.037 352.625 388.303 352.678 388.533 352.785C388.763 352.888 388.967 353.042 389.143 353.245V350.51ZM387.953 353.3C387.513 353.3 387.175 353.472 386.938 353.815C386.702 354.158 386.583 354.678 386.583 355.375C386.583 355.828 386.632 356.208 386.728 356.515C386.825 356.822 386.967 357.052 387.153 357.205C387.343 357.358 387.575 357.435 387.848 357.435C388.148 357.435 388.403 357.35 388.613 357.18C388.827 357.01 389.003 356.818 389.143 356.605V353.975C389 353.762 388.827 353.597 388.623 353.48C388.42 353.36 388.197 353.3 387.953 353.3ZM394.654 352.735V357.335H396.139V358H392.189V357.335H393.814V353.4H392.239V352.735H394.654ZM393.984 350.27C394.171 350.27 394.319 350.327 394.429 350.44C394.543 350.553 394.599 350.692 394.599 350.855C394.599 351.025 394.543 351.168 394.429 351.285C394.319 351.398 394.171 351.455 393.984 351.455C393.808 351.455 393.663 351.398 393.549 351.285C393.436 351.168 393.379 351.025 393.379 350.855C393.379 350.692 393.436 350.553 393.549 350.44C393.663 350.327 393.808 350.27 393.984 350.27ZM397.985 358V352.735H398.7L398.765 353.465C398.979 353.195 399.245 352.988 399.565 352.845C399.889 352.698 400.202 352.625 400.505 352.625C401.022 352.625 401.397 352.762 401.63 353.035C401.867 353.308 401.985 353.688 401.985 354.175V358H401.145V354.795C401.145 354.435 401.125 354.145 401.085 353.925C401.045 353.702 400.962 353.54 400.835 353.44C400.709 353.337 400.512 353.285 400.245 353.285C400.039 353.285 399.844 353.33 399.66 353.42C399.48 353.51 399.319 353.623 399.175 353.76C399.035 353.893 398.919 354.028 398.825 354.165V358H397.985ZM408.262 352.175L408.522 352.965C408.298 353.035 408.06 353.078 407.807 353.095C407.553 353.112 407.278 353.12 406.982 353.12C407.285 353.26 407.513 353.442 407.667 353.665C407.82 353.885 407.897 354.145 407.897 354.445C407.897 354.792 407.818 355.1 407.662 355.37C407.505 355.64 407.278 355.852 406.982 356.005C406.688 356.158 406.333 356.235 405.917 356.235C405.74 356.235 405.592 356.227 405.472 356.21C405.355 356.193 405.242 356.168 405.132 356.135C405.052 356.188 404.985 356.262 404.932 356.355C404.882 356.448 404.857 356.545 404.857 356.645C404.857 356.772 404.907 356.877 405.007 356.96C405.107 357.043 405.292 357.085 405.562 357.085H406.512C406.865 357.085 407.182 357.148 407.462 357.275C407.745 357.402 407.967 357.572 408.127 357.785C408.29 357.998 408.372 358.242 408.372 358.515C408.372 359.032 408.152 359.428 407.712 359.705C407.275 359.982 406.657 360.12 405.857 360.12C405.297 360.12 404.855 360.062 404.532 359.945C404.208 359.832 403.977 359.657 403.837 359.42C403.7 359.187 403.632 358.892 403.632 358.535H404.392C404.392 358.738 404.432 358.907 404.512 359.04C404.592 359.173 404.737 359.272 404.947 359.335C405.157 359.402 405.458 359.435 405.852 359.435C406.238 359.435 406.553 359.402 406.797 359.335C407.043 359.272 407.225 359.175 407.342 359.045C407.462 358.918 407.522 358.76 407.522 358.57C407.522 358.32 407.408 358.132 407.182 358.005C406.955 357.878 406.672 357.815 406.332 357.815H405.392C404.938 357.815 404.603 357.715 404.387 357.515C404.173 357.315 404.067 357.085 404.067 356.825C404.067 356.655 404.115 356.49 404.212 356.33C404.312 356.17 404.457 356.028 404.647 355.905C404.343 355.745 404.12 355.547 403.977 355.31C403.833 355.073 403.762 354.787 403.762 354.45C403.762 354.093 403.85 353.778 404.027 353.505C404.203 353.228 404.45 353.012 404.767 352.855C405.083 352.698 405.448 352.62 405.862 352.62C406.305 352.617 406.665 352.598 406.942 352.565C407.218 352.528 407.455 352.477 407.652 352.41C407.852 352.343 408.055 352.265 408.262 352.175ZM405.862 353.235C405.438 353.235 405.125 353.35 404.922 353.58C404.722 353.807 404.622 354.097 404.622 354.45C404.622 354.807 404.725 355.1 404.932 355.33C405.138 355.56 405.455 355.675 405.882 355.675C406.255 355.675 406.538 355.567 406.732 355.35C406.928 355.133 407.027 354.832 407.027 354.445C407.027 354.048 406.928 353.748 406.732 353.545C406.538 353.338 406.248 353.235 405.862 353.235ZM419.914 353.58V354.305H416.024V353.58H419.914ZM419.914 355.475V356.205H416.024V355.475H419.914ZM429.656 351.005C430.089 351.005 430.459 351.088 430.766 351.255C431.076 351.422 431.314 351.65 431.481 351.94C431.648 352.23 431.731 352.558 431.731 352.925C431.731 353.242 431.676 353.552 431.566 353.855C431.456 354.155 431.279 354.472 431.036 354.805C430.796 355.135 430.479 355.502 430.086 355.905C429.696 356.308 429.216 356.768 428.646 357.285H431.891L431.786 358H427.691V357.315C428.211 356.818 428.653 356.383 429.016 356.01C429.383 355.637 429.684 355.31 429.921 355.03C430.161 354.747 430.348 354.49 430.481 354.26C430.618 354.03 430.713 353.812 430.766 353.605C430.819 353.395 430.846 353.178 430.846 352.955C430.846 352.568 430.736 352.263 430.516 352.04C430.299 351.817 429.999 351.705 429.616 351.705C429.276 351.705 428.998 351.763 428.781 351.88C428.564 351.997 428.348 352.183 428.131 352.44L427.551 351.99C427.824 351.657 428.128 351.41 428.461 351.25C428.794 351.087 429.193 351.005 429.656 351.005ZM435.697 351.005L436.397 351.3L434.567 355.655H438.242V356.325H433.677V355.715L435.697 351.005ZM437.352 353.7V358H436.542L436.537 355.815L436.652 353.7H437.352ZM442.313 352.625C442.78 352.625 443.151 352.738 443.428 352.965C443.708 353.192 443.91 353.512 444.033 353.925C444.156 354.335 444.218 354.815 444.218 355.365C444.218 355.895 444.143 356.368 443.993 356.785C443.846 357.198 443.623 357.523 443.323 357.76C443.023 357.997 442.645 358.115 442.188 358.115C441.611 358.115 441.148 357.912 440.798 357.505V360.015L439.958 360.12V352.735H440.673L440.743 353.47C440.936 353.2 441.166 352.992 441.433 352.845C441.703 352.698 441.996 352.625 442.313 352.625ZM442.113 353.3C441.823 353.3 441.566 353.388 441.343 353.565C441.123 353.738 440.941 353.932 440.798 354.145V356.755C440.935 356.958 441.106 357.12 441.313 357.24C441.523 357.357 441.753 357.415 442.003 357.415C442.44 357.415 442.768 357.248 442.988 356.915C443.208 356.582 443.318 356.063 443.318 355.36C443.318 354.9 443.275 354.518 443.188 354.215C443.101 353.908 442.97 353.68 442.793 353.53C442.616 353.377 442.39 353.3 442.113 353.3ZM446.464 358H445.504L447.449 355.22L445.744 352.735H446.739L447.959 354.695L449.194 352.735H450.154L448.454 355.185L450.394 358H449.364L447.924 355.74L446.464 358Z" fill="black"/>
<g clip-path="url(#clip0_7_4)">
<rect x="36" y="95" width="530" height="198" rx="9" fill="#FED18C"/>
<rect x="60" y="119" width="150" height="150" rx="7" fill="#D6EFFF"/>
<rect x="226" y="119" width="150" height="150" rx="7" fill="#D6EFFF"/>
<rect x="392" y="119" width="150" height="150" rx="7" fill="#D6EFFF"/>
<path d="M212.646 197.646C212.451 197.842 212.451 198.158 212.646 198.354L215.828 201.536C216.024 201.731 216.34 201.731 216.536 201.536C216.731 201.34 216.731 201.024 216.536 200.828L213.707 198L216.536 195.172C216.731 194.976 216.731 194.66 216.536 194.464C216.34 194.269 216.024 194.269 215.828 194.464L212.646 197.646ZM223.354 198.354C223.549 198.158 223.549 197.842 223.354 197.646L220.172 194.464C219.976 194.269 219.66 194.269 219.464 194.464C219.269 194.66 219.269 194.976 219.464 195.172L222.293 198L219.464 200.828C219.269 201.024 219.269 201.34 219.464 201.536C219.66 201.731 219.976 201.731 220.172 201.536L223.354 198.354ZM213 198.5H223V197.5H213V198.5Z" fill="black"/>
<path d="M300.646 289.354C300.842 289.549 301.158 289.549 301.354 289.354L304.536 286.172C304.731 285.976 304.731 285.66 304.536 285.464C304.34 285.269 304.024 285.269 303.828 285.464L301 288.293L298.172 285.464C297.976 285.269 297.66 285.269 297.464 285.464C297.269 285.66 297.269 285.976 297.464 286.172L300.646 289.354ZM301.354 272.646C301.158 272.451 300.842 272.451 300.646 272.646L297.464 275.828C297.269 276.024 297.269 276.34 297.464 276.536C297.66 276.731 297.976 276.731 298.172 276.536L301 273.707L303.828 276.536C304.024 276.731 304.34 276.731 304.536 276.536C304.731 276.34 304.731 276.024 304.536 275.828L301.354 272.646ZM301.5 289V273H300.5V289H301.5Z" fill="black"/>
<path d="M300.646 115.354C300.842 115.549 301.158 115.549 301.354 115.354L304.536 112.172C304.731 111.976 304.731 111.66 304.536 111.464C304.34 111.269 304.024 111.269 303.828 111.464L301 114.293L298.172 111.464C297.976 111.269 297.66 111.269 297.464 111.464C297.269 111.66 297.269 111.976 297.464 112.172L300.646 115.354ZM301.354 98.6464C301.158 98.4512 300.842 98.4512 300.646 98.6464L297.464 101.828C297.269 102.024 297.269 102.34 297.464 102.536C297.66 102.731 297.976 102.731 298.172 102.536L301 99.7071L303.828 102.536C304.024 102.731 304.34 102.731 304.536 102.536C304.731 102.34 304.731 102.024 304.536 101.828L301.354 98.6464ZM301.5 115V99H300.5V115H301.5Z" fill="black"/>
<path d="M545.646 193.646C545.451 193.842 545.451 194.158 545.646 194.354L548.828 197.536C549.024 197.731 549.34 197.731 549.536 197.536C549.731 197.34 549.731 197.024 549.536 196.828L546.707 194L549.536 191.172C549.731 190.976 549.731 190.66 549.536 190.464C549.34 190.269 549.024 190.269 548.828 190.464L545.646 193.646ZM562.354 194.354C562.549 194.158 562.549 193.842 562.354 193.646L559.172 190.464C558.976 190.269 558.66 190.269 558.464 190.464C558.269 190.66 558.269 190.976 558.464 191.172L561.293 194L558.464 196.828C558.269 197.024 558.269 197.34 558.464 197.536C558.66 197.731 558.976 197.731 559.172 197.536L562.354 194.354ZM546 194.5H562V193.5H546V194.5Z" fill="black"/>
<path d="M39.6464 193.646C39.4512 193.842 39.4512 194.158 39.6464 194.354L42.8284 197.536C43.0237 197.731 43.3403 197.731 43.5355 197.536C43.7308 197.34 43.7308 197.024 43.5355 196.828L40.7071 194L43.5355 191.172C43.7308 190.976 43.7308 190.66 43.5355 190.464C43.3403 190.269 43.0237 190.269 42.8284 190.464L39.6464 193.646ZM56.3536 194.354C56.5488 194.158 56.5488 193.842 56.3536 193.646L53.1716 190.464C52.9763 190.269 52.6597 190.269 52.4645 190.464C52.2692 190.66 52.2692 190.976 52.4645 191.172L55.2929 194L52.4645 196.828C52.2692 197.024 52.2692 197.34 52.4645 197.536C52.6597 197.731 52.9763 197.731 53.1716 197.536L56.3536 194.354ZM40 194.5H56V193.5H40V194.5Z" fill="black"/>
<path d="M379.646 197.646C379.451 197.842 379.451 198.158 379.646 198.354L382.828 201.536C383.024 201.731 383.34 201.731 383.536 201.536C383.731 201.34 383.731 201.024 383.536 200.828L380.707 198L383.536 195.172C383.731 194.976 383.731 194.66 383.536 194.464C383.34 194.269 383.024 194.269 382.828 194.464L379.646 197.646ZM390.354 198.354C390.549 198.158 390.549 197.842 390.354 197.646L387.172 194.464C386.976 194.269 386.66 194.269 386.464 194.464C386.269 194.66 386.269 194.976 386.464 195.172L389.293 198L386.464 200.828C386.269 201.024 386.269 201.34 386.464 201.536C386.66 201.731 386.976 201.731 387.172 201.536L390.354 198.354ZM380 198.5H390V197.5H380V198.5Z" fill="black"/>
</g>
<path d="M307.965 280.501C307.689 280.521 307.482 280.76 307.501 281.035L307.819 285.524C307.839 285.8 308.078 286.007 308.353 285.987C308.629 285.968 308.836 285.729 308.817 285.453L308.534 281.463L312.524 281.181C312.8 281.161 313.007 280.922 312.987 280.647C312.968 280.371 312.729 280.164 312.453 280.183L307.965 280.501ZM307.672 281.378L375.672 340.378L376.328 339.622L308.328 280.622L307.672 281.378Z" fill="black"/>
<path d="M217.638 188.345C217.829 188.545 218.145 188.552 218.345 188.362L221.603 185.258C221.803 185.067 221.81 184.751 221.62 184.551C221.429 184.351 221.113 184.343 220.913 184.534L218.017 187.293L215.258 184.397C215.067 184.197 214.751 184.19 214.551 184.38C214.351 184.571 214.343 184.887 214.534 185.087L217.638 188.345ZM218.5 188.012L221.516 63.0123L220.516 62.9882L217.5 187.988L218.5 188.012Z" fill="black"/>
<defs>
<clipPath id="clip0_7_4">
<rect width="530" height="198" fill="white" transform="translate(36 95)"/>
</clipPath>
</defs>
</svg>
